<svg width="25" height="24" viewBox="0 0 25 24" fill="none" xmlns="http://www.w3.org/2000/svg">
<path d="M12.3018 0.00708008C9.92839 0.00708008 7.60831 0.710868 5.63492 2.02944C3.66153 3.34802 2.12346 5.22216 1.21521 7.41488C0.306957 9.60759 0.0693173 12.0204 0.53234 14.3482C0.995362 16.6759 2.13825 18.8141 3.81648 20.4924C5.49471 22.1706 7.63291 23.3135 9.96068 23.7765C12.2884 24.2395 14.7012 24.0019 16.894 23.0936C19.0867 22.1854 20.9608 20.6473 22.2794 18.6739C23.598 16.7005 24.3018 14.3805 24.3018 12.0071C24.2983 8.82554 23.0329 5.77529 20.7832 3.5256C18.5336 1.27591 15.4833 0.0105212 12.3018 0.00708008ZM16.3018 13.0071H13.3018V16.0071C13.3018 16.2723 13.1964 16.5266 13.0089 16.7142C12.8213 16.9017 12.567 17.0071 12.3018 17.0071C12.0365 17.0071 11.7822 16.9017 11.5947 16.7142C11.4071 16.5266 11.3018 16.2723 11.3018 16.0071V13.0071H8.30176C8.03655 13.0071 7.78219 12.9017 7.59465 12.7142C7.40712 12.5266 7.30176 12.2723 7.30176 12.0071C7.30176 11.7419 7.40712 11.4875 7.59465 11.3C7.78219 11.1124 8.03655 11.0071 8.30176 11.0071H11.3018V8.00708C11.3018 7.74186 11.4071 7.48751 11.5947 7.29997C11.7822 7.11244 12.0365 7.00708 12.3018 7.00708C12.567 7.00708 12.8213 7.11244 13.0089 7.29997C13.1964 7.48751 13.3018 7.74186 13.3018 8.00708V11.0071H16.3018C16.567 11.0071 16.8213 11.1124 17.0089 11.3C17.1964 11.4875 17.3018 11.7419 17.3018 12.0071C17.3018 12.2723 17.1964 12.5266 17.0089 12.7142C16.8213 12.9017 16.567 13.0071 16.3018 13.0071Z" fill="#EAEAEA"/>
</svg>
