<svg width="16" height="17" viewBox="0 0 16 17" fill="none" xmlns="http://www.w3.org/2000/svg">
<g clip-path="url(#clip0_1_1788)">
<path d="M0.5 5.87382V5.22799C0.5 3.44742 1.9486 1.99882 3.72917 1.99882H4.375V1.35299C4.375 0.996487 4.66369 0.707153 5.02083 0.707153C5.37798 0.707153 5.66667 0.996487 5.66667 1.35299V1.99882H10.8333V1.35299C10.8333 0.996487 11.122 0.707153 11.4792 0.707153C11.8363 0.707153 12.125 0.996487 12.125 1.35299V1.99882H12.7708C14.5514 1.99882 16 3.44742 16 5.22799V5.87382H0.5ZM16 7.16549V12.978C16 14.7585 14.5514 16.2072 12.7708 16.2072H3.72917C1.9486 16.2072 0.5 14.7585 0.5 12.978V7.16549H16ZM12.0165 9.20115C11.7685 8.94476 11.3603 8.93701 11.1033 9.18436L8.033 12.1436C7.79017 12.3864 7.38265 12.4045 7.10365 12.1268L5.63244 10.7595C5.37217 10.5174 4.964 10.5309 4.71987 10.7931C4.47704 11.054 4.4919 11.4629 4.75346 11.7057L6.20788 13.0568C6.57342 13.423 7.06037 13.6245 7.57769 13.6245C8.095 13.6245 8.5826 13.423 8.9391 13.0652L12.0004 10.115C12.2567 9.86765 12.2645 9.45755 12.0165 9.20115Z" fill="#00A8A5"/>
</g>
<defs>
<clipPath id="clip0_1_1788">
<rect width="15.5" height="15.5" fill="white" transform="translate(0.5 0.707153)"/>
</clipPath>
</defs>
</svg>
