<svg width="37" height="36" viewBox="0 0 37 36" fill="none" xmlns="http://www.w3.org/2000/svg">
<rect x="0.576904" y="0.00610352" width="36" height="36" rx="18" fill="#00A8A5"/>
<path d="M28.5469 24.3361C28.5469 24.6961 28.4669 25.0661 28.2969 25.4261C28.1269 25.7861 27.9069 26.1261 27.6169 26.4461C27.1269 26.9861 26.5869 27.3761 25.9769 27.6261C25.3769 27.8761 24.7269 28.0061 24.0269 28.0061C23.0069 28.0061 21.9169 27.7661 20.7669 27.2761C19.6169 26.7861 18.4669 26.1261 17.3269 25.2961C16.165 24.4462 15.0686 23.5102 14.0469 22.4961C13.0357 21.4781 12.103 20.385 11.2569 19.2261C10.4369 18.0861 9.7769 16.9461 9.2969 15.8161C8.8169 14.6761 8.5769 13.5861 8.5769 12.5461C8.5769 11.8661 8.6969 11.2161 8.9369 10.6161C9.1769 10.0061 9.5569 9.4461 10.0869 8.9461C10.7269 8.3161 11.4269 8.0061 12.1669 8.0061C12.4469 8.0061 12.7269 8.0661 12.9769 8.1861C13.2369 8.3061 13.4669 8.4861 13.6469 8.7461L15.9669 12.0161C16.1469 12.2661 16.2769 12.4961 16.3669 12.7161C16.4569 12.9261 16.5069 13.1361 16.5069 13.3261C16.5069 13.5661 16.4369 13.8061 16.2969 14.0361C16.1669 14.2661 15.9769 14.5061 15.7369 14.7461L14.9769 15.5361C14.8669 15.6461 14.8169 15.7761 14.8169 15.9361C14.8169 16.0161 14.8269 16.0861 14.8469 16.1661C14.8769 16.2461 14.9069 16.3061 14.9269 16.3661C15.1069 16.6961 15.4169 17.1261 15.8569 17.6461C16.3069 18.1661 16.7869 18.6961 17.3069 19.2261C17.8469 19.7561 18.3669 20.2461 18.8969 20.6961C19.4169 21.1361 19.8469 21.4361 20.1869 21.6161C20.2369 21.6361 20.2969 21.6661 20.3669 21.6961C20.4469 21.7261 20.5269 21.7361 20.6169 21.7361C20.7869 21.7361 20.9169 21.6761 21.0269 21.5661L21.7869 20.8161C22.0369 20.5661 22.2769 20.3761 22.5069 20.2561C22.7369 20.1161 22.9669 20.0461 23.2169 20.0461C23.4069 20.0461 23.6069 20.0861 23.8269 20.1761C24.0469 20.2661 24.2769 20.3961 24.5269 20.5661L27.8369 22.9161C28.0969 23.0961 28.2769 23.3061 28.3869 23.5561C28.4869 23.8061 28.5469 24.0561 28.5469 24.3361Z" stroke="white" stroke-width="1.5" stroke-miterlimit="10"/>
</svg>
