<svg width="30" height="31" viewBox="0 0 30 31" fill="none" xmlns="http://www.w3.org/2000/svg">
<path fill-rule="evenodd" clip-rule="evenodd" d="M5.67476 3.02075H9.89976C11.6623 3.02075 13.0748 4.45825 13.0748 6.222V10.4833C13.0748 12.2583 11.6623 13.6833 9.89976 13.6833H5.67476C3.92476 13.6833 2.49976 12.2583 2.49976 10.4833V6.222C2.49976 4.45825 3.92476 3.02075 5.67476 3.02075ZM5.67476 17.3579H9.89976C11.6623 17.3579 13.0748 18.7841 13.0748 20.5591V24.8204C13.0748 26.5829 11.6623 28.0204 9.89976 28.0204H5.67476C3.92476 28.0204 2.49976 26.5829 2.49976 24.8204V20.5591C2.49976 18.7841 3.92476 17.3579 5.67476 17.3579ZM24.3249 3.02075H20.0999C18.3374 3.02075 16.9249 4.45825 16.9249 6.222V10.4833C16.9249 12.2583 18.3374 13.6833 20.0999 13.6833H24.3249C26.0749 13.6833 27.4999 12.2583 27.4999 10.4833V6.222C27.4999 4.45825 26.0749 3.02075 24.3249 3.02075ZM20.0999 17.3579H24.3249C26.0749 17.3579 27.4999 18.7841 27.4999 20.5591V24.8204C27.4999 26.5829 26.0749 28.0204 24.3249 28.0204H20.0999C18.3374 28.0204 16.9249 26.5829 16.9249 24.8204V20.5591C16.9249 18.7841 18.3374 17.3579 20.0999 17.3579Z" fill="#CCCCCF"/>
</svg>
