<svg width="37" height="36" viewBox="0 0 37 36" fill="none" xmlns="http://www.w3.org/2000/svg">
<rect x="0.576904" y="0.00610352" width="36" height="36" rx="18" fill="#E05656"/>
<g clip-path="url(#clip0_1_829)">
<path d="M28.3368 19.9118C28.6569 20.2376 28.6569 20.7643 28.3368 21.0901C28.1772 21.2526 27.9676 21.3343 27.7581 21.3343C27.5485 21.3343 27.339 21.2526 27.1793 21.0901L25.3022 19.1793L23.4252 21.0901C23.2655 21.2526 23.056 21.3343 22.8464 21.3343C22.6368 21.3343 22.4273 21.2526 22.2676 21.0901C21.9476 20.7643 21.9476 20.2376 22.2676 19.9118L24.1447 18.001L22.2676 16.0901C21.9476 15.7643 21.9476 15.2376 22.2676 14.9118C22.5877 14.586 23.1051 14.586 23.4252 14.9118L25.3022 16.8226L27.1793 14.9118C27.4994 14.586 28.0168 14.586 28.3368 14.9118C28.6569 15.2376 28.6569 15.7643 28.3368 16.0901L26.4598 18.001L28.3368 19.9118ZM10.5672 13.001C10.5672 10.2435 12.7701 8.00098 15.4789 8.00098C18.1877 8.00098 20.3905 10.2435 20.3905 13.001C20.3905 15.7585 18.1877 18.001 15.4789 18.001C12.7701 18.001 10.5672 15.7585 10.5672 13.001ZM12.2044 13.001C12.2044 14.8393 13.673 16.3343 15.4789 16.3343C17.2847 16.3343 18.7533 14.8393 18.7533 13.001C18.7533 11.1626 17.2847 9.66764 15.4789 9.66764C13.673 9.66764 12.2044 11.1626 12.2044 13.001ZM15.4789 19.6676C11.8679 19.6676 8.92993 22.6585 8.92993 26.3343V27.1676C8.92993 27.6285 9.29667 28.001 9.74855 28.001C10.2004 28.001 10.5672 27.6285 10.5672 27.1676V26.3343C10.5672 23.5768 12.7701 21.3343 15.4789 21.3343C18.1877 21.3343 20.3905 23.5768 20.3905 26.3343V27.1676C20.3905 27.6285 20.7573 28.001 21.2092 28.001C21.661 28.001 22.0278 27.6285 22.0278 27.1676V26.3343C22.0278 22.6585 19.0898 19.6676 15.4789 19.6676Z" fill="white"/>
</g>
<defs>
<clipPath id="clip0_1_829">
<rect width="20" height="20" fill="white" transform="translate(8.5769 8.0061)"/>
</clipPath>
</defs>
</svg>
