<svg width="36" height="37" viewBox="0 0 36 37" fill="none" xmlns="http://www.w3.org/2000/svg">
<rect y="0.112549" width="36" height="36" rx="18" fill="#00417E"/>
<g clip-path="url(#clip0_1_1285)">
<path d="M18 7.11255C15.0836 7.1157 12.2875 8.27564 10.2253 10.3379C8.16307 12.4001 7.00314 15.1961 6.99998 18.1125C6.88448 26.8878 17.2291 32.2558 24.325 27.1115C24.427 27.0436 24.5143 26.9561 24.5819 26.8539C24.6494 26.7518 24.6958 26.6371 24.7183 26.5167C24.7409 26.3963 24.739 26.2727 24.7129 26.153C24.6869 26.0333 24.6371 25.9201 24.5665 25.82C24.4959 25.7199 24.406 25.635 24.3021 25.5702C24.1981 25.5055 24.0823 25.4622 23.9613 25.4429C23.8404 25.4237 23.7168 25.4289 23.5979 25.4582C23.479 25.4875 23.3671 25.5404 23.269 25.6136C17.3583 29.8972 8.74165 25.4257 8.83332 18.1125C9.33657 5.95205 26.6652 5.9548 27.1667 18.1125V19.9459C27.1667 20.4321 26.9735 20.8984 26.6297 21.2422C26.2859 21.5861 25.8195 21.7792 25.3333 21.7792C24.8471 21.7792 24.3808 21.5861 24.037 21.2422C23.6931 20.8984 23.5 20.4321 23.5 19.9459V18.1125C23.269 10.8443 12.7301 10.8452 12.5 18.1125C12.5107 19.2272 12.8588 20.3125 13.4986 21.2253C14.1384 22.1382 15.0397 22.8357 16.0838 23.2261C17.128 23.6165 18.2659 23.6813 19.3476 23.412C20.4293 23.1428 21.404 22.5521 22.1433 21.7178C22.541 22.4196 23.159 22.9707 23.9016 23.2857C24.6442 23.6008 25.4699 23.6621 26.2509 23.4603C27.0319 23.2585 27.7245 22.8047 28.2215 22.1694C28.7185 21.534 28.9921 20.7525 29 19.9459V18.1125C28.9968 15.1961 27.8369 12.4001 25.7747 10.3379C23.7125 8.27564 20.9164 7.1157 18 7.11255ZM18 21.7792C17.0275 21.7792 16.0949 21.3929 15.4073 20.7053C14.7196 20.0176 14.3333 19.085 14.3333 18.1125C14.3333 17.1401 14.7196 16.2075 15.4073 15.5198C16.0949 14.8322 17.0275 14.4459 18 14.4459C18.9724 14.4459 19.9051 14.8322 20.5927 15.5198C21.2803 16.2075 21.6666 17.1401 21.6666 18.1125C21.6666 19.085 21.2803 20.0176 20.5927 20.7053C19.9051 21.3929 18.9724 21.7792 18 21.7792Z" fill="white"/>
</g>
<defs>
<clipPath id="clip0_1_1285">
<rect width="22" height="22" fill="white" transform="translate(7 7.11255)"/>
</clipPath>
</defs>
</svg>
