<svg width="20" height="14" viewBox="0 0 20 14" fill="none" xmlns="http://www.w3.org/2000/svg">
<path d="M19.5865 13.1259H1.29827C1.11792 13.1259 0.97168 12.9771 0.97168 12.7936V0.830612C0.97168 0.647098 1.11792 0.498291 1.29827 0.498291H19.5866C19.7669 0.498291 19.9132 0.647098 19.9132 0.830612V12.7936C19.9131 12.9772 19.7669 13.1259 19.5865 13.1259Z" fill="#F5F5F5"/>
<path d="M19.9131 1.46969H0.97168V0.830612C0.97168 0.647098 1.11792 0.498291 1.29827 0.498291H19.5866C19.7669 0.498291 19.9132 0.647098 19.9132 0.830612L19.9131 1.46969Z" fill="#FF4B55"/>
<path d="M19.9131 4.38379H0.97168V5.35516H19.9131V4.38379Z" fill="#FF4B55"/>
<path d="M19.9131 2.44092H0.97168V3.41228H19.9131V2.44092Z" fill="#FF4B55"/>
<path d="M19.9131 7.29782H1.29827C1.11792 7.29782 0.97168 7.14901 0.97168 6.9655V6.32642H19.9131V7.29782Z" fill="#FF4B55"/>
<path d="M19.9131 10.2122H0.97168V11.1835H19.9131V10.2122Z" fill="#FF4B55"/>
<path d="M19.5865 13.1259H1.29827C1.11792 13.1259 0.97168 12.9771 0.97168 12.7936V12.1545H19.9131V12.7936C19.9131 12.9771 19.7669 13.1259 19.5865 13.1259Z" fill="#FF4B55"/>
<path d="M19.9131 8.26929H0.97168V9.24065H19.9131V8.26929Z" fill="#FF4B55"/>
<path d="M9.46266 0.498291H1.29827C1.11792 0.498291 0.97168 0.64706 0.97168 0.830575V6.96542C0.97168 7.14893 1.11792 7.29774 1.29827 7.29774H9.4627C9.64305 7.29774 9.78929 7.14893 9.78929 6.96542V0.830575C9.78925 0.64706 9.64301 0.498291 9.46266 0.498291Z" fill="#41479B"/>
<path d="M1.88882 1.26117L1.9611 1.48176L2.18962 1.48353C2.21922 1.4838 2.23146 1.52219 2.20768 1.54007L2.02385 1.67823L2.09281 1.89991C2.10176 1.9286 2.06961 1.95239 2.04553 1.93485L1.85963 1.79967L1.67373 1.93489C1.64964 1.95239 1.61757 1.92864 1.62645 1.89995L1.69541 1.67827L1.51158 1.54011C1.48779 1.52219 1.50004 1.48383 1.52963 1.48357L1.75815 1.4818L1.83044 1.26121C1.83976 1.2326 1.87942 1.2326 1.88882 1.26117Z" fill="#F5F5F5"/>
<path d="M1.88882 2.41495L1.9611 2.63554L2.18962 2.63731C2.21922 2.63758 2.23146 2.67597 2.20768 2.69386L2.02385 2.83201L2.09281 3.05369C2.10176 3.08238 2.06961 3.10617 2.04553 3.08863L1.85963 2.95345L1.67373 3.08867C1.64964 3.10617 1.61757 3.08242 1.62645 3.05373L1.69541 2.83205L1.51158 2.69389C1.48779 2.67597 1.50004 2.63762 1.52963 2.63735L1.75815 2.63558L1.83044 2.41499C1.83976 2.38642 1.87942 2.38642 1.88882 2.41495Z" fill="#F5F5F5"/>
<path d="M1.88882 3.56876L1.9611 3.78935L2.18962 3.79112C2.21922 3.79139 2.23146 3.82978 2.20768 3.84766L2.02385 3.98582L2.09281 4.2075C2.10176 4.23619 2.06961 4.25998 2.04553 4.24244L1.85963 4.10726L1.67373 4.24247C1.64964 4.25998 1.61757 4.23623 1.62645 4.20754L1.69541 3.98586L1.51158 3.8477C1.48779 3.82978 1.50004 3.79142 1.52963 3.79116L1.75815 3.78939L1.83044 3.5688C1.83976 3.54023 1.87942 3.54022 1.88882 3.56876Z" fill="#F5F5F5"/>
<path d="M1.88882 4.72284L1.9611 4.94343L2.18962 4.9452C2.21922 4.94547 2.23146 4.98386 2.20768 5.00174L2.02385 5.1399L2.09281 5.36158C2.10176 5.39027 2.06961 5.41406 2.04553 5.39652L1.85963 5.26134L1.67373 5.39655C1.64964 5.41406 1.61757 5.39031 1.62645 5.36162L1.69541 5.13994L1.51158 5.00178C1.48779 4.98386 1.50004 4.9455 1.52963 4.94524L1.75815 4.94347L1.83044 4.72288C1.83976 4.69427 1.87942 4.69427 1.88882 4.72284Z" fill="#F5F5F5"/>
<path d="M1.88882 5.87668L1.9611 6.09727L2.18962 6.09904C2.21922 6.0993 2.23146 6.1377 2.20768 6.15558L2.02385 6.29373L2.09281 6.51542C2.10176 6.54411 2.06961 6.5679 2.04553 6.55035L1.85963 6.41517L1.67373 6.55039C1.64964 6.5679 1.61757 6.54414 1.62645 6.51546L1.69541 6.29377L1.51158 6.15562C1.48779 6.1377 1.50004 6.09934 1.52963 6.09908L1.75815 6.09731L1.83044 5.87671C1.83976 5.84807 1.87942 5.84807 1.88882 5.87668Z" fill="#F5F5F5"/>
<path d="M2.76894 1.82658L2.84123 2.04717L3.06975 2.04894C3.09935 2.0492 3.11159 2.0876 3.0878 2.10548L2.90397 2.24363L2.97293 2.46532C2.98189 2.494 2.94974 2.5178 2.92565 2.50025L2.73975 2.36504L2.55385 2.50025C2.52977 2.51776 2.4977 2.494 2.50657 2.46532L2.57553 2.24363L2.3917 2.10548C2.36792 2.08756 2.38016 2.0492 2.40976 2.04894L2.63828 2.04717L2.71056 1.82658C2.71985 1.79804 2.75958 1.79804 2.76894 1.82658Z" fill="#F5F5F5"/>
<path d="M2.76894 2.98066L2.84123 3.20125L3.06975 3.20302C3.09935 3.20328 3.11159 3.24168 3.0878 3.25956L2.90397 3.39772L2.97293 3.6194C2.98189 3.64809 2.94974 3.67188 2.92565 3.65433L2.73975 3.51912L2.55385 3.65433C2.52977 3.67184 2.4977 3.64812 2.50657 3.6194L2.57553 3.39772L2.3917 3.25956C2.36792 3.24164 2.38016 3.20328 2.40976 3.20302L2.63828 3.20125L2.71056 2.98066C2.71985 2.95209 2.75958 2.95209 2.76894 2.98066Z" fill="#F5F5F5"/>
<path d="M2.76894 4.13471L2.84123 4.3553L3.06975 4.35707C3.09935 4.35734 3.11159 4.39573 3.0878 4.41361L2.90397 4.55177L2.97293 4.77345C2.98189 4.80214 2.94974 4.82593 2.92565 4.80839L2.73975 4.67317L2.55385 4.80839C2.52977 4.82589 2.4977 4.80214 2.50657 4.77345L2.57553 4.55177L2.3917 4.41361C2.36792 4.3957 2.38016 4.35734 2.40976 4.35707L2.63828 4.3553L2.71056 4.13471C2.71985 4.10614 2.75958 4.10614 2.76894 4.13471Z" fill="#F5F5F5"/>
<path d="M2.76894 5.28849L2.84123 5.50908L3.06975 5.51085C3.09935 5.51112 3.11159 5.54951 3.0878 5.56739L2.90397 5.70555L2.97293 5.92723C2.98189 5.95592 2.94974 5.97971 2.92565 5.96217L2.73975 5.82695L2.55385 5.96217C2.52977 5.97967 2.4977 5.95592 2.50657 5.92723L2.57553 5.70555L2.3917 5.56739C2.36792 5.54948 2.38016 5.51112 2.40976 5.51085L2.63828 5.50908L2.71056 5.28849C2.71985 5.25996 2.75958 5.25996 2.76894 5.28849Z" fill="#F5F5F5"/>
<path d="M3.64931 1.26093L3.7216 1.48152L3.95012 1.48329C3.97972 1.48356 3.99196 1.52195 3.96817 1.53984L3.78435 1.67799L3.8533 1.89967C3.86226 1.92836 3.83011 1.95215 3.80602 1.93461L3.62012 1.79939L3.43423 1.93461C3.41014 1.95211 3.37807 1.92836 3.38695 1.89967L3.4559 1.67799L3.27208 1.53984C3.24829 1.52192 3.26053 1.48356 3.29013 1.48329L3.51865 1.48152L3.59094 1.26093C3.60026 1.23236 3.63995 1.23236 3.64931 1.26093Z" fill="#F5F5F5"/>
<path d="M3.64931 2.41496L3.7216 2.63555L3.95012 2.63732C3.97972 2.63758 3.99196 2.67598 3.96817 2.69386L3.78435 2.83201L3.8533 3.0537C3.86226 3.08238 3.83011 3.10617 3.80602 3.08863L3.62012 2.95342L3.43423 3.08863C3.41014 3.10614 3.37807 3.08238 3.38695 3.0537L3.4559 2.83201L3.27208 2.69386C3.24829 2.67594 3.26053 2.63758 3.29013 2.63732L3.51865 2.63555L3.59094 2.41496C3.60026 2.38642 3.63995 2.38642 3.64931 2.41496Z" fill="#F5F5F5"/>
<path d="M3.64931 3.56876L3.7216 3.78936L3.95012 3.79113C3.97972 3.79139 3.99196 3.82979 3.96817 3.84767L3.78435 3.98582L3.8533 4.20751C3.86226 4.23619 3.83011 4.25998 3.80602 4.24244L3.62012 4.10722L3.43423 4.24244C3.41014 4.25995 3.37807 4.23619 3.38695 4.20751L3.4559 3.98582L3.27208 3.84767C3.24829 3.82975 3.26053 3.79139 3.29013 3.79113L3.51865 3.78936L3.59094 3.56876C3.60026 3.54023 3.63995 3.54023 3.64931 3.56876Z" fill="#F5F5F5"/>
<path d="M3.64931 4.72284L3.7216 4.94344L3.95012 4.94521C3.97972 4.94547 3.99196 4.98387 3.96817 5.00175L3.78435 5.1399L3.8533 5.36159C3.86226 5.39027 3.83011 5.41406 3.80602 5.39652L3.62012 5.2613L3.43423 5.39652C3.41014 5.41403 3.37807 5.39027 3.38695 5.36159L3.4559 5.1399L3.27208 5.00175C3.24829 4.98383 3.26053 4.94547 3.29013 4.94521L3.51865 4.94344L3.59094 4.72284C3.60026 4.69427 3.63995 4.69427 3.64931 4.72284Z" fill="#F5F5F5"/>
<path d="M3.64931 5.87668L3.7216 6.09728L3.95012 6.09904C3.97972 6.09931 3.99196 6.13771 3.96817 6.15559L3.78435 6.29374L3.8533 6.51543C3.86226 6.54411 3.83011 6.5679 3.80602 6.55036L3.62012 6.41514L3.43423 6.55036C3.41014 6.56786 3.37807 6.54411 3.38695 6.51543L3.4559 6.29374L3.27208 6.15559C3.24829 6.13767 3.26053 6.09931 3.29013 6.09904L3.51865 6.09728L3.59094 5.87668C3.60026 5.84807 3.63995 5.84807 3.64931 5.87668Z" fill="#F5F5F5"/>
<path d="M4.52944 1.82658L4.60173 2.04717L4.83025 2.04894C4.85984 2.0492 4.87209 2.0876 4.8483 2.10548L4.66447 2.24363L4.73343 2.46532C4.74238 2.494 4.71024 2.5178 4.68615 2.50025L4.50025 2.36504L4.31435 2.50025C4.29027 2.51776 4.25819 2.494 4.26707 2.46532L4.33603 2.24363L4.1522 2.10548C4.12842 2.08756 4.14066 2.0492 4.17026 2.04894L4.39877 2.04717L4.47106 1.82658C4.48035 1.79804 4.52008 1.79804 4.52944 1.82658Z" fill="#F5F5F5"/>
<path d="M4.52944 2.98066L4.60173 3.20125L4.83025 3.20302C4.85984 3.20328 4.87209 3.24168 4.8483 3.25956L4.66447 3.39772L4.73343 3.6194C4.74238 3.64809 4.71024 3.67188 4.68615 3.65433L4.50025 3.51912L4.31435 3.65433C4.29027 3.67184 4.25819 3.64812 4.26707 3.6194L4.33603 3.39772L4.1522 3.25956C4.12842 3.24164 4.14066 3.20328 4.17026 3.20302L4.39877 3.20125L4.47106 2.98066C4.48035 2.95209 4.52008 2.95209 4.52944 2.98066Z" fill="#F5F5F5"/>
<path d="M4.52944 4.13471L4.60173 4.3553L4.83025 4.35707C4.85984 4.35734 4.87209 4.39573 4.8483 4.41361L4.66447 4.55177L4.73343 4.77345C4.74238 4.80214 4.71024 4.82593 4.68615 4.80839L4.50025 4.67317L4.31435 4.80839C4.29027 4.82589 4.25819 4.80214 4.26707 4.77345L4.33603 4.55177L4.1522 4.41361C4.12842 4.3957 4.14066 4.35734 4.17026 4.35707L4.39877 4.3553L4.47106 4.13471C4.48035 4.10614 4.52008 4.10614 4.52944 4.13471Z" fill="#F5F5F5"/>
<path d="M4.52944 5.28849L4.60173 5.50908L4.83025 5.51085C4.85984 5.51112 4.87209 5.54951 4.8483 5.56739L4.66447 5.70555L4.73343 5.92723C4.74238 5.95592 4.71024 5.97971 4.68615 5.96217L4.50025 5.82695L4.31435 5.96217C4.29027 5.97967 4.25819 5.95592 4.26707 5.92723L4.33603 5.70555L4.1522 5.56739C4.12842 5.54948 4.14066 5.51112 4.17026 5.51085L4.39877 5.50908L4.47106 5.28849C4.48035 5.25996 4.52008 5.25996 4.52944 5.28849Z" fill="#F5F5F5"/>
<path d="M5.40985 1.26093L5.48214 1.48152L5.71066 1.48329C5.74025 1.48356 5.7525 1.52195 5.72871 1.53984L5.54488 1.67799L5.61384 1.89967C5.62279 1.92836 5.59064 1.95215 5.56656 1.93461L5.38062 1.79939L5.19472 1.93461C5.17064 1.95211 5.13856 1.92836 5.14744 1.89967L5.2164 1.67799L5.03257 1.53984C5.00879 1.52192 5.02103 1.48356 5.05063 1.48329L5.27915 1.48152L5.35143 1.26093C5.36079 1.23236 5.40049 1.23236 5.40985 1.26093Z" fill="#F5F5F5"/>
<path d="M5.40985 2.41496L5.48214 2.63555L5.71066 2.63732C5.74025 2.63758 5.7525 2.67598 5.72871 2.69386L5.54488 2.83201L5.61384 3.0537C5.62279 3.08238 5.59064 3.10617 5.56656 3.08863L5.38062 2.95342L5.19472 3.08863C5.17064 3.10614 5.13856 3.08238 5.14744 3.0537L5.2164 2.83201L5.03257 2.69386C5.00879 2.67594 5.02103 2.63758 5.05063 2.63732L5.27915 2.63555L5.35143 2.41496C5.36079 2.38642 5.40049 2.38642 5.40985 2.41496Z" fill="#F5F5F5"/>
<path d="M5.40985 3.56876L5.48214 3.78936L5.71066 3.79113C5.74025 3.79139 5.7525 3.82979 5.72871 3.84767L5.54488 3.98582L5.61384 4.20751C5.62279 4.23619 5.59064 4.25998 5.56656 4.24244L5.38062 4.10722L5.19472 4.24244C5.17064 4.25995 5.13856 4.23619 5.14744 4.20751L5.2164 3.98582L5.03257 3.84767C5.00879 3.82975 5.02103 3.79139 5.05063 3.79113L5.27915 3.78936L5.35143 3.56876C5.36079 3.54023 5.40049 3.54023 5.40985 3.56876Z" fill="#F5F5F5"/>
<path d="M5.40985 4.72284L5.48214 4.94344L5.71066 4.94521C5.74025 4.94547 5.7525 4.98387 5.72871 5.00175L5.54488 5.1399L5.61384 5.36159C5.62279 5.39027 5.59064 5.41406 5.56656 5.39652L5.38062 5.2613L5.19472 5.39652C5.17064 5.41403 5.13856 5.39027 5.14744 5.36159L5.2164 5.1399L5.03257 5.00175C5.00879 4.98383 5.02103 4.94547 5.05063 4.94521L5.27915 4.94344L5.35143 4.72284C5.36079 4.69427 5.40049 4.69427 5.40985 4.72284Z" fill="#F5F5F5"/>
<path d="M5.40985 5.87668L5.48214 6.09728L5.71066 6.09904C5.74025 6.09931 5.7525 6.13771 5.72871 6.15559L5.54488 6.29374L5.61384 6.51543C5.62279 6.54411 5.59064 6.5679 5.56656 6.55036L5.38062 6.41514L5.19472 6.55036C5.17064 6.56786 5.13856 6.54411 5.14744 6.51543L5.2164 6.29374L5.03257 6.15559C5.00879 6.13767 5.02103 6.09931 5.05063 6.09904L5.27915 6.09728L5.35143 5.87668C5.36079 5.84807 5.40049 5.84807 5.40985 5.87668Z" fill="#F5F5F5"/>
<path d="M6.28994 1.82658L6.36223 2.04717L6.59075 2.04894C6.62034 2.0492 6.63259 2.0876 6.6088 2.10548L6.42497 2.24363L6.49393 2.46532C6.50288 2.494 6.47073 2.5178 6.44665 2.50025L6.26075 2.36504L6.07485 2.50025C6.05077 2.51776 6.01869 2.494 6.02757 2.46532L6.09653 2.24363L5.9127 2.10548C5.88891 2.08756 5.90116 2.0492 5.93075 2.04894L6.15927 2.04717L6.23156 1.82658C6.24092 1.79804 6.28058 1.79804 6.28994 1.82658Z" fill="#F5F5F5"/>
<path d="M6.28994 2.98066L6.36223 3.20125L6.59075 3.20302C6.62034 3.20328 6.63259 3.24168 6.6088 3.25956L6.42497 3.39772L6.49393 3.6194C6.50288 3.64809 6.47073 3.67188 6.44665 3.65433L6.26075 3.51912L6.07485 3.65433C6.05077 3.67184 6.01869 3.64812 6.02757 3.6194L6.09653 3.39772L5.9127 3.25956C5.88891 3.24164 5.90116 3.20328 5.93075 3.20302L6.15927 3.20125L6.23156 2.98066C6.24092 2.95209 6.28058 2.95209 6.28994 2.98066Z" fill="#F5F5F5"/>
<path d="M6.28994 4.13471L6.36223 4.3553L6.59075 4.35707C6.62034 4.35734 6.63259 4.39573 6.6088 4.41361L6.42497 4.55177L6.49393 4.77345C6.50288 4.80214 6.47073 4.82593 6.44665 4.80839L6.26075 4.67317L6.07485 4.80839C6.05077 4.82589 6.01869 4.80214 6.02757 4.77345L6.09653 4.55177L5.9127 4.41361C5.88891 4.3957 5.90116 4.35734 5.93075 4.35707L6.15927 4.3553L6.23156 4.13471C6.24092 4.10614 6.28058 4.10614 6.28994 4.13471Z" fill="#F5F5F5"/>
<path d="M6.28994 5.28849L6.36223 5.50908L6.59075 5.51085C6.62034 5.51112 6.63259 5.54951 6.6088 5.56739L6.42497 5.70555L6.49393 5.92723C6.50288 5.95592 6.47073 5.97971 6.44665 5.96217L6.26075 5.82695L6.07485 5.96217C6.05077 5.97967 6.01869 5.95592 6.02757 5.92723L6.09653 5.70555L5.9127 5.56739C5.88891 5.54948 5.90116 5.51112 5.93075 5.51085L6.15927 5.50908L6.23156 5.28849C6.24092 5.25996 6.28058 5.25996 6.28994 5.28849Z" fill="#F5F5F5"/>
<path d="M7.17031 1.26093L7.2426 1.48152L7.47112 1.48329C7.50071 1.48356 7.51296 1.52195 7.48917 1.53984L7.30534 1.67799L7.3743 1.89967C7.38325 1.92836 7.3511 1.95215 7.32702 1.93461L7.14112 1.79939L6.95522 1.93461C6.93114 1.95211 6.89906 1.92836 6.90794 1.89967L6.9769 1.67799L6.79307 1.53984C6.76928 1.52192 6.78153 1.48356 6.81113 1.48329L7.03964 1.48152L7.11193 1.26093C7.12122 1.23236 7.16095 1.23236 7.17031 1.26093Z" fill="#F5F5F5"/>
<path d="M7.17031 2.41496L7.2426 2.63555L7.47112 2.63732C7.50071 2.63758 7.51296 2.67598 7.48917 2.69386L7.30534 2.83201L7.3743 3.0537C7.38325 3.08238 7.3511 3.10617 7.32702 3.08863L7.14112 2.95342L6.95522 3.08863C6.93114 3.10614 6.89906 3.08238 6.90794 3.0537L6.9769 2.83201L6.79307 2.69386C6.76928 2.67594 6.78153 2.63758 6.81113 2.63732L7.03964 2.63555L7.11193 2.41496C7.12122 2.38642 7.16095 2.38642 7.17031 2.41496Z" fill="#F5F5F5"/>
<path d="M7.17031 3.56876L7.2426 3.78936L7.47112 3.79113C7.50071 3.79139 7.51296 3.82979 7.48917 3.84767L7.30534 3.98582L7.3743 4.20751C7.38325 4.23619 7.3511 4.25998 7.32702 4.24244L7.14112 4.10722L6.95522 4.24244C6.93114 4.25995 6.89906 4.23619 6.90794 4.20751L6.9769 3.98582L6.79307 3.84767C6.76928 3.82975 6.78153 3.79139 6.81113 3.79113L7.03964 3.78936L7.11193 3.56876C7.12122 3.54023 7.16095 3.54023 7.17031 3.56876Z" fill="#F5F5F5"/>
<path d="M7.17031 4.72284L7.2426 4.94344L7.47112 4.94521C7.50071 4.94547 7.51296 4.98387 7.48917 5.00175L7.30534 5.1399L7.3743 5.36159C7.38325 5.39027 7.3511 5.41406 7.32702 5.39652L7.14112 5.2613L6.95522 5.39652C6.93114 5.41403 6.89906 5.39027 6.90794 5.36159L6.9769 5.1399L6.79307 5.00175C6.76928 4.98383 6.78153 4.94547 6.81113 4.94521L7.03964 4.94344L7.11193 4.72284C7.12122 4.69427 7.16095 4.69427 7.17031 4.72284Z" fill="#F5F5F5"/>
<path d="M7.17031 5.87668L7.2426 6.09728L7.47112 6.09904C7.50071 6.09931 7.51296 6.13771 7.48917 6.15559L7.30534 6.29374L7.3743 6.51543C7.38325 6.54411 7.3511 6.5679 7.32702 6.55036L7.14112 6.41514L6.95522 6.55036C6.93114 6.56786 6.89906 6.54411 6.90794 6.51543L6.9769 6.29374L6.79307 6.15559C6.76928 6.13767 6.78153 6.09931 6.81113 6.09904L7.03964 6.09728L7.11193 5.87668C7.12122 5.84807 7.16095 5.84807 7.17031 5.87668Z" fill="#F5F5F5"/>
<path d="M8.05044 1.82658L8.12273 2.04717L8.35124 2.04894C8.38084 2.0492 8.39308 2.0876 8.3693 2.10548L8.18547 2.24363L8.25443 2.46532C8.26338 2.494 8.23123 2.5178 8.20715 2.50025L8.02125 2.36504L7.83535 2.50025C7.81126 2.51776 7.77919 2.494 7.78807 2.46532L7.85703 2.24363L7.6732 2.10548C7.64941 2.08756 7.66166 2.0492 7.69125 2.04894L7.91977 2.04717L7.99206 1.82658C8.00138 1.79804 8.04111 1.79804 8.05044 1.82658Z" fill="#F5F5F5"/>
<path d="M8.05044 2.98066L8.12273 3.20125L8.35124 3.20302C8.38084 3.20328 8.39308 3.24168 8.3693 3.25956L8.18547 3.39772L8.25443 3.6194C8.26338 3.64809 8.23123 3.67188 8.20715 3.65433L8.02125 3.51912L7.83535 3.65433C7.81126 3.67184 7.77919 3.64812 7.78807 3.6194L7.85703 3.39772L7.6732 3.25956C7.64941 3.24164 7.66166 3.20328 7.69125 3.20302L7.91977 3.20125L7.99206 2.98066C8.00138 2.95209 8.04111 2.95209 8.05044 2.98066Z" fill="#F5F5F5"/>
<path d="M8.05044 4.13471L8.12273 4.3553L8.35124 4.35707C8.38084 4.35734 8.39308 4.39573 8.3693 4.41361L8.18547 4.55177L8.25443 4.77345C8.26338 4.80214 8.23123 4.82593 8.20715 4.80839L8.02125 4.67317L7.83535 4.80839C7.81126 4.82589 7.77919 4.80214 7.78807 4.77345L7.85703 4.55177L7.6732 4.41361C7.64941 4.3957 7.66166 4.35734 7.69125 4.35707L7.91977 4.3553L7.99206 4.13471C8.00138 4.10614 8.04111 4.10614 8.05044 4.13471Z" fill="#F5F5F5"/>
<path d="M8.05044 5.28849L8.12273 5.50908L8.35124 5.51085C8.38084 5.51112 8.39308 5.54951 8.3693 5.56739L8.18547 5.70555L8.25443 5.92723C8.26338 5.95592 8.23123 5.97971 8.20715 5.96217L8.02125 5.82695L7.83535 5.96217C7.81126 5.97967 7.77919 5.95592 7.78807 5.92723L7.85703 5.70555L7.6732 5.56739C7.64941 5.54948 7.66166 5.51112 7.69125 5.51085L7.91977 5.50908L7.99206 5.28849C8.00138 5.25996 8.04111 5.25996 8.05044 5.28849Z" fill="#F5F5F5"/>
<path d="M8.93081 1.26093L9.0031 1.48152L9.23161 1.48329C9.26121 1.48356 9.27346 1.52195 9.24967 1.53984L9.06584 1.67799L9.1348 1.89967C9.14375 1.92836 9.1116 1.95215 9.08752 1.93461L8.90162 1.79939L8.71572 1.93461C8.69164 1.95211 8.65956 1.92836 8.66844 1.89967L8.7374 1.67799L8.55357 1.53984C8.52978 1.52192 8.54203 1.48356 8.57162 1.48329L8.80014 1.48152L8.87243 1.26093C8.88175 1.23236 8.92141 1.23236 8.93081 1.26093Z" fill="#F5F5F5"/>
<path d="M8.93081 2.41496L9.0031 2.63555L9.23161 2.63732C9.26121 2.63758 9.27346 2.67598 9.24967 2.69386L9.06584 2.83201L9.1348 3.0537C9.14375 3.08238 9.1116 3.10617 9.08752 3.08863L8.90162 2.95342L8.71572 3.08863C8.69164 3.10614 8.65956 3.08238 8.66844 3.0537L8.7374 2.83201L8.55357 2.69386C8.52978 2.67594 8.54203 2.63758 8.57162 2.63732L8.80014 2.63555L8.87243 2.41496C8.88175 2.38642 8.92141 2.38642 8.93081 2.41496Z" fill="#F5F5F5"/>
<path d="M8.93081 3.56876L9.0031 3.78936L9.23161 3.79113C9.26121 3.79139 9.27346 3.82979 9.24967 3.84767L9.06584 3.98582L9.1348 4.20751C9.14375 4.23619 9.1116 4.25998 9.08752 4.24244L8.90162 4.10722L8.71572 4.24244C8.69164 4.25995 8.65956 4.23619 8.66844 4.20751L8.7374 3.98582L8.55357 3.84767C8.52978 3.82975 8.54203 3.79139 8.57162 3.79113L8.80014 3.78936L8.87243 3.56876C8.88175 3.54023 8.92141 3.54023 8.93081 3.56876Z" fill="#F5F5F5"/>
<path d="M8.93081 4.72284L9.0031 4.94344L9.23161 4.94521C9.26121 4.94547 9.27346 4.98387 9.24967 5.00175L9.06584 5.1399L9.1348 5.36159C9.14375 5.39027 9.1116 5.41406 9.08752 5.39652L8.90162 5.2613L8.71572 5.39652C8.69164 5.41403 8.65956 5.39027 8.66844 5.36159L8.7374 5.1399L8.55357 5.00175C8.52978 4.98383 8.54203 4.94547 8.57162 4.94521L8.80014 4.94344L8.87243 4.72284C8.88175 4.69427 8.92141 4.69427 8.93081 4.72284Z" fill="#F5F5F5"/>
<path d="M8.93081 5.87668L9.0031 6.09728L9.23161 6.09904C9.26121 6.09931 9.27346 6.13771 9.24967 6.15559L9.06584 6.29374L9.1348 6.51543C9.14375 6.54411 9.1116 6.5679 9.08752 6.55036L8.90162 6.41514L8.71572 6.55036C8.69164 6.56786 8.65956 6.54411 8.66844 6.51543L8.7374 6.29374L8.55357 6.15559C8.52978 6.13767 8.54203 6.09931 8.57162 6.09904L8.80014 6.09728L8.87243 5.87668C8.88175 5.84807 8.92141 5.84807 8.93081 5.87668Z" fill="#F5F5F5"/>
</svg>
