<svg width="20" height="15" viewBox="0 0 20 15" fill="none" xmlns="http://www.w3.org/2000/svg">
<path d="M0.440918 0.627441H19.3824V14.9968H0.440918V0.627441Z" fill="#128807"/>
<path d="M13.4232 4.52857C13.5926 4.73733 13.7659 4.95936 13.9399 5.1912C13.9766 5.66379 13.9864 6.0972 14.0235 6.57045C14.0183 6.7729 13.9562 7.04196 13.8971 7.06743C13.8971 7.06743 13.8072 7.11924 13.7471 7.06177C13.7034 7.04413 13.5286 6.76942 13.5286 6.76942C13.4391 6.68713 13.3796 6.71064 13.3159 6.76942C13.1404 6.93921 13.0609 7.25747 12.9417 7.47667C12.9108 7.52565 12.8242 7.56723 12.728 7.47276C12.5275 7.19825 12.5872 6.82928 12.5987 6.77203C12.5981 6.77508 12.5974 6.77812 12.5959 6.78356C12.3781 7.02955 12.4745 7.43749 12.5238 7.52522C12.5957 7.66933 12.6537 7.76141 12.7936 7.83281C12.9208 7.92663 13.0201 7.86807 13.0746 7.80233C13.2028 7.66933 13.2045 7.32887 13.2647 7.2616C13.3068 7.13796 13.4126 7.15929 13.464 7.21393C13.514 7.28598 13.5731 7.33278 13.6465 7.37197C13.7659 7.47755 13.9086 7.4967 14.0492 7.40048C14.1452 7.3465 14.2075 7.27619 14.2638 7.13774C14.3241 6.976 14.2944 6.12812 14.2809 5.65661C14.3713 5.78395 14.4603 5.91413 14.5487 6.04605C14.5876 6.46009 14.6052 6.86781 14.5924 7.25877C14.5833 7.33649 14.863 7.02672 14.8613 6.87978C14.86 6.75135 14.8615 6.63489 14.8613 6.5267C14.997 6.74395 15.1284 6.96468 15.2527 7.18824C15.3295 7.14732 15.3033 6.71064 15.2546 6.65034C15.1245 6.43157 14.9581 6.19538 14.8291 6.01252C14.8037 5.78178 14.769 5.50945 14.7531 5.42608C14.7286 5.29612 14.7038 5.10064 14.6667 4.9463C14.6565 4.886 14.6256 4.69357 14.6354 4.67507C14.6506 4.63197 14.7079 4.67637 14.7362 4.62652C14.7783 4.58037 14.5898 4.09036 14.494 3.95061C14.4597 3.88792 14.3973 3.90969 14.3202 4.01156C14.2488 4.07861 14.2748 4.23164 14.3022 4.37706C14.373 4.74799 14.4364 5.12568 14.4864 5.50227C14.3936 5.36404 14.2805 5.19708 14.1691 5.03577C14.166 5.02032 14.1547 4.96328 14.1547 4.96241C14.1547 4.95566 14.1393 4.65896 14.1263 4.58821C14.1239 4.55948 14.1172 4.5512 14.1471 4.5549C14.1788 4.58168 14.1834 4.5832 14.2032 4.59213C14.2353 4.59801 14.2633 4.54358 14.244 4.49308C14.1445 4.30936 14.0453 4.12476 13.9458 3.94103C13.9338 3.92928 13.9204 3.91687 13.905 3.91448C13.8895 3.91208 13.8726 3.9197 13.8537 3.94778C13.8174 3.97956 13.7783 4.03747 13.7796 4.11148C13.7885 4.24209 13.8116 4.37597 13.8205 4.50658C13.8235 4.52399 13.827 4.54141 13.83 4.55904C13.8159 4.54119 13.8037 4.52726 13.7968 4.52008C13.5427 4.25254 13.9134 4.47632 13.7484 4.26974C13.6087 4.11605 13.5679 4.06707 13.4482 3.97456C13.3882 3.93581 13.352 3.86158 13.3322 3.98784C13.3244 4.09885 13.3161 4.22751 13.3237 4.32111C13.3231 4.37314 13.377 4.4711 13.4232 4.52857Z" fill="white"/>
<path d="M7.16478 6.494C7.16195 6.54233 7.29814 6.6011 7.30639 6.71299C7.32594 6.75914 7.27729 6.90673 7.31768 6.92045C7.35482 6.9359 7.40652 6.81835 7.42607 6.70907C7.43692 6.64921 7.37937 6.44002 7.28163 6.40257C7.26664 6.39931 7.25079 6.39757 7.23515 6.39887C7.18802 6.40192 7.14588 6.42739 7.16478 6.494Z" fill="white"/>
<path d="M13.8313 5.68468C13.8281 5.68403 13.8246 5.68425 13.8209 5.68555C13.8209 5.68555 13.2416 6.0985 13.2273 6.11287C13.1697 6.16403 13.1986 6.34405 13.2273 6.32315C13.2688 6.33904 13.8519 5.94307 13.8409 5.89671C13.8663 5.89845 13.8784 5.69317 13.8313 5.68468Z" fill="white"/>
<path d="M14.8966 4.74313C14.917 4.80582 14.8657 5.00805 14.9079 5.02677C14.9467 5.04767 15.0015 4.88702 15.0219 4.73834C15.0332 4.65693 14.973 4.37132 14.8709 4.32039C14.8631 4.31821 14.8547 4.3169 14.8462 4.31647C14.7878 4.31451 14.7241 4.35892 14.7493 4.44599C14.7345 4.49366 14.874 4.65497 14.8966 4.74313Z" fill="white"/>
<path d="M13.5053 5.68941C13.5075 5.57142 13.5188 5.41469 13.5253 5.31717C13.5281 5.28038 13.5366 5.23989 13.5718 5.23053C13.607 5.22139 13.668 5.26601 13.6687 5.2277C13.6621 5.1526 13.6474 5.04201 13.605 4.98977C13.5833 4.95755 13.5479 4.94014 13.511 4.93839C13.4497 4.93535 13.3844 4.97518 13.3676 5.05921C13.3678 5.10884 13.39 5.13605 13.3857 5.18111C13.3791 5.2068 13.3529 5.22378 13.2897 5.19352C13.2994 5.18438 13.2488 5.11254 13.2488 5.11254C13.1995 5.0825 13.1339 5.11407 13.0911 5.14215C13.0677 5.18503 13.0503 5.25839 13.0768 5.33349C13.1476 5.4641 13.3898 5.68723 13.5053 5.68941Z" fill="white"/>
<path d="M11.0415 6.45874L11.0424 6.45787C11.0424 6.45765 11.0432 6.457 11.0432 6.457C11.0434 6.45678 11.0441 6.45613 11.0441 6.45613C11.0441 6.45591 11.0441 6.45461 11.0441 6.45417C11.0443 6.45199 11.0441 6.44829 11.0432 6.44459L10.9881 6.41216L9.90251 6.40737C9.88905 6.40214 9.87906 6.39692 9.87298 6.39213C9.87254 6.39169 9.87145 6.39061 9.87102 6.39017C9.8708 6.38995 9.87037 6.3893 9.87015 6.3893C9.86993 6.3893 9.86928 6.38865 9.86928 6.38843C9.86907 6.38799 9.86841 6.38691 9.86841 6.38647L9.86755 6.3856V6.38473L9.86668 6.38386V6.38299V6.38212V6.38125C9.86668 6.38103 9.86668 6.38038 9.86668 6.38038C9.86668 6.38038 9.86668 6.37972 9.86668 6.3795V6.37863V6.37776V6.37689C9.86689 6.37667 9.86755 6.37602 9.86755 6.37602C9.86776 6.37559 9.8682 6.37472 9.86841 6.37406C9.87363 6.36688 9.88644 6.36013 9.90251 6.35403C10.1616 6.31855 10.6223 6.24302 10.6529 5.79916C10.6481 5.56797 10.5543 5.41646 10.2711 5.37467C10.063 5.39078 9.91468 5.59235 9.93857 5.81439C9.92858 5.87426 9.95877 5.99159 9.89774 6.00487C9.49875 6.04144 9.06327 6.29199 9.04871 6.47137H9.04785C9.04763 6.47159 9.04698 6.47224 9.04698 6.47224C9.04676 6.47246 9.04567 6.47289 9.04502 6.47311C9.04481 6.47311 9.0435 6.47311 9.04307 6.47311C9.04242 6.47333 9.0409 6.47398 9.04024 6.47398C9.04003 6.47398 9.03959 6.47398 9.03938 6.47398C9.03872 6.47398 9.03786 6.47398 9.03742 6.47398C9.0372 6.47398 9.03677 6.47398 9.03655 6.47398C9.03612 6.47398 9.03503 6.47398 9.0346 6.47398C9.03351 6.47376 9.03177 6.47333 9.0309 6.47311C9.00484 6.46593 8.97161 6.42304 8.97682 6.36274C8.96162 6.05276 8.86106 5.70185 8.70337 5.4317C8.64712 5.37532 8.62258 5.35247 8.6065 5.34985C8.60607 5.34985 8.6052 5.34985 8.60455 5.34985C8.6039 5.34985 8.60259 5.34985 8.60173 5.34985C8.60151 5.34985 8.60086 5.34985 8.60086 5.34985H8.59999C8.59977 5.34985 8.59912 5.34985 8.59912 5.34985C8.59738 5.35051 8.59586 5.35181 8.59434 5.35268C8.59369 5.35312 8.59217 5.35399 8.59152 5.35464C8.57935 5.36379 8.5648 5.38512 8.53266 5.40798C8.47836 5.47002 8.46858 5.51312 8.47184 5.63742C8.47488 5.65048 8.57501 5.92955 8.65993 6.12568C8.71706 6.32965 8.77005 6.56301 8.73117 6.78353C8.59716 7.07501 8.32806 7.33645 8.06829 7.47838C7.93602 7.52083 7.82156 7.50646 7.79093 7.47751C7.79071 7.47729 7.79028 7.47685 7.79006 7.47664C7.71404 7.42548 7.71231 7.33427 7.71687 7.3186V7.31773C7.71708 7.31751 7.71774 7.31686 7.71774 7.31686C7.93689 7.16382 8.18753 7.03996 8.38344 6.62679C8.44143 6.46897 8.45903 6.37406 8.40147 6.12982C8.3791 6.03883 8.3513 5.96394 8.2894 5.89951C8.28961 5.89929 8.29027 5.89864 8.29027 5.89864C8.32762 5.88079 8.42449 5.95219 8.43948 5.90713C8.41646 5.79045 8.33783 5.63393 8.24856 5.55404C8.17037 5.48286 8.08545 5.47459 8.01399 5.53968C7.93341 5.58452 7.91625 5.74582 7.95513 5.8871C7.99814 5.99333 8.11455 6.01205 8.19731 6.22604V6.22691C8.19904 6.2404 8.22576 6.38669 8.18406 6.4459C8.15017 6.55169 7.71535 6.89542 7.68451 6.9161C7.68407 6.91653 7.6819 6.91762 7.68168 6.91806C7.68146 6.91827 7.68081 6.91893 7.68081 6.91893C7.68081 6.91893 7.68016 6.91958 7.67994 6.9198L7.67908 6.92067H7.67821C7.67821 6.92067 7.67755 6.92067 7.67734 6.92067C7.67712 6.92045 7.67647 6.9198 7.67647 6.9198V6.91893C7.67625 6.91849 7.6756 6.9174 7.6756 6.91697C7.6743 6.90848 7.67669 6.88649 7.6756 6.85123C7.67278 6.78679 7.69927 6.64116 7.69754 6.61613V6.61526C7.69732 6.61504 7.69667 6.61439 7.69667 6.61439V6.61352C7.69645 6.61352 7.6958 6.61352 7.6958 6.61352C7.55202 6.70647 7.50445 6.99163 7.47839 7.0761C7.11436 7.32818 6.70104 7.5156 6.46299 7.77095C6.33897 7.96491 7.31723 7.54804 7.43082 7.49775C7.43169 7.49841 7.43277 7.49971 7.43364 7.50058C7.45515 7.52431 7.4571 7.60747 7.52204 7.68235C7.62369 7.82036 7.8398 7.90548 8.05005 7.8528C8.40277 7.72502 8.60585 7.48426 8.81284 7.21694C8.84238 7.17384 8.88864 7.13988 8.93165 7.17318C9.07369 7.49209 9.48354 7.71914 10.0135 7.74243C10.1362 7.5931 10.0776 7.51952 10.0278 7.48817C10.0124 7.47794 9.76438 7.38107 9.72572 7.28442C9.70139 7.19452 9.76047 7.11484 9.87862 7.05498C10.2188 7.01384 10.5532 6.96791 10.8769 6.86364C10.8801 6.75458 10.9442 6.59175 10.987 6.521C11.0152 6.4705 11.0343 6.46571 11.0415 6.45874ZM10.1462 5.77543C10.1469 5.77195 10.1484 5.7689 10.1501 5.76585C10.1508 5.76476 10.1512 5.76302 10.1521 5.76193C10.1523 5.76171 10.1529 5.76128 10.1529 5.76106C10.1542 5.75954 10.1562 5.75758 10.1577 5.75627C10.1647 5.75083 10.1744 5.74691 10.1853 5.74582C10.209 5.74321 10.24 5.75126 10.2698 5.76868C10.313 5.79371 10.3397 5.83159 10.3363 5.85902C10.336 5.85967 10.3365 5.8612 10.3363 5.86185C10.336 5.8625 10.3345 5.86403 10.3343 5.86468C10.3341 5.86533 10.3336 5.86686 10.3334 5.86751C10.3332 5.86794 10.3328 5.86903 10.3326 5.86947C10.3323 5.8699 10.3319 5.87099 10.3317 5.87143C10.3302 5.87382 10.328 5.87622 10.326 5.87818C10.3052 5.89755 10.2572 5.89494 10.212 5.8686C10.1692 5.84378 10.1427 5.80569 10.1456 5.77826C10.1453 5.7776 10.146 5.77608 10.1462 5.77543ZM9.71225 6.86516C9.59583 6.90521 9.48376 6.93634 9.48332 7.10505C9.49853 7.18864 9.49549 7.23239 9.48246 7.25264C9.48137 7.25416 9.47985 7.25612 9.47855 7.25743C9.47833 7.25765 9.47768 7.2583 9.47768 7.2583C9.47746 7.25852 9.47681 7.25917 9.47681 7.25917C9.47659 7.25939 9.47616 7.26004 9.47594 7.26004L9.47507 7.26091C9.47464 7.26113 9.47355 7.26178 9.47312 7.26178C9.47138 7.26287 9.46921 7.26396 9.46747 7.26461C9.46595 7.26527 9.46356 7.26526 9.46182 7.26548C9.43402 7.26962 9.39384 7.24306 9.36408 7.22739C9.29219 7.1758 9.09063 7.05063 9.06196 6.78179C9.05784 6.72105 9.10323 6.66881 9.17599 6.6638C9.17947 6.66358 9.18272 6.6638 9.18642 6.6638H9.18837C9.30935 6.69667 9.48767 6.70015 9.64231 6.71626C9.76807 6.72475 9.83019 6.82358 9.71225 6.86516Z" fill="white"/>
<path d="M9.35292 5.81219C9.47803 5.87184 9.7758 5.83679 9.70348 5.64371C9.70348 5.62586 9.6987 5.56577 9.69674 5.54945C9.68393 5.51963 9.66047 5.50831 9.63788 5.51222C9.61529 5.51614 9.59357 5.53486 9.58576 5.56556C9.58076 5.5858 9.59531 5.61911 9.57728 5.62934C9.56686 5.64001 9.52624 5.63369 9.52798 5.57796C9.52798 5.56011 9.51495 5.54074 9.50713 5.52942C9.49931 5.5242 9.49475 5.52267 9.48041 5.52267C9.46304 5.52333 9.46239 5.5279 9.45283 5.5427C9.4487 5.55772 9.44327 5.5723 9.44327 5.58928C9.4411 5.60909 9.43415 5.61584 9.4196 5.61889C9.40331 5.61889 9.40722 5.62063 9.39397 5.61214C9.38615 5.60365 9.37594 5.60017 9.37594 5.58558C9.37594 5.57035 9.3729 5.54618 9.36834 5.53617C9.36139 5.52703 9.34945 5.52311 9.33707 5.52006C9.26887 5.52028 9.26474 5.59799 9.26865 5.6276C9.26322 5.63304 9.25974 5.77345 9.35292 5.81219Z" fill="white"/>
<path d="M13.8628 11.0206C13.7881 11.0319 13.5787 11.053 13.5787 11.053C13.3366 11.024 13.1587 11.0212 12.8863 11.0112C12.9115 10.9792 12.9558 10.8497 12.9015 10.8027C12.8874 10.7909 12.8661 10.7844 12.837 10.7866C12.8368 10.7866 12.8364 10.7866 12.8362 10.7866C12.8357 10.7866 12.8346 10.7866 12.8342 10.7866C12.834 10.7866 12.8333 10.7857 12.8333 10.7857C12.8325 10.7855 12.8312 10.7852 12.8305 10.7848C12.829 10.7837 12.827 10.7818 12.8257 10.78C12.8255 10.7796 12.8242 10.7785 12.8238 10.7781C12.8101 10.758 12.8025 10.7086 12.7934 10.6962C12.7934 10.696 12.7925 10.6953 12.7925 10.6953L12.7916 10.6945C12.7912 10.6943 12.7901 10.6936 12.7897 10.6936C12.7895 10.6936 12.7888 10.6936 12.7888 10.6936C12.7886 10.6936 12.7879 10.6936 12.7879 10.6936C12.7877 10.6938 12.7873 10.6943 12.7871 10.6945C12.6068 10.7408 12.6124 10.9283 12.7282 11.0106C10.8258 11.0106 7.90623 10.9781 7.28005 10.9781C6.92971 10.9781 5.82158 10.9363 5.80029 10.9363C6.03791 11.2846 6.38216 11.3556 6.83284 11.3628C7.67796 11.3628 11.5931 11.3523 12.7074 11.3523C12.6281 11.4934 12.7145 11.7202 12.7766 11.7616C12.7779 11.7624 12.7801 11.7637 12.7814 11.7644C12.7838 11.7655 12.7868 11.7666 12.789 11.7672C12.7897 11.7674 12.7912 11.7672 12.7918 11.7672C12.8657 11.7846 12.8981 11.7311 12.9228 11.6921C13.0425 11.7028 13.716 11.7124 13.7777 11.6913C13.7779 11.6913 13.7783 11.6904 13.7786 11.6904C13.8203 11.7518 13.8615 11.8099 13.941 11.7999C14.0798 11.7701 14.1893 11.7548 14.1928 11.4725C14.1925 11.4718 14.1782 10.9903 13.8628 11.0206ZM13.7271 11.5365C13.7258 11.5371 13.7236 11.538 13.7223 11.5384C13.7212 11.5387 13.7195 11.5384 13.7186 11.5384C13.7175 11.5384 13.7158 11.5387 13.7149 11.5384C13.6246 11.5363 13.5724 11.5341 13.4821 11.5317C13.4819 11.5271 13.4814 11.5223 13.4801 11.5184C13.4586 11.4548 13.3038 11.4592 13.2673 11.5088C13.2668 11.5095 13.2658 11.511 13.2653 11.5117C13.2647 11.5128 13.264 11.5145 13.2634 11.5156C13.2627 11.5169 13.2619 11.5191 13.2614 11.5204C13.2608 11.5223 13.2608 11.5249 13.2606 11.5271C13.2603 11.5293 13.2595 11.5323 13.2597 11.5347C13.1378 11.5493 13.0282 11.5306 12.9063 11.5262C12.8705 11.4816 12.8748 11.4009 12.9167 11.3815C12.9169 11.3813 12.9174 11.3817 12.9176 11.3815C13.1952 11.395 13.456 11.3841 13.7334 11.3976C13.7777 11.435 13.7558 11.5208 13.7271 11.5365Z" fill="white"/>
<path d="M10.4683 7.67165C10.4683 7.67644 10.5172 7.71846 10.5748 7.68493C10.696 7.63857 10.7715 7.5935 10.9414 7.5565C10.9859 7.55563 10.9833 7.43612 10.9129 7.43176C10.8211 7.43634 10.7361 7.44112 10.6441 7.51361C10.5876 7.52667 10.5778 7.49228 10.5652 7.46115C10.5509 7.38431 10.5976 7.33032 10.588 7.27264C10.5906 7.27525 10.5596 7.24717 10.5196 7.24499C10.5063 7.24434 10.4922 7.2463 10.4779 7.25348C10.4751 7.25348 10.35 7.33816 10.3098 7.39715C10.2852 7.41587 10.2881 7.4322 10.2957 7.46464C10.3148 7.50883 10.3484 7.49489 10.3869 7.47421C10.4377 7.46725 10.4623 7.50055 10.4581 7.56172C10.4345 7.63857 10.4683 7.66686 10.4683 7.67165Z" fill="white"/>
<path d="M14.6628 7.64109C14.6391 7.61388 14.5857 7.63021 14.5499 7.62586C14.5327 7.62586 14.4767 7.61758 14.5034 7.56773C14.5257 7.53682 14.5338 7.51832 14.549 7.48022C14.5659 7.443 14.5512 7.41775 14.4901 7.3975C14.4591 7.39184 14.4376 7.3901 14.4152 7.39075C14.3926 7.39141 14.3689 7.39467 14.3344 7.3975C14.2973 7.40534 14.2842 7.42167 14.2775 7.46695C14.2801 7.53552 14.322 7.53203 14.3648 7.55924C14.3896 7.59081 14.4059 7.61954 14.3629 7.67157C14.3222 7.70879 14.2933 7.72947 14.2527 7.7667C14.2336 7.79957 14.2217 7.84985 14.2803 7.86574C14.3887 7.89622 14.6393 7.73296 14.6393 7.72969C14.6795 7.69921 14.6661 7.64109 14.6628 7.64109Z" fill="white"/>
<path d="M12.7262 7.31702C12.8133 7.31767 12.9141 7.1174 12.9571 6.91909C12.9808 6.64611 12.9414 6.4798 12.9343 6.31937C12.9273 6.15893 12.7529 4.85674 12.7177 4.73527C12.6752 4.50561 12.8871 4.70501 12.8639 4.57157C12.7907 4.4033 12.6078 4.15819 12.5505 4.0119C12.529 3.97272 12.5264 3.93659 12.5088 3.93963C12.4981 3.94137 12.4827 3.95748 12.4536 3.9958C12.3822 4.23002 12.357 4.42137 12.3843 4.567C12.5681 5.52743 12.7562 6.40252 12.7262 7.31702Z" fill="white"/>
<path d="M15.4409 4.77345C15.4326 4.71293 15.4059 4.57362 15.4161 4.55555C15.4326 4.51288 15.5165 4.5599 15.5462 4.5107C15.5899 4.46586 15.3297 4.13193 15.2385 3.98913C15.2202 3.95321 15.2091 3.92383 15.1928 3.92535C15.1802 3.92666 15.165 3.9469 15.1416 3.99675C15.0851 4.08927 15.0658 4.25493 15.0884 4.40143C15.2241 5.32158 15.3249 6.21235 15.3458 7.0278C15.334 7.10529 15.3308 7.14644 15.2945 7.24396C15.2143 7.34692 15.126 7.4758 15.0428 7.53805C14.9596 7.60031 14.7826 7.65952 14.7246 7.70567C14.5408 7.81212 14.54 7.93446 14.6885 7.93881C14.9444 7.90899 15.2474 7.88809 15.4559 7.57223C15.5117 7.48385 15.5775 7.24396 15.5803 7.09724C15.5999 6.23673 15.5695 5.39538 15.4409 4.77345Z" fill="white"/>
<path d="M13.7488 6.80421C13.7877 6.82511 13.8902 6.69885 13.8865 6.54059C13.8978 6.45918 13.8577 6.15921 13.7556 6.10849C13.7438 6.10522 13.7308 6.10413 13.7184 6.10566C13.665 6.11219 13.6144 6.16291 13.6376 6.24367C13.6229 6.29113 13.71 6.45722 13.7326 6.54538C13.753 6.60808 13.7065 6.78549 13.7488 6.80421Z" fill="white"/>
<path d="M5.68786 4.25666C5.81297 4.31631 6.04732 4.29106 6.03733 4.08904C6.03733 4.07119 6.03342 4.01111 6.03168 3.99479C6.01887 3.96518 5.99541 3.95386 5.97304 3.95778C5.95045 3.9617 5.92873 3.98042 5.92091 4.01111C5.91592 4.03136 5.9296 4.06466 5.91136 4.0749C5.90093 4.08534 5.86118 4.07838 5.86292 4.02243C5.86292 4.00458 5.84989 3.98608 5.84207 3.97476C5.83425 3.96954 5.82882 3.96801 5.81449 3.96801C5.79711 3.96867 5.79733 3.97324 5.78777 3.98804C5.78343 4.00306 5.778 4.01764 5.778 4.03462C5.77583 4.05443 5.76779 4.06118 5.75324 4.06423C5.73695 4.06423 5.74086 4.06597 5.72761 4.05748C5.71979 4.04899 5.71045 4.04551 5.71045 4.03092C5.71045 4.01569 5.70654 3.99152 5.70198 3.98151C5.69503 3.97237 5.68417 3.96758 5.67157 3.96431C5.60337 3.96453 5.59838 4.04311 5.60229 4.07294C5.59729 4.07838 5.5949 4.21791 5.68786 4.25666Z" fill="white"/>
<path d="M7.57676 4.91064C7.56134 4.90912 7.54114 4.91478 7.5179 4.92871C7.40735 4.98857 7.36456 5.16642 7.43341 5.27047C7.4977 5.36212 7.59935 5.3286 7.61282 5.3286C7.7212 5.34209 7.78571 5.12484 7.78571 5.12484C7.78571 5.12484 7.78896 5.06367 7.66038 5.17905C7.6063 5.18928 7.59892 5.16969 7.58545 5.13899C7.57416 5.08239 7.57655 5.02514 7.60261 4.96855C7.61434 4.9348 7.60239 4.91325 7.57676 4.91064Z" fill="white"/>
<path d="M12.0728 7.12097C11.8717 7.33125 11.5819 7.59073 11.2663 7.71024C11.2324 7.74833 11.3508 7.91116 11.5037 7.91116C11.7596 7.88134 11.9846 7.73745 12.1933 7.35802C12.2491 7.26964 12.3471 7.08026 12.3499 6.93354C12.3695 6.07303 12.3067 5.40408 12.1779 4.78216C12.1696 4.72164 12.1753 4.65002 12.1855 4.63174C12.202 4.61193 12.2583 4.63217 12.288 4.58319C12.3317 4.53835 12.1712 4.1672 12.0799 4.02439C12.0617 3.98848 12.0506 3.95996 12.0343 3.96148C12.0217 3.96279 12.0065 3.98216 11.9831 4.03201C11.9266 4.12453 11.8884 4.28562 11.8927 4.43669C12.0148 5.28392 12.0524 6.02536 12.1321 6.8728C12.139 6.95444 12.1271 7.07351 12.0728 7.12097Z" fill="white"/>
<path d="M5.11212 5.85034C4.81196 5.85578 4.37235 6.24479 4.36084 6.46051C4.67751 6.30813 4.98875 6.16141 5.31064 6.00359C5.25873 5.92588 5.3076 5.856 5.11212 5.85034Z" fill="white"/>
<path d="M4.53003 7.44685C4.45119 7.6075 4.41817 7.49757 4.41122 7.40788C4.39906 7.23765 4.41557 7.08092 4.43403 6.95662C4.4438 6.89306 4.44358 6.87063 4.43598 6.87085C4.42838 6.87107 4.41339 6.89371 4.3932 6.91939C4.21466 7.20456 4.1988 7.63014 4.29719 7.75705C4.34954 7.81713 4.43577 7.84347 4.4994 7.82453C4.61169 7.77577 4.661 7.54807 4.63428 7.4647C4.59714 7.40614 4.56739 7.397 4.53003 7.44685Z" fill="white"/>
<path d="M4.56364 5.59035C4.92853 5.6254 4.72697 4.97213 4.85902 4.85349C4.884 4.79493 4.93026 4.79384 4.93396 4.86786V5.42274C4.9307 5.6032 5.04907 5.65675 5.14094 5.69397C5.23651 5.68657 5.29993 5.68918 5.33751 5.78257C5.35249 6.10257 5.36813 6.42322 5.38312 6.743C5.38312 6.743 5.60422 6.80678 5.61487 6.20314C5.62551 5.84875 5.54449 5.55139 5.59206 5.4826C5.5938 5.4149 5.68024 5.41142 5.74019 5.44451C5.83554 5.51199 5.87789 5.59493 6.02602 5.56162C6.25147 5.49936 6.38743 5.38965 6.39069 5.21615C6.37744 5.05115 6.35855 4.88614 6.28709 4.72114C6.29708 4.6911 6.24387 4.61317 6.25386 4.58313C6.29447 4.64669 6.35572 4.64147 6.36984 4.58313C6.3314 4.45643 6.27167 4.33496 6.17523 4.28229C6.09552 4.21176 5.97867 4.22678 5.93588 4.37371C5.91612 4.54307 5.99713 4.74378 6.12006 4.90769C6.14613 4.97169 6.18283 5.07836 6.16654 5.17414C6.10117 5.21158 6.03623 5.19591 5.98128 5.13801C5.98128 5.13801 5.80165 5.00326 5.80165 4.97322C5.84922 4.66759 5.81186 4.63254 5.78558 4.54764C5.76712 4.43053 5.71174 4.39352 5.66678 4.31341C5.62182 4.26574 5.561 4.26574 5.5319 4.31341C5.45262 4.45121 5.48976 4.74726 5.5471 4.87983C5.58858 5.00173 5.65201 5.07792 5.62203 5.07792C5.59749 5.14693 5.54601 5.13082 5.50909 5.05137C5.4561 4.88701 5.44545 4.64212 5.44545 4.53153C5.4296 4.39461 5.41179 4.10226 5.32209 4.02803C5.29819 3.99538 5.26974 3.98384 5.24237 3.9871C5.20697 3.99124 5.17374 4.01997 5.15788 4.0585C5.15202 4.19434 5.15115 4.33018 5.16636 4.45534C5.22804 4.67499 5.24759 4.86829 5.27756 5.09316C5.28581 5.39444 5.10402 5.22356 5.11227 5.07422C5.15419 4.88027 5.1429 4.57485 5.10554 4.49736C5.076 4.41986 5.04168 4.40092 4.96979 4.41355C4.91267 4.41007 4.76498 4.57115 4.72371 4.83804C4.72371 4.83804 4.68939 4.97496 4.67441 5.09686C4.65421 5.23466 4.5632 5.3324 4.49956 5.07792C4.44461 4.89289 4.41095 4.43728 4.31907 4.54394C4.29323 4.90008 4.26195 5.52614 4.56364 5.59035Z" fill="white"/>
<path d="M4.68602 4.24869C4.70513 4.29658 4.66712 4.45048 4.70687 4.46485C4.74357 4.48074 4.79396 4.35819 4.81329 4.24499C4.82394 4.18295 4.8159 3.97049 4.67168 3.92695C4.6643 3.92521 4.65669 3.92434 4.64887 3.92412C4.59371 3.9226 4.53311 3.95677 4.55678 4.02317C4.5431 4.05909 4.66473 4.18143 4.68602 4.24869Z" fill="white"/>
<path d="M6.76918 7.01822C6.89928 6.58416 6.76657 6.25698 6.81001 6.21671C6.81044 6.21649 6.81153 6.21605 6.81196 6.21583C6.8124 6.21562 6.81348 6.21518 6.81392 6.21496C6.81435 6.21475 6.81544 6.21409 6.81587 6.21409C6.81739 6.21366 6.81978 6.21322 6.82152 6.21322C6.98203 6.3865 7.20726 6.23521 7.25656 6.17513C7.27763 6.14509 7.33063 6.12571 7.36777 6.16468C7.49287 6.2548 7.71246 6.21235 7.75807 6.05322C7.78457 5.8978 7.80694 5.73758 7.81215 5.57149C7.7307 5.59696 7.66489 5.61589 7.6384 5.64376C7.6321 5.65072 7.62732 5.65834 7.62602 5.66662C7.61885 5.71255 7.61211 5.7587 7.60516 5.80463C7.6043 5.80833 7.60321 5.81203 7.60147 5.81508C7.598 5.82074 7.59235 5.82596 7.58627 5.82944C7.55738 5.84512 7.50721 5.83619 7.5046 5.79418C7.46572 5.61742 7.3063 5.59456 7.20922 5.86841C7.14406 5.92131 7.02503 5.93176 7.01265 5.8523C7.02851 5.66857 6.95466 5.64376 6.80653 5.7304C6.75897 5.36643 6.71162 5.01878 6.66405 4.65481C6.72574 4.65307 6.78242 4.69792 6.8389 4.62717C6.77786 4.43691 6.64863 4.04943 6.57587 4.01308C6.57522 4.01286 6.57457 4.01243 6.57392 4.01221C6.57066 4.00829 6.56675 4.00459 6.56349 4.00176C6.56219 4.00067 6.56002 3.99893 6.55871 3.99806C6.55741 3.99719 6.55524 3.99588 6.55393 3.99523C6.55111 3.9937 6.54742 3.9924 6.54438 3.99131C6.53764 3.98935 6.53135 3.98848 6.5244 3.98935C6.50637 3.99175 6.48617 4.00198 6.46271 4.00742C6.38517 4.03224 6.31263 4.09928 6.33543 4.23011C6.42709 4.78847 6.48682 5.2147 6.57848 5.77328C6.59259 5.83859 6.53786 5.92479 6.46749 5.91608C6.3476 5.83467 6.31784 5.6701 6.11324 5.67706C5.96512 5.67881 5.79614 5.84033 5.77507 5.99597C5.75031 6.11962 5.74162 6.25371 5.77507 6.36147C5.87911 6.48685 6.00378 6.47357 6.11324 6.44528C6.20316 6.40827 6.27723 6.31945 6.30894 6.34057C6.30894 6.34057 6.30981 6.34035 6.30981 6.34057C6.30981 6.34079 6.30981 6.34144 6.30981 6.34144C6.32935 6.37583 6.30785 6.66622 5.88627 6.89066C5.62716 7.00734 5.42082 7.0352 5.30983 6.82318C5.24098 6.69061 5.31483 6.18579 5.14542 6.30247C4.64478 7.59618 6.31849 7.77664 6.5055 6.35581C6.51766 6.31575 6.55459 6.27548 6.58043 6.28528C6.59194 6.29007 6.60237 6.30574 6.60606 6.33469C6.56718 7.62121 5.31114 7.70937 5.09785 7.3047C5.04485 7.20935 5.029 6.99689 5.02379 6.86976C5.01423 6.7927 4.9949 6.74829 4.97253 6.73088C4.9217 6.69257 4.85329 6.79248 4.83852 6.96598C4.81723 7.10551 4.82331 7.14383 4.82331 7.27814C4.88999 8.29429 6.50637 7.85762 6.76918 7.01822ZM6.14474 6.13899V6.13986C6.14452 6.1403 6.14408 6.14139 6.14387 6.14182C6.13127 6.15815 6.08696 6.1514 6.05547 6.1514C6.01746 6.14966 5.99856 6.14335 5.97576 6.11243C5.9649 6.07782 5.99813 6.04386 6.0129 6.01818C6.01312 6.01796 6.01377 6.01752 6.01377 6.01731C6.01529 6.01491 6.01789 6.01208 6.0205 6.00969C6.03179 5.99924 6.05156 5.98944 6.07263 5.98683C6.07675 5.9864 6.08066 5.98574 6.08501 5.98596C6.11433 5.98639 6.14539 6.00076 6.16189 6.04212C6.17666 6.07956 6.16255 6.11918 6.14474 6.13899Z" fill="white"/>
<path d="M11.4895 5.16864C11.6146 5.22828 11.8499 5.20216 11.8401 5.00015C11.8401 4.9823 11.8353 4.92222 11.8334 4.90589C11.8205 4.87607 11.7971 4.86475 11.7745 4.86867C11.7519 4.87259 11.7302 4.89218 11.7224 4.92287C11.7174 4.94312 11.7319 4.97555 11.7139 4.98578C11.7035 4.99645 11.6629 4.99014 11.6646 4.93441C11.6646 4.91656 11.6516 4.89719 11.6437 4.88587C11.6359 4.88064 11.6305 4.87912 11.6162 4.87912C11.5988 4.87977 11.5992 4.88434 11.5897 4.89914C11.5855 4.91416 11.5801 4.92875 11.5801 4.94573C11.5779 4.96554 11.571 4.97229 11.5564 4.97533C11.5401 4.97533 11.543 4.97708 11.5299 4.96859C11.5221 4.9601 11.5128 4.95661 11.5128 4.94203C11.5128 4.92679 11.5089 4.90263 11.5043 4.89261C11.4974 4.88347 11.4865 4.87955 11.4739 4.87651C11.4057 4.87672 11.4016 4.95444 11.4055 4.98404C11.3998 4.98948 11.3964 5.12989 11.4895 5.16864Z" fill="white"/>
<path d="M11.5741 4.38518C11.6187 4.51035 11.54 4.62964 11.5865 4.64705C11.6293 4.66643 11.6886 4.51775 11.711 4.38061C11.7368 4.26959 11.6578 4.04211 11.5457 3.99509C11.5372 3.99313 11.5283 3.99247 11.5192 3.99226C11.4551 3.9903 11.3843 4.03079 11.4119 4.11133C11.3956 4.15487 11.5492 4.30376 11.5741 4.38518Z" fill="white"/>
<path d="M6.91453 4.9866H6.91539C6.91561 4.9866 6.91605 4.98747 6.91626 4.98747C6.91648 4.98747 6.91691 4.98747 6.91713 4.98747L6.918 4.98834C6.94167 5.00423 7.23424 5.00401 7.2666 4.98921C7.26682 4.98899 7.26747 4.98834 7.26747 4.98834H7.26834V4.98747C7.3689 4.95024 7.84586 4.40385 7.84586 4.40385C7.8211 4.38274 7.7983 4.36706 7.77354 4.34573C7.74704 4.32266 7.74986 4.30024 7.77354 4.27716C7.89169 4.20815 7.85433 4.05665 7.79265 3.98786C7.74161 3.96478 7.69339 3.95716 7.65017 3.95934C7.60695 3.96152 7.56872 3.97392 7.53614 3.99069C7.45339 4.07014 7.43384 4.19771 7.49922 4.27716C7.56264 4.3072 7.62606 4.3712 7.58371 4.40668C7.40409 4.5989 6.93668 4.9202 6.91322 4.97876C6.913 4.9792 6.91235 4.98028 6.91235 4.98072V4.98268V4.98355C6.91257 4.98398 6.913 4.98507 6.91322 4.98551C6.91366 4.98573 6.91453 4.98638 6.91453 4.9866ZM7.62193 4.13001C7.62389 4.12957 7.62563 4.12935 7.62758 4.12913C7.65669 4.12609 7.69209 4.15308 7.70925 4.19096C7.72771 4.23145 7.71837 4.27019 7.6884 4.2776C7.65842 4.285 7.61933 4.25822 7.60108 4.21751C7.58284 4.17681 7.59196 4.13741 7.62193 4.13001Z" fill="white"/>
<path d="M10.4116 4.43242C10.6212 4.71476 10.8227 4.9984 11.0175 5.29206C11.0482 5.50996 11.0705 5.72329 11.0849 5.93554C11.1164 6.40116 11.1259 6.98064 11.0973 7.47109C11.1844 7.47457 11.3238 7.33024 11.3727 7.11887C11.4044 6.82652 11.3614 6.23006 11.3583 6.05744C11.3562 5.98582 11.3518 5.90027 11.347 5.8108C11.5736 6.18174 11.7934 6.57488 12.009 7.00633C12.0877 6.96889 12.0703 6.52503 12.0242 6.46277C11.8516 6.09031 11.6131 5.72264 11.5371 5.58136C11.5097 5.5302 11.4161 5.38784 11.3053 5.22349C11.2849 4.98904 11.2628 4.79029 11.2484 4.73043C11.2128 4.48249 11.3501 4.75829 11.331 4.61419C11.2864 4.36668 11.15 4.19841 10.9891 3.97158C10.9372 3.89778 10.9383 3.88276 10.8581 3.98965C10.8101 4.09849 10.8108 4.18926 10.8249 4.27416C10.8038 4.24347 10.7778 4.20711 10.7404 4.16184C10.6014 4.04233 10.5927 4.0358 10.4774 3.93806C10.4409 3.91215 10.3716 3.87231 10.3188 3.8771C10.2871 3.87993 10.2617 3.89865 10.2524 3.94567C10.2398 4.05626 10.2463 4.11634 10.2647 4.20842C10.2784 4.27003 10.3677 4.37277 10.4116 4.43242ZM10.8553 4.41566C10.8607 4.4396 10.8659 4.46355 10.8696 4.48793C10.8816 4.54061 10.892 4.59307 10.9029 4.64488C10.8568 4.58132 10.8186 4.52994 10.8021 4.51166C10.6978 4.38758 10.8043 4.43024 10.8553 4.41566Z" fill="white"/>
<path d="M8.28182 5.30725C8.42777 5.36776 8.5203 5.08934 8.58003 4.78458C8.62086 4.69903 8.65214 4.68924 8.6732 4.73321C8.66777 5.13854 8.70231 5.22888 8.80613 5.35187C9.03809 5.53124 9.22988 5.37451 9.24486 5.35949C9.25985 5.34447 9.42535 5.17859 9.42535 5.17859C9.46554 5.13614 9.51875 5.13375 9.57544 5.17097C9.6306 5.22126 9.62344 5.3079 9.74159 5.36798C9.84107 5.40782 10.0533 5.37778 10.1026 5.29179C10.1688 5.17794 10.1849 5.13876 10.2155 5.09566C10.2629 5.03253 10.3437 5.06061 10.3437 5.08042C10.3361 5.11568 10.2885 5.15029 10.3209 5.21364C10.3771 5.25587 10.3901 5.22866 10.4234 5.2193C10.5411 5.16292 10.6295 4.90714 10.6295 4.90714C10.6347 4.81179 10.5806 4.81898 10.5459 4.83857C10.5007 4.86622 10.4979 4.87558 10.4527 4.90322C10.3951 4.91171 10.2837 4.94981 10.2285 4.86426C10.1723 4.76129 10.1719 4.61784 10.1289 4.514C10.1289 4.50638 10.0537 4.35074 10.1232 4.34072C10.1584 4.34725 10.2338 4.36685 10.2457 4.3035C10.2826 4.24189 10.1662 4.06709 10.0872 3.97893C10.0185 3.90339 9.9236 3.89403 9.83173 3.97131C9.76744 4.03074 9.777 4.09692 9.76418 4.15983C9.74789 4.2321 9.75093 4.32135 9.82413 4.41691C9.88842 4.54382 10.0051 4.70665 9.96661 4.93675C9.96661 4.93675 9.89884 5.04624 9.7796 5.03187C9.72986 5.02099 9.64885 4.99944 9.60584 4.68053C9.57326 4.43912 9.6141 4.10105 9.5118 3.94279C9.48878 3.88315 9.46901 3.82503 9.43578 3.8296C9.41602 3.83221 9.39169 3.85768 9.35781 3.91907C9.3337 3.98328 9.22944 4.08037 9.30459 4.28086C9.36606 4.40799 9.39147 4.61435 9.36345 4.84445C9.32088 4.90975 9.31111 4.93239 9.25507 4.9977C9.17645 5.08238 9.09152 5.06061 9.02615 5.02904C8.96512 4.9879 8.91711 4.96679 8.88931 4.83574C8.89431 4.6272 8.90647 4.28565 8.86846 4.21316C8.81243 4.10083 8.7199 4.14111 8.68037 4.17506C8.49054 4.349 8.39671 4.64287 8.33937 4.87666C8.28681 5.04711 8.23056 4.9977 8.19125 4.92891C8.09524 4.83879 8.08851 4.13436 7.97275 4.25017C7.78769 4.78175 8.07961 5.36384 8.28182 5.30725Z" fill="white"/>
<path d="M9.10066 4.30582C9.17255 4.11143 9.17277 4.02849 9.17755 3.94599C9.16625 3.88308 9.1391 3.85282 9.10826 3.85565C9.07742 3.85826 9.0431 3.8944 9.01509 3.96428C8.99119 4.01739 8.96187 4.2945 8.96665 4.2945C8.94754 4.37701 9.05266 4.41184 9.10066 4.30582Z" fill="white"/>
<path d="M8.3503 4.26026C8.39113 4.23022 8.40503 4.21085 8.41871 4.16034C8.43566 4.07545 8.32966 4.2004 8.3162 4.10614C8.29252 4.01841 8.36029 3.9825 8.42458 3.8976C8.4261 3.85776 8.42675 3.82511 8.4009 3.82424C8.38918 3.8238 8.37158 3.83055 8.34682 3.84514C8.29122 3.88258 8.1811 3.99752 8.17784 4.12965C8.17437 4.20432 8.16047 4.2041 8.20912 4.25155C8.24409 4.30249 8.27928 4.29749 8.3503 4.26026Z" fill="white"/>
</svg>
