<svg width="361" height="193" viewBox="0 0 361 193" fill="none" xmlns="http://www.w3.org/2000/svg">
<rect y="0.227051" width="361" height="192.415" rx="29" fill="#231F20"/>
<mask id="mask0_1_430" style="mask-type:alpha" maskUnits="userSpaceOnUse" x="0" y="0" width="361" height="193">
<rect y="0.227051" width="361" height="192.415" rx="29" fill="#231F20"/>
</mask>
<g mask="url(#mask0_1_430)">
<mask id="path-3-inside-1_1_430" fill="white">
<path d="M377.318 66.3025C375.569 63.1123 373.327 60.1696 370.516 57.5562C362.644 50.3176 351.046 47.6667 340.607 49.96C327.957 52.732 319.359 62.2464 312.258 72.4329C303.438 85.0742 294.718 97.7976 285.864 110.412C277.246 122.681 268.628 134.951 259.991 147.216C257.105 151.336 254.2 155.452 251.314 159.572C246.975 165.749 244.546 173.247 244.722 180.811C245.188 200.848 266.804 217.749 284.296 223.345C288.447 224.669 292.754 225.473 297.115 225.594C305.384 225.813 313.69 222.408 320.923 218.644C326.858 215.543 332.377 211.634 337.745 207.691C342.139 204.464 348.571 201.176 350.087 195.459C351.83 188.9 344.725 183.203 338.78 186.798C333.959 189.712 329.475 192.899 324.089 194.792C314.251 198.213 302.895 197.681 293.932 191.946C285.007 186.219 278.91 176.101 279.946 165.334C280.199 162.69 280.876 160.102 281.953 157.682C283.894 153.351 287.364 149.461 290.163 145.639C297.821 135.18 305.464 124.698 313.122 114.239C319.47 105.552 325.819 96.8649 332.167 88.178C332.603 87.5606 333.053 86.9664 333.508 86.3533L323.283 85.0216C322.453 84.9156 321.943 84.087 322.196 83.3097C322.319 82.9399 322.58 82.6607 322.933 82.5014L341.371 74.5305C341.743 74.3754 342.036 74.0437 342.162 73.655C343.019 70.8882 342.761 71.6845 343.942 68.3548C345.496 64.1555 348.006 61.1826 349.509 61.6572C351.006 62.1507 351.292 66.0264 350.089 70.3437C349.093 73.7345 349.346 72.9572 348.418 75.6882C348.292 76.0769 348.335 76.5035 348.537 76.8463L358.791 94.1269C358.997 94.4508 359.026 94.8544 358.908 95.2052C358.65 96.0014 357.738 96.3534 357.013 95.9533L348.974 91.5958C349.383 97.2264 349.793 102.857 350.207 108.469C351.154 121.466 352.087 134.44 353.034 147.437C354.091 161.988 355.148 176.538 356.205 191.089C356.958 201.402 357.89 211.716 358.46 222.048C358.89 230.165 360.75 240.408 368.591 244.681C373.762 247.484 380.428 247.326 385.446 244.238C391.844 240.307 393.564 233.763 393.089 226.827C392.87 223.542 392.632 220.253 392.413 216.968C391.642 205.757 390.875 194.527 390.104 183.317C389.173 169.628 388.236 155.958 387.285 142.265C386.479 130.59 385.692 118.919 384.886 107.244C383.977 93.8977 383.972 78.3712 377.332 66.3256"/>
</mask>
<path d="M377.318 66.3025C375.569 63.1123 373.327 60.1696 370.516 57.5562C362.644 50.3176 351.046 47.6667 340.607 49.96C327.957 52.732 319.359 62.2464 312.258 72.4329C303.438 85.0742 294.718 97.7976 285.864 110.412C277.246 122.681 268.628 134.951 259.991 147.216C257.105 151.336 254.2 155.452 251.314 159.572C246.975 165.749 244.546 173.247 244.722 180.811C245.188 200.848 266.804 217.749 284.296 223.345C288.447 224.669 292.754 225.473 297.115 225.594C305.384 225.813 313.69 222.408 320.923 218.644C326.858 215.543 332.377 211.634 337.745 207.691C342.139 204.464 348.571 201.176 350.087 195.459C351.83 188.9 344.725 183.203 338.78 186.798C333.959 189.712 329.475 192.899 324.089 194.792C314.251 198.213 302.895 197.681 293.932 191.946C285.007 186.219 278.91 176.101 279.946 165.334C280.199 162.69 280.876 160.102 281.953 157.682C283.894 153.351 287.364 149.461 290.163 145.639C297.821 135.18 305.464 124.698 313.122 114.239C319.47 105.552 325.819 96.8649 332.167 88.178C332.603 87.5606 333.053 86.9664 333.508 86.3533L323.283 85.0216C322.453 84.9156 321.943 84.087 322.196 83.3097C322.319 82.9399 322.58 82.6607 322.933 82.5014L341.371 74.5305C341.743 74.3754 342.036 74.0437 342.162 73.655C343.019 70.8882 342.761 71.6845 343.942 68.3548C345.496 64.1555 348.006 61.1826 349.509 61.6572C351.006 62.1507 351.292 66.0264 350.089 70.3437C349.093 73.7345 349.346 72.9572 348.418 75.6882C348.292 76.0769 348.335 76.5035 348.537 76.8463L358.791 94.1269C358.997 94.4508 359.026 94.8544 358.908 95.2052C358.65 96.0014 357.738 96.3534 357.013 95.9533L348.974 91.5958C349.383 97.2264 349.793 102.857 350.207 108.469C351.154 121.466 352.087 134.44 353.034 147.437C354.091 161.988 355.148 176.538 356.205 191.089C356.958 201.402 357.89 211.716 358.46 222.048C358.89 230.165 360.75 240.408 368.591 244.681C373.762 247.484 380.428 247.326 385.446 244.238C391.844 240.307 393.564 233.763 393.089 226.827C392.87 223.542 392.632 220.253 392.413 216.968C391.642 205.757 390.875 194.527 390.104 183.317C389.173 169.628 388.236 155.958 387.285 142.265C386.479 130.59 385.692 118.919 384.886 107.244C383.977 93.8977 383.972 78.3712 377.332 66.3256" fill="#231F20"/>
<path d="M370.516 57.5562L371.197 56.8238L371.193 56.8201L370.516 57.5562ZM340.607 49.96L340.821 50.9368L340.822 50.9367L340.607 49.96ZM312.258 72.4329L313.078 73.0052L313.078 73.0048L312.258 72.4329ZM285.864 110.412L286.683 110.986L286.683 110.986L285.864 110.412ZM259.991 147.216L259.173 146.64L259.172 146.642L259.991 147.216ZM251.314 159.572L252.132 160.146L252.133 160.145L251.314 159.572ZM244.722 180.811L245.722 180.788L245.722 180.788L244.722 180.811ZM284.296 223.345L283.991 224.297L283.992 224.297L284.296 223.345ZM297.115 225.594L297.087 226.593L297.088 226.593L297.115 225.594ZM320.923 218.644L321.385 219.531L321.387 219.53L320.923 218.644ZM337.745 207.691L337.153 206.885L337.153 206.885L337.745 207.691ZM350.087 195.459L349.12 195.203L349.12 195.203L350.087 195.459ZM338.78 186.798L339.297 187.654L339.297 187.654L338.78 186.798ZM324.089 194.792L324.417 195.737L324.42 195.736L324.089 194.792ZM293.932 191.946L293.392 192.787L293.393 192.788L293.932 191.946ZM279.946 165.334L280.941 165.43L280.941 165.429L279.946 165.334ZM281.953 157.682L281.04 157.273L281.039 157.276L281.953 157.682ZM290.163 145.639L290.97 146.23L290.97 146.23L290.163 145.639ZM313.122 114.239L313.928 114.829L313.929 114.829L313.122 114.239ZM332.167 88.178L332.974 88.768L332.979 88.7614L332.984 88.7546L332.167 88.178ZM333.508 86.3533L334.311 86.9489L335.325 85.5815L333.637 85.3616L333.508 86.3533ZM323.283 85.0216L323.412 84.03L323.41 84.0297L323.283 85.0216ZM322.196 83.3097L321.247 82.9956L321.246 83.0001L322.196 83.3097ZM322.933 82.5014L322.536 81.5835L322.529 81.5866L322.522 81.5898L322.933 82.5014ZM341.371 74.5305L340.986 73.6073L340.974 73.6126L341.371 74.5305ZM342.162 73.655L343.113 73.9646L343.115 73.9577L343.117 73.9507L342.162 73.655ZM343.942 68.3548L343.004 68.0078L343 68.0206L343.942 68.3548ZM349.509 61.6572L349.821 60.7074L349.81 60.7037L349.509 61.6572ZM350.089 70.3437L351.049 70.6256L351.052 70.6121L350.089 70.3437ZM348.418 75.6882L347.471 75.3665L347.467 75.3786L348.418 75.6882ZM348.537 76.8463L347.675 77.3528L347.677 77.3567L348.537 76.8463ZM358.791 94.1269L357.931 94.6373L357.939 94.6502L357.947 94.6628L358.791 94.1269ZM358.908 95.2052L357.96 94.8861L357.956 94.8977L358.908 95.2052ZM357.013 95.9533L357.497 95.0779L357.49 95.0741L357.013 95.9533ZM348.974 91.5958L349.45 90.7166L347.844 89.8459L347.976 91.6683L348.974 91.5958ZM350.207 108.469L351.204 108.396L351.204 108.395L350.207 108.469ZM353.034 147.437L354.032 147.365L354.032 147.365L353.034 147.437ZM356.205 191.089L355.208 191.161L355.208 191.162L356.205 191.089ZM358.46 222.048L359.459 221.995L359.459 221.993L358.46 222.048ZM368.591 244.681L368.112 245.559L368.114 245.56L368.591 244.681ZM385.446 244.238L384.922 243.386L384.922 243.387L385.446 244.238ZM393.089 226.827L392.091 226.894L392.091 226.896L393.089 226.827ZM392.413 216.968L393.411 216.901L393.41 216.899L392.413 216.968ZM390.104 183.317L389.107 183.385L389.107 183.385L390.104 183.317ZM387.285 142.265L386.288 142.334L386.288 142.335L387.285 142.265ZM384.886 107.244L383.889 107.312L383.889 107.313L384.886 107.244ZM378.194 65.8217C376.396 62.5416 374.09 59.513 371.197 56.8238L369.836 58.2886C372.565 60.8262 374.741 63.683 376.441 66.7832L378.194 65.8217ZM371.193 56.8201C363.057 49.3392 351.118 46.6271 340.393 48.9833L340.822 50.9367C350.975 48.7063 362.231 51.296 369.84 58.2923L371.193 56.8201ZM340.393 48.9832C327.35 51.8411 318.564 61.6375 311.438 71.8611L313.078 73.0048C320.153 62.8553 328.563 53.6229 340.821 50.9368L340.393 48.9832ZM311.438 71.8607C302.608 84.516 293.902 97.2199 285.046 109.837L286.683 110.986C295.534 98.3754 304.268 85.6325 313.078 73.0052L311.438 71.8607ZM285.046 109.837C276.428 122.106 267.81 134.375 259.173 146.64L260.809 147.792C269.446 135.526 278.065 123.256 286.683 110.986L285.046 109.837ZM259.172 146.642C257.73 148.701 256.282 150.76 254.834 152.819C253.387 154.877 251.939 156.937 250.495 158.998L252.133 160.145C253.575 158.086 255.023 156.028 256.471 153.969C257.918 151.91 259.366 149.851 260.81 147.79L259.172 146.642ZM250.496 158.997C246.042 165.338 243.541 173.043 243.722 180.834L245.722 180.788C245.551 173.451 247.909 166.161 252.132 160.146L250.496 158.997ZM243.722 180.834C243.964 191.211 249.673 200.679 257.428 208.211C265.189 215.749 275.101 221.453 283.991 224.297L284.6 222.392C276 219.641 266.358 214.096 258.821 206.776C251.278 199.449 245.946 190.448 245.722 180.788L243.722 180.834ZM283.992 224.297C288.222 225.647 292.622 226.47 297.087 226.593L297.143 224.594C292.886 224.476 288.672 223.691 284.6 222.392L283.992 224.297ZM297.088 226.593C305.625 226.82 314.122 223.31 321.385 219.531L320.462 217.757C313.257 221.506 305.143 224.806 297.141 224.594L297.088 226.593ZM321.387 219.53C327.394 216.391 332.966 212.442 338.337 208.497L337.153 206.885C331.788 210.826 326.321 214.694 320.46 217.758L321.387 219.53ZM338.337 208.497C339.417 207.703 340.615 206.912 341.878 206.048C343.128 205.193 344.422 204.28 345.632 203.28C348.041 201.288 350.217 198.871 351.053 195.716L349.12 195.203C348.441 197.764 346.642 199.85 344.358 201.738C343.221 202.678 341.988 203.549 340.749 204.397C339.523 205.236 338.269 206.065 337.153 206.885L338.337 208.497ZM351.053 195.716C353.01 188.353 345.035 181.847 338.262 185.943L339.297 187.654C344.415 184.559 350.65 189.447 349.12 195.203L351.053 195.716ZM338.262 185.942C333.359 188.906 329.015 192.001 323.757 193.849L324.42 195.736C329.935 193.797 334.56 190.517 339.297 187.654L338.262 185.942ZM323.76 193.848C314.16 197.186 303.133 196.645 294.471 191.103L293.393 192.788C302.658 198.716 314.343 199.24 324.417 195.737L323.76 193.848ZM294.472 191.104C285.797 185.537 279.948 175.752 280.941 165.43L278.95 165.238C277.871 176.45 284.217 186.9 293.392 192.787L294.472 191.104ZM280.941 165.429C281.184 162.892 281.834 160.409 282.867 158.089L281.039 157.276C279.918 159.795 279.213 162.488 278.95 165.238L280.941 165.429ZM282.866 158.091C284.748 153.889 288.086 150.166 290.97 146.23L289.356 145.048C286.641 148.755 283.039 152.813 281.04 157.273L282.866 158.091ZM290.97 146.23C294.799 141 298.625 135.764 302.45 130.529C306.275 125.293 310.1 120.058 313.928 114.829L312.315 113.648C308.486 118.878 304.66 124.114 300.835 129.349C297.01 134.584 293.185 139.819 289.356 145.048L290.97 146.23ZM313.929 114.829C317.103 110.485 320.277 106.142 323.452 101.798C326.626 97.4549 329.8 93.1115 332.974 88.768L331.36 87.588C328.185 91.9314 325.011 96.2748 321.837 100.618C318.663 104.962 315.488 109.305 312.314 113.649L313.929 114.829ZM332.984 88.7546C333.411 88.15 333.848 87.5732 334.311 86.9489L332.705 85.7576C332.258 86.3596 331.795 86.9712 331.35 87.6013L332.984 88.7546ZM333.637 85.3616L323.412 84.03L323.154 86.0132L333.379 87.3449L333.637 85.3616ZM323.41 84.0297C323.209 84.004 323.086 83.8072 323.147 83.6193L321.246 83.0001C320.801 84.3667 321.697 85.8271 323.156 86.0135L323.41 84.0297ZM323.146 83.6237C323.176 83.532 323.234 83.4627 323.344 83.413L322.522 81.5898C321.925 81.8588 321.461 82.3479 321.247 82.9956L323.146 83.6237ZM323.33 83.4193L341.768 75.4484L340.974 73.6126L322.536 81.5835L323.33 83.4193ZM341.756 75.4535C342.415 75.1786 342.903 74.611 343.113 73.9646L341.211 73.3454C341.169 73.4764 341.071 73.5722 340.986 73.6074L341.756 75.4535ZM343.117 73.9507C343.968 71.2029 343.706 72.0138 344.885 68.689L343 68.0206C341.817 71.3551 342.069 70.5736 341.207 73.3593L343.117 73.9507ZM344.88 68.7018C345.627 66.6833 346.591 64.9967 347.512 63.8944C347.975 63.34 348.394 62.9734 348.731 62.7744C348.897 62.6767 349.021 62.6329 349.102 62.6162C349.179 62.6006 349.207 62.6106 349.207 62.6108L349.81 60.7037C349.053 60.4645 348.309 60.7018 347.716 61.0515C347.111 61.4078 346.524 61.9578 345.977 62.6123C344.879 63.9276 343.811 65.827 343.004 68.0078L344.88 68.7018ZM349.196 62.607C349.196 62.6072 349.225 62.6155 349.277 62.6724C349.333 62.733 349.407 62.8403 349.484 63.016C349.64 63.3738 349.764 63.9153 349.814 64.6353C349.913 66.0671 349.704 67.9993 349.126 70.0753L351.052 70.6121C351.677 68.3708 351.927 66.2065 351.809 64.4978C351.751 63.6475 351.597 62.8577 351.317 62.2151C351.041 61.5838 350.576 60.9561 349.821 60.7074L349.196 62.607ZM349.13 70.0619C348.135 73.4475 348.393 72.6549 347.471 75.3665L349.365 76.0099C350.3 73.2596 350.051 74.0215 351.048 70.6255L349.13 70.0619ZM347.467 75.3786C347.255 76.0307 347.324 76.7554 347.675 77.3528L349.399 76.3399C349.347 76.2517 349.328 76.123 349.369 75.9978L347.467 75.3786ZM347.677 77.3567L357.931 94.6373L359.651 93.6166L349.397 76.336L347.677 77.3567ZM357.947 94.6628C357.973 94.7044 357.993 94.7889 357.96 94.8862L359.856 95.5242C360.059 94.9199 360.02 94.1973 359.636 93.5911L357.947 94.6628ZM357.956 94.8977C357.894 95.0889 357.677 95.1774 357.497 95.0779L356.53 96.8287C357.799 97.5294 359.406 96.9139 359.859 95.5127L357.956 94.8977ZM357.49 95.0741L349.45 90.7166L348.497 92.4749L356.537 96.8324L357.49 95.0741ZM347.976 91.6683C348.386 97.2988 348.795 102.93 349.209 108.542L351.204 108.395C350.79 102.784 350.381 97.1539 349.971 91.5232L347.976 91.6683ZM349.209 108.541C349.683 115.04 350.153 121.532 350.623 128.025C351.093 134.518 351.563 141.011 352.037 147.51L354.032 147.365C353.558 140.866 353.088 134.374 352.618 127.881C352.148 121.388 351.678 114.895 351.204 108.396L349.209 108.541ZM352.037 147.51C352.565 154.785 353.094 162.06 353.622 169.336C354.151 176.611 354.679 183.886 355.208 191.161L357.203 191.016C356.674 183.741 356.146 176.466 355.617 169.191C355.089 161.915 354.56 154.64 354.032 147.365L352.037 147.51ZM355.208 191.162C355.963 201.499 356.892 211.781 357.462 222.103L359.459 221.993C358.888 211.65 357.954 201.305 357.203 191.016L355.208 191.162ZM357.461 222.101C357.679 226.201 358.259 230.904 359.807 235.148C361.357 239.399 363.909 243.268 368.112 245.559L369.069 243.803C365.433 241.821 363.133 238.432 361.686 234.463C360.236 230.489 359.671 226.012 359.459 221.995L357.461 222.101ZM368.114 245.56C373.597 248.532 380.645 248.367 385.97 245.09L384.922 243.387C380.211 246.285 373.926 246.436 369.067 243.802L368.114 245.56ZM385.969 245.09C392.809 240.888 394.575 233.892 394.086 226.759L392.091 226.896C392.553 233.634 390.878 239.727 384.922 243.386L385.969 245.09ZM394.086 226.761C393.977 225.116 393.863 223.471 393.748 221.828C393.634 220.184 393.52 218.542 393.411 216.901L391.415 217.034C391.525 218.678 391.639 220.323 391.753 221.967C391.867 223.611 391.981 225.253 392.091 226.894L394.086 226.761ZM393.41 216.899C393.025 211.294 392.641 205.684 392.256 200.074C391.872 194.464 391.488 188.854 391.102 183.248L389.107 183.385C389.492 188.99 389.877 194.6 390.261 200.211C390.645 205.821 391.03 211.431 391.415 217.036L393.41 216.899ZM391.102 183.249C390.17 169.56 389.234 155.89 388.283 142.196L386.288 142.335C387.239 156.027 388.175 169.696 389.107 183.385L391.102 183.249ZM388.283 142.196C387.88 136.359 387.482 130.523 387.084 124.686C386.685 118.85 386.287 113.013 385.884 107.175L383.889 107.313C384.292 113.15 384.69 118.986 385.088 124.823C385.486 130.659 385.885 136.496 386.288 142.334L388.283 142.196ZM385.884 107.176C385.433 100.552 385.2 93.2628 384.249 86.1643C383.297 79.0506 381.613 72.0196 378.208 65.8429L376.456 66.8083C379.691 72.6772 381.33 79.4322 382.267 86.4297C383.206 93.4424 383.431 100.589 383.889 107.312L385.884 107.176Z" fill="url(#paint0_linear_1_430)" mask="url(#path-3-inside-1_1_430)"/>
<path d="M69.4739 90.4562C40.7492 40.7035 -23.0963 23.5961 -72.849 52.3209C-122.602 81.0456 -139.709 144.891 -110.984 194.644C-82.2596 244.396 -18.4141 261.504 31.3386 232.779C81.0913 204.054 98.1986 140.209 69.4739 90.4562ZM67.4909 91.6011C95.5839 140.26 78.8532 202.702 30.1937 230.796C30.0846 230.859 29.973 230.913 29.8638 230.976C47.5703 216.487 59.9716 196.528 65.0914 173.954C70.857 148.532 66.8504 122.091 53.808 99.5009C40.7655 76.9107 19.8701 60.2204 -5.02873 52.5019C-27.1365 45.6501 -50.6205 46.41 -72.0208 54.4976C-71.9132 54.435 -71.8118 54.3661 -71.7041 54.3039C-23.0446 26.2104 39.3973 42.9416 67.4909 91.6011ZM-0.101587 242.312C26.9596 209.154 30.8273 162.398 9.33732 125.176C-12.1523 87.955 -54.5791 67.9254 -96.8244 74.7815C-95.0208 72.7538 -93.1323 70.7891 -91.1517 68.896C-46.5487 57.2912 0.418282 76.8673 23.5663 116.961C46.7143 157.054 40.1849 207.518 7.83299 240.342C5.20283 241.111 2.5566 241.764 -0.101587 242.312ZM-9.61095 243.809C12.6769 211.084 14.3579 168.103 -5.48526 133.734C-25.3278 99.3656 -63.3905 79.3309 -102.875 82.2686C-101.234 80.0259 -99.4932 77.8472 -97.6589 75.7324C-55.4227 68.4643 -12.8424 88.3607 8.64403 125.576C30.1302 162.791 26.0708 209.616 -1.34225 242.559C-4.09094 243.09 -6.84802 243.508 -9.61095 243.809ZM-19.5167 244.397C-1.92177 212.684 -2.15978 173.727 -20.3088 142.292C-38.4583 110.856 -72.0769 91.172 -108.337 90.5532C-106.859 88.0531 -105.267 85.6145 -103.57 83.2377C-64.1638 80.0093 -26.0743 99.9062 -6.27926 134.192C13.5171 168.481 11.7034 211.416 -10.7978 243.926C-13.7046 244.207 -16.6124 244.366 -19.5167 244.397ZM-29.8752 243.975C-16.8353 213.923 -18.7487 179.228 -35.1324 150.851C-51.5161 122.473 -80.6059 103.469 -113.152 99.7355C-111.868 96.9536 -110.457 94.2277 -108.922 91.5629C-72.8043 91.9772 -39.2656 111.52 -21.2016 142.808C-3.13837 174.094 -2.98314 212.91 -20.6813 244.398C-23.7569 244.395 -26.8235 244.254 -29.8752 243.975ZM-40.8198 242.38C-32.1169 214.699 -35.389 184.526 -49.9065 159.381C-64.424 134.236 -88.9185 116.315 -117.243 110.011C-116.194 106.895 -114.996 103.831 -113.65 100.825C-81.3135 104.414 -52.3884 123.252 -36.1239 151.423C-19.8589 179.595 -18.0077 214.063 -31.0678 243.862C-34.344 243.524 -37.5974 243.03 -40.8198 242.38ZM24.1609 116.618C1.06962 76.6225 -45.5671 56.9055 -90.1042 67.9183C-88.0912 66.0481 -86.0012 64.2425 -83.815 62.522C-61.9894 55.0229 -38.0759 55.114 -16.1598 62.8739C6.85577 71.0225 26.2635 87.171 38.4887 108.346C50.7138 129.52 54.9955 154.403 50.5434 178.407C46.3063 201.268 34.4284 222.023 17.0211 237.175C14.4381 238.208 11.8295 239.116 9.20339 239.924C41.009 206.86 47.2532 156.615 24.1609 116.618ZM51.1078 178.513C55.5826 154.371 51.2778 129.352 38.9844 108.059C26.6916 86.7676 7.17573 70.5279 -15.9678 62.3344C-37.4531 54.7273 -60.8517 54.429 -82.3486 61.4064C-79.7569 59.4417 -77.0501 57.587 -74.2291 55.8484C-52.298 46.9337 -27.9927 45.8629 -5.16477 52.9394C19.6238 60.6234 40.4267 77.2406 53.411 99.7301C66.3953 122.22 70.3848 148.544 64.6445 173.853C59.3585 197.162 46.2778 217.678 27.5894 232.213C24.6744 233.786 21.7161 235.202 18.7202 236.463C35.5111 221.335 46.9524 200.922 51.1078 178.513ZM-65.6745 233.971C-64.5802 213.85 -69.3282 193.976 -79.4529 176.439C-89.5784 158.901 -104.415 144.853 -122.388 135.742C-122.103 131.585 -121.543 127.459 -120.758 123.379C-97.7024 131.462 -78.3103 147.506 -66.0673 168.711C-53.8238 189.917 -49.627 214.731 -54.1539 238.74C-58.0795 237.38 -61.9322 235.803 -65.6745 233.971ZM-81.0051 224.692C-82.6679 210.67 -87.1041 197.306 -94.2271 184.969C-101.35 172.632 -110.706 162.107 -122.018 153.657C-122.592 148.352 -122.74 143.038 -122.483 137.757C-105.16 146.715 -90.8495 160.367 -81.0409 177.356C-71.233 194.344 -66.565 213.564 -67.4668 233.046C-72.1695 230.628 -76.6981 227.842 -81.0051 224.692ZM-121.665 156.538C-111.293 164.608 -102.657 174.491 -96.0126 186C-89.3685 197.508 -85.1269 209.93 -83.3254 222.945C-93.4288 215.103 -102.222 205.241 -109.001 193.499C-115.781 181.756 -119.925 169.21 -121.665 156.538ZM-52.6203 239.271C-47.9506 214.815 -52.2063 189.517 -64.6807 167.91C-77.1557 146.303 -96.9357 129.97 -120.45 121.786C-119.712 118.25 -118.8 114.754 -117.694 111.316C-89.6798 117.506 -65.4471 135.21 -51.0956 160.067C-36.7435 184.926 -33.5291 214.762 -42.1759 242.119C-45.7058 241.357 -49.1898 240.399 -52.6203 239.271Z" fill="url(#paint1_linear_1_430)" fill-opacity="0.9"/>
</g>
<path d="M232.908 75.6416C232.304 74.9548 231.593 74.3556 230.76 73.8685C228.432 72.524 225.441 72.5094 223.005 73.6444C220.053 75.0181 218.465 77.824 217.281 80.7127C215.81 84.298 214.368 87.8979 212.887 91.4784C211.445 94.9614 210.003 98.4444 208.557 101.927C208.074 103.096 207.587 104.266 207.105 105.435C206.379 107.188 206.194 109.161 206.652 111.008C207.865 115.898 214.095 118.86 218.694 119.274C219.785 119.372 220.886 119.333 221.963 119.123C224.004 118.724 225.855 117.433 227.423 116.113C228.709 115.026 229.849 113.765 230.95 112.503C231.851 111.47 233.249 110.311 233.308 108.825C233.376 107.12 231.32 106.112 230.059 107.32C229.036 108.299 228.11 109.327 226.892 110.087C224.666 111.465 221.851 111.957 219.337 111.042C216.833 110.126 214.782 107.978 214.446 105.279C214.363 104.616 214.388 103.944 214.519 103.291C214.758 102.122 215.396 100.977 215.873 99.8863C217.179 96.9001 218.48 93.9091 219.785 90.923C220.867 88.4435 221.948 85.964 223.029 83.4845C223.102 83.3091 223.18 83.1386 223.258 82.9633L220.677 83.1971C220.467 83.2166 220.297 83.0412 220.316 82.8366C220.326 82.7392 220.375 82.6564 220.452 82.5979L224.54 79.6313C224.622 79.5728 224.676 79.4754 224.686 79.3731C224.744 78.6473 224.725 78.8567 224.832 77.975C224.983 76.8595 225.436 75.9924 225.83 76.0265C226.225 76.0654 226.508 77.0007 226.449 78.126C226.391 79.0126 226.41 78.808 226.332 79.529C226.322 79.6313 226.357 79.7336 226.425 79.8066L229.888 83.4845C229.956 83.5527 229.986 83.6501 229.976 83.7427C229.956 83.9521 229.752 84.0885 229.552 84.0301L227.341 83.4017C227.75 84.7608 228.159 86.1199 228.568 87.4741C229.513 90.6113 230.453 93.7435 231.398 96.8807C232.455 100.393 233.513 103.905 234.57 107.417C235.32 109.907 236.114 112.386 236.82 114.89C237.371 116.858 238.389 119.269 240.547 119.888C241.969 120.292 243.596 119.888 244.658 118.855C246.012 117.54 246.076 115.84 245.579 114.164C245.345 113.37 245.106 112.576 244.872 111.782C244.069 109.074 243.265 106.36 242.461 103.652C241.482 100.344 240.503 97.0414 239.519 93.7338C238.681 90.9133 237.848 88.0928 237.01 85.2723C236.055 82.0474 235.203 78.2381 232.913 75.6465" fill="#8A8C8E"/>
<path d="M180.775 72.5776C181.111 72.6702 181.438 72.7968 181.75 72.9527C183.606 73.888 184.487 75.7781 185.471 77.4977C187.269 80.6202 189.061 83.7427 190.883 86.8458C191.268 87.5132 191.702 88.1659 192.048 88.8528C192.32 89.3984 192.569 89.8709 193.231 90.0073C194.547 90.2752 195.277 88.7602 195.881 87.8688C198.346 84.225 200.889 80.6348 203.442 77.0544C204.65 75.3592 206.589 71.4134 209.312 73.0453C210.052 73.4886 210.466 74.3264 210.724 75.1497C211.411 77.3223 211.012 80.0016 211.021 82.257C211.065 90.9572 211.075 99.6574 211.07 108.358C211.07 111.66 211.065 113.209 211.07 115.635C211.07 117.491 210.544 119.26 208.722 120.117C207.29 120.794 205.468 120.546 204.27 119.508C202.891 118.319 202.877 116.834 202.998 115.182C203.067 114.267 202.979 113.297 202.979 112.376C202.979 106.375 202.945 98.2544 202.974 92.253C202.974 91.6099 203.334 89.9098 202.609 89.5542C201.43 88.9746 199.535 92.6573 199.018 93.388C197.411 95.6629 195.945 98.3178 194.03 100.344C193.577 100.827 192.988 101.182 192.35 101.343C191.19 101.635 189.802 101.328 189.125 100.32C186.942 97.0805 184.843 93.7874 182.709 90.5188C182.534 90.2508 182.29 89.6078 182.013 89.4617C181.823 89.3643 181.569 89.3935 181.423 89.5494C180.892 90.5577 181.36 92.969 181.36 94.07V113.058C181.36 115.065 181.72 117.34 179.562 118.432C178.383 119.031 176.854 118.865 175.836 118.022C174.935 117.282 174.506 116.103 174.613 114.958C174.74 113.526 174.701 112.079 174.701 110.637V84.5757C174.701 81.838 174.423 78.925 174.74 76.2019C174.9 74.8233 175.807 73.5616 177.029 72.9138C178.164 72.3146 179.528 72.2318 180.77 72.5776" fill="#00A8A5"/>
<path d="M180.99 114.155C180.756 113.361 180.522 112.566 180.283 111.777C179.48 109.069 178.676 106.36 177.872 103.652C176.893 100.349 175.914 97.0464 174.935 93.7436C174.097 90.9231 173.264 88.1075 172.426 85.2919C171.471 82.0671 170.619 78.2625 168.329 75.671C167.579 74.8234 166.678 74.1073 165.572 73.5812C163.999 72.8359 162.191 72.6703 160.481 73.0112C156.165 73.8735 154.144 77.2396 152.712 80.7372C151.245 84.3225 149.803 87.9175 148.318 91.498C146.876 94.981 145.434 98.4591 143.992 101.942C143.51 103.111 143.023 104.28 142.54 105.449C141.814 107.203 141.629 109.171 142.087 111.017C143.3 115.908 149.526 118.865 154.124 119.279C155.216 119.377 156.316 119.338 157.393 119.128C159.429 118.729 161.285 117.443 162.849 116.118C164.218 114.963 166.03 113 168.29 110.228C168.607 109.839 168.763 109.342 168.719 108.84C168.704 108.66 168.68 108.465 168.646 108.255C168.587 107.9 168.412 107.568 168.149 107.325C167.399 106.619 166.23 106.623 165.484 107.335C164.461 108.314 163.541 109.342 162.318 110.097C160.803 111.037 158.971 111.763 157.174 111.592C155.396 111.422 153.715 110.749 152.322 109.634C150.456 108.148 149.467 105.659 149.954 103.306C150.193 102.142 150.831 100.997 151.309 99.901C153.691 94.45 156.083 89.0038 158.465 83.5479C158.927 82.4811 159.429 80.367 160.93 80.4254C162.42 80.4839 162.659 83.0998 163 84.2251C163.321 85.287 163.638 86.349 163.969 87.406C163.979 87.4353 163.989 87.4645 163.994 87.4937C164.934 90.626 165.879 93.7583 166.824 96.8954C167.881 100.403 168.938 103.915 169.99 107.422C170.74 109.912 171.534 112.386 172.236 114.89C172.903 117.272 174.258 120.307 177.492 120.01C178.447 119.922 179.372 119.523 180.059 118.855C181.418 117.54 181.482 115.835 180.985 114.159" fill="#EA8024"/>
<path d="M146.35 80.5472C147.568 82.1401 146.121 84.2981 143.953 84.6684C143.768 84.7025 143.588 84.7268 143.412 84.7512C143.368 84.756 143.329 84.7609 143.286 84.7707C142.492 84.873 141.688 84.7122 141.006 84.3274C139.579 83.5236 138.151 82.7198 136.724 81.9161C134.634 80.7372 132.725 79.3586 130.177 80.4644C128.487 81.2 127.327 82.9001 127.317 84.6537C127.308 86.9238 129.047 88.2585 130.815 89.4764C133.041 91.0108 135.233 92.594 137.347 94.2649C139.803 96.1939 142.058 98.1425 144.114 100.115C144.177 100.179 144.24 100.242 144.299 100.31C145.872 102.2 146.954 104.29 146.661 106.531C145.044 118.855 128.54 126.128 117.375 113.263C115.728 111.363 113.76 108.367 116.498 106.58C117.692 105.8 119.26 105.878 120.454 106.594C121.93 107.486 127.843 111.631 129.695 112.362C131.424 113.039 133.47 113.19 135.136 112.381C139.384 110.321 137.011 105.182 134.585 102.736C133.144 101.284 131.4 100.135 129.685 98.9755C126.441 96.7834 123.557 94.1723 120.824 91.4346C118.924 89.3497 118.456 86.5536 119.294 83.8743C123.854 69.2262 138.473 70.2054 146.35 80.5375" fill="white"/>
<defs>
<linearGradient id="paint0_linear_1_430" x1="353.461" y1="49.4903" x2="312.506" y2="232.779" gradientUnits="userSpaceOnUse">
<stop stop-color="#00417E"/>
<stop offset="0.364583" stop-color="#EA8024"/>
<stop offset="0.682292" stop-color="#00A8A5"/>
<stop offset="1" stop-color="#8A8C8E"/>
</linearGradient>
<linearGradient id="paint1_linear_1_430" x1="69.4739" y1="90.4562" x2="-110.984" y2="194.644" gradientUnits="userSpaceOnUse">
<stop stop-color="#00A8A5"/>
<stop offset="0.26" stop-color="#EA8024"/>
<stop offset="0.565" stop-color="#478AC9"/>
<stop offset="0.795" stop-color="#8A8C8E"/>
</linearGradient>
</defs>
</svg>
