<svg width="30" height="31" viewBox="0 0 30 31" fill="none" xmlns="http://www.w3.org/2000/svg">
<path fill-rule="evenodd" clip-rule="evenodd" d="M25.4242 10.0949C26.2617 10.7436 26.7755 11.7074 26.863 12.7561L26.8755 13.0074V23.1436C26.8755 25.7561 24.8117 27.8811 22.2255 28.0186H19.738C18.5492 27.9949 17.588 27.0699 17.5005 25.9074L17.488 25.7311V22.1574C17.488 21.7686 17.1992 21.4449 16.813 21.3811L16.7005 21.3686H13.3617C12.963 21.3811 12.638 21.6686 12.588 22.0436L12.5755 22.1574V25.7199C12.5755 25.7936 12.5617 25.8811 12.5505 25.9436L12.538 25.9699L12.5242 26.0561C12.3755 27.1199 11.5005 27.9311 10.413 28.0074L10.2505 28.0186H8.01299C5.40049 28.0186 3.26299 25.9699 3.12549 23.3936V13.0074C3.13674 11.9436 3.60049 10.9561 4.37549 10.2686L12.163 4.0061C13.7505 2.74485 15.9755 2.69485 17.6117 3.8561L17.813 4.0061L25.4242 10.0949ZM25.1242 23.3436L25.138 23.1436V13.0186C25.1242 12.4824 24.9005 11.9811 24.513 11.6074L24.3505 11.4686L16.7255 5.3686C15.7755 4.6061 14.4255 4.56985 13.4255 5.2311L13.2367 5.3686L5.63674 11.4949C5.20049 11.8186 4.93799 12.3061 4.87549 12.8186L4.86174 13.0186V23.1436C4.86174 24.8061 6.16174 26.1686 7.81299 26.2686H10.2505C10.5255 26.2686 10.763 26.0824 10.7992 25.8199L10.8255 25.5949L10.838 25.5311V22.1574C10.838 20.8199 11.863 19.7324 13.1755 19.6311H16.7005C18.0367 19.6311 19.1242 20.6574 19.2255 21.9699V25.7311C19.2255 25.9936 19.413 26.2199 19.663 26.2686H21.9867C23.6617 26.2686 25.0242 24.9824 25.1242 23.3436Z" fill="#EA8024"/>
</svg>
