<svg width="37" height="36" viewBox="0 0 37 36" fill="none" xmlns="http://www.w3.org/2000/svg">
<rect x="0.576904" y="0.00610352" width="36" height="36" rx="18" fill="#00417E"/>
<g clip-path="url(#clip0_1_790)">
<path d="M19.4518 21.5062C20.8363 21.5062 22.1896 21.0957 23.3408 20.3265C24.4919 19.5573 25.3891 18.4641 25.9189 17.185C26.4488 15.9059 26.5874 14.4984 26.3173 13.1406C26.0472 11.7827 25.3805 10.5354 24.4015 9.55645C23.4226 8.57748 22.1753 7.9108 20.8174 7.6407C19.4595 7.3706 18.0521 7.50923 16.773 8.03904C15.4939 8.56885 14.4007 9.46606 13.6315 10.6172C12.8623 11.7684 12.4518 13.1217 12.4518 14.5062C12.4539 16.3621 13.192 18.1413 14.5043 19.4536C15.8166 20.7659 17.5959 21.5041 19.4518 21.5062ZM19.4518 9.2562C20.4901 9.2562 21.5052 9.56411 22.3685 10.141C23.2319 10.7179 23.9048 11.5378 24.3022 12.4971C24.6995 13.4564 24.8035 14.512 24.6009 15.5304C24.3983 16.5488 23.8983 17.4843 23.1641 18.2185C22.4299 18.9527 21.4944 19.4527 20.476 19.6553C19.4576 19.8579 18.402 19.7539 17.4427 19.3566C16.4834 18.9592 15.6634 18.2863 15.0866 17.4229C14.5097 16.5596 14.2018 15.5445 14.2018 14.5062C14.2032 13.1142 14.7567 11.7797 15.741 10.7954C16.7253 9.81116 18.0598 9.25759 19.4518 9.2562ZM28.1204 20.4326C27.2385 21.7175 26.0815 22.7899 24.7334 23.5717C23.3853 24.3536 21.88 24.8254 20.3268 24.9528V26.7562H23.8268C24.0588 26.7562 24.2814 26.8484 24.4455 27.0125C24.6096 27.1766 24.7018 27.3991 24.7018 27.6312C24.7018 27.8633 24.6096 28.0858 24.4455 28.2499C24.2814 28.414 24.0588 28.5062 23.8268 28.5062H15.0768C14.8447 28.5062 14.6222 28.414 14.4581 28.2499C14.294 28.0858 14.2018 27.8633 14.2018 27.6312C14.2018 27.3991 14.294 27.1766 14.4581 27.0125C14.6222 26.8484 14.8447 26.7562 15.0768 26.7562H18.5768V24.9616C16.667 24.8027 14.8373 24.1239 13.2859 22.9989C11.7345 21.8739 10.5208 20.3457 9.77638 18.5798C9.03195 16.814 8.78522 14.878 9.06296 12.9819C9.3407 11.0858 10.1323 9.30196 11.3519 7.82382C11.4997 7.6449 11.7126 7.53203 11.9436 7.51004C12.1747 7.48805 12.405 7.55875 12.5839 7.70657C12.7628 7.8544 12.8757 8.06724 12.8977 8.29829C12.9197 8.52933 12.849 8.75965 12.7012 8.93857C11.95 9.85077 11.3914 10.9057 11.0591 12.0396C10.7267 13.1736 10.6275 14.3631 10.7674 15.5365C10.9072 16.7098 11.2833 17.8427 11.873 18.8667C12.4626 19.8908 13.2535 20.7848 14.1981 21.4948C15.1426 22.2049 16.2212 22.7163 17.3687 22.9981C18.5163 23.28 19.709 23.3265 20.8751 23.1348C22.0411 22.9431 23.1562 22.5173 24.1531 21.8829C25.1501 21.2486 26.0082 20.4189 26.6758 19.4438C26.8069 19.2523 27.0087 19.1206 27.2369 19.0779C27.4651 19.0351 27.7009 19.0848 27.8925 19.2159C28.084 19.347 28.2157 19.5488 28.2584 19.777C28.3012 20.0052 28.2515 20.241 28.1204 20.4326Z" fill="white"/>
</g>
<defs>
<clipPath id="clip0_1_790">
<rect width="21" height="21" fill="white" transform="translate(8.0769 7.5061)"/>
</clipPath>
</defs>
</svg>
