<svg width="37" height="37" viewBox="0 0 37 37" fill="none" xmlns="http://www.w3.org/2000/svg">
<rect x="0.5" y="0.407715" width="36" height="36" rx="18" fill="#231F20"/>
<path d="M30.4977 13.6478C30.3594 13.4906 30.1966 13.3534 30.0059 13.2419C29.4729 12.9341 28.7881 12.9308 28.2306 13.1906C27.5548 13.5051 27.1912 14.1474 26.9202 14.8087C26.5835 15.6295 26.2534 16.4536 25.9144 17.2732C25.5843 18.0706 25.2542 18.8679 24.923 19.6653C24.8126 19.9329 24.7011 20.2005 24.5907 20.4682C24.4245 20.8696 24.3821 21.3213 24.487 21.7439C24.7646 22.8636 26.1909 23.5416 27.2436 23.6364C27.4934 23.6587 27.7455 23.6497 27.9919 23.6018C28.4592 23.5104 28.8829 23.2148 29.242 22.9126C29.5364 22.6639 29.7974 22.3751 30.0494 22.0863C30.2557 21.8499 30.5758 21.5845 30.5891 21.2443C30.6047 20.854 30.1341 20.6232 29.8453 20.8998C29.6111 21.1239 29.3993 21.3592 29.1205 21.5332C28.6108 21.8488 27.9663 21.9614 27.3908 21.7517C26.8177 21.5421 26.3482 21.0503 26.2712 20.4325C26.2523 20.2808 26.2578 20.1269 26.288 19.9775C26.3426 19.7099 26.4887 19.4478 26.598 19.198C26.8968 18.5144 27.1946 17.8297 27.4934 17.1461C27.741 16.5785 27.9886 16.0109 28.2361 15.4433C28.2529 15.4031 28.2707 15.3641 28.2886 15.3239L27.6975 15.3775C27.6496 15.3819 27.6105 15.3418 27.615 15.2949C27.6172 15.2726 27.6284 15.2537 27.6462 15.2403L28.5818 14.5612C28.6008 14.5478 28.6131 14.5255 28.6153 14.5021C28.6287 14.3359 28.6242 14.3839 28.6488 14.182C28.6833 13.9266 28.787 13.7281 28.8774 13.7359C28.9677 13.7449 29.0324 13.959 29.019 14.2166C29.0056 14.4195 29.0101 14.3727 28.9922 14.5377C28.99 14.5612 28.9978 14.5846 29.0134 14.6013L29.8063 15.4433C29.8219 15.4589 29.8286 15.4812 29.8264 15.5024C29.8219 15.5503 29.7751 15.5815 29.7293 15.5682L29.2231 15.4243C29.3167 15.7354 29.4104 16.0466 29.5041 16.3566C29.7204 17.0747 29.9356 17.7918 30.152 18.51C30.394 19.314 30.636 20.118 30.878 20.9221C31.0497 21.4919 31.2315 22.0595 31.3932 22.6327C31.5192 23.0832 31.7522 23.6353 32.2463 23.7769C32.5719 23.8694 32.9444 23.7769 33.1875 23.5405C33.4975 23.2394 33.512 22.8502 33.3982 22.4666C33.3447 22.2848 33.2901 22.103 33.2365 21.9212C33.0525 21.3012 32.8685 20.6801 32.6845 20.06C32.4604 19.3028 32.2362 18.5468 32.011 17.7896C31.8192 17.1439 31.6285 16.4982 31.4367 15.8525C31.2181 15.1143 31.0229 14.2422 30.4988 13.649" fill="#8A8C8E"/>
<path d="M18.5632 12.9463C18.6401 12.9675 18.7148 12.9965 18.7862 13.0322C19.2111 13.2463 19.4129 13.679 19.6382 14.0726C20.0497 14.7875 20.4601 15.5023 20.8771 16.2126C20.9652 16.3654 21.0645 16.5148 21.1437 16.6721C21.2061 16.797 21.263 16.9052 21.4147 16.9364C21.7157 16.9977 21.883 16.6509 22.0213 16.4468C22.5856 15.6127 23.1677 14.7908 23.752 13.9712C24.0286 13.5831 24.4724 12.6798 25.0958 13.0534C25.2653 13.1549 25.3601 13.3467 25.4192 13.5351C25.5764 14.0325 25.485 14.6458 25.4872 15.1622C25.4973 17.1538 25.4995 19.1455 25.4984 21.1372C25.4984 21.8933 25.4973 22.2479 25.4984 22.8033C25.4984 23.2281 25.3779 23.6329 24.9609 23.8292C24.633 23.9842 24.2159 23.9273 23.9416 23.6898C23.626 23.4177 23.6227 23.0776 23.6506 22.6995C23.6662 22.4899 23.6461 22.268 23.6461 22.0572C23.6461 20.6833 23.6383 18.8244 23.645 17.4505C23.645 17.3033 23.7275 16.9141 23.5613 16.8327C23.2915 16.7 22.8577 17.543 22.7395 17.7103C22.3715 18.2311 22.0358 18.8388 21.5975 19.3028C21.4938 19.4132 21.3589 19.4946 21.2128 19.5314C20.9474 19.5983 20.6296 19.528 20.4746 19.2972C19.975 18.5556 19.4943 17.8017 19.0059 17.0535C18.9658 16.9921 18.91 16.8449 18.8464 16.8115C18.8029 16.7892 18.745 16.7959 18.7115 16.8316C18.5899 17.0624 18.697 17.6144 18.697 17.8664V22.2133C18.697 22.6728 18.7795 23.1936 18.2855 23.4434C18.0156 23.5805 17.6655 23.5426 17.4324 23.3497C17.2261 23.1802 17.128 22.9103 17.1525 22.6482C17.1815 22.3204 17.1726 21.9892 17.1726 21.6591V15.693C17.1726 15.0663 17.109 14.3994 17.1815 13.776C17.2183 13.4604 17.4257 13.1716 17.7056 13.0233C17.9655 12.8861 18.2777 12.8672 18.5621 12.9463" fill="#00A8A5"/>
<path d="M18.6122 22.4643C18.5587 22.2825 18.5051 22.1007 18.4505 21.9201C18.2665 21.3001 18.0825 20.68 17.8985 20.06C17.6743 19.3039 17.4502 18.5478 17.226 17.7918C17.0342 17.1461 16.8435 16.5015 16.6517 15.857C16.4332 15.1187 16.238 14.2478 15.7139 13.6545C15.5422 13.4605 15.3358 13.2965 15.0827 13.1761C14.7225 13.0055 14.3088 12.9676 13.9174 13.0456C12.9293 13.243 12.4665 14.0136 12.1387 14.8143C11.803 15.635 11.4729 16.458 11.1328 17.2777C10.8027 18.075 10.4726 18.8712 10.1425 19.6686C10.0321 19.9362 9.92062 20.2039 9.81022 20.4715C9.64406 20.873 9.60168 21.3235 9.70651 21.7461C9.98418 22.8658 11.4094 23.5427 12.4621 23.6374C12.7119 23.6597 12.9639 23.6508 13.2103 23.6029C13.6765 23.5114 14.1014 23.217 14.4593 22.9137C14.7727 22.6494 15.1875 22.2 15.705 21.5655C15.7775 21.4763 15.8131 21.3625 15.8031 21.2477C15.7998 21.2064 15.7942 21.1618 15.7864 21.1138C15.773 21.0324 15.7328 20.9566 15.6726 20.9008C15.5009 20.7391 15.2333 20.7403 15.0626 20.9031C14.8284 21.1272 14.6177 21.3625 14.3378 21.5354C13.991 21.7506 13.5717 21.9167 13.1602 21.8777C12.7531 21.8387 12.3684 21.6848 12.0495 21.4294C11.6224 21.0893 11.396 20.5194 11.5075 19.9808C11.5621 19.7143 11.7082 19.4522 11.8175 19.2013C12.3628 17.9535 12.9104 16.7067 13.4557 15.4577C13.5616 15.2135 13.6765 14.7295 14.02 14.7429C14.3612 14.7563 14.4158 15.3551 14.4939 15.6127C14.5675 15.8558 14.64 16.0989 14.7158 16.3409C14.718 16.3476 14.7203 16.3543 14.7214 16.361C14.9366 17.0781 15.153 17.7951 15.3693 18.5133C15.6113 19.3162 15.8533 20.1202 16.0942 20.9231C16.2659 21.493 16.4477 22.0595 16.6082 22.6327C16.761 23.178 17.071 23.8727 17.8115 23.8047C18.0301 23.7846 18.242 23.6932 18.3992 23.5404C18.7103 23.2393 18.7248 22.849 18.6111 22.4654" fill="#EA8024"/>
<path d="M10.6824 14.7708C10.9612 15.1354 10.63 15.6294 10.1337 15.7142C10.0913 15.722 10.0501 15.7276 10.0099 15.7331C9.99989 15.7343 9.99096 15.7354 9.98093 15.7376C9.79916 15.761 9.61515 15.7242 9.45903 15.6361C9.13229 15.4521 8.80555 15.2681 8.4788 15.0841C8.0004 14.8143 7.56325 14.4987 6.98002 14.7518C6.59306 14.9202 6.32765 15.3094 6.32542 15.7108C6.32319 16.2305 6.72131 16.5361 7.12611 16.8149C7.63574 17.1661 8.13756 17.5286 8.62154 17.9111C9.18359 18.3527 9.69991 18.7987 10.1705 19.2504C10.185 19.2649 10.1995 19.2794 10.2129 19.295C10.5731 19.7277 10.8206 20.2061 10.7537 20.719C10.3835 23.5404 6.60533 25.2053 4.04938 22.2602C3.67245 21.8253 3.22192 21.1395 3.84865 20.7302C4.12186 20.5518 4.48094 20.5696 4.75416 20.7335C5.09205 20.9376 6.44586 21.8866 6.86962 22.0539C7.26551 22.2089 7.73387 22.2435 8.11526 22.0584C9.08768 21.5866 8.5446 20.4101 7.98925 19.8503C7.65916 19.518 7.25993 19.2548 6.86739 18.9894C6.12469 18.4876 5.46452 17.8899 4.83891 17.2632C4.404 16.7859 4.29694 16.1458 4.48875 15.5324C5.53254 12.1791 8.87915 12.4033 10.6824 14.7685" fill="white"/>
</svg>
