<svg width="131" height="50" viewBox="0 0 131 50" fill="none" xmlns="http://www.w3.org/2000/svg">
<path d="M117.908 4.20707C117.304 3.52021 116.593 2.92104 115.76 2.43391C113.432 1.08942 110.441 1.0748 108.005 2.20982C105.053 3.58354 103.465 6.38943 102.281 9.27813C100.81 12.8634 99.3682 16.4634 97.8873 20.0438C96.4454 23.5268 95.0035 27.0098 93.5567 30.4928C93.0744 31.6619 92.5873 32.831 92.105 34.0002C91.3792 35.7538 91.1941 37.7267 91.652 39.573C92.8649 44.4638 99.0954 47.4256 103.694 47.8396C104.785 47.937 105.886 47.8981 106.963 47.6886C109.004 47.2892 110.855 45.9983 112.423 44.6781C113.709 43.5918 114.849 42.3301 115.95 41.0685C116.851 40.0357 118.249 38.8764 118.308 37.3906C118.376 35.6856 116.32 34.6773 115.059 35.8854C114.036 36.8645 113.11 37.8924 111.892 38.6523C109.666 40.0309 106.851 40.5229 104.337 39.6071C101.833 38.6912 99.7822 36.543 99.4461 33.8443C99.3633 33.1818 99.3877 32.5095 99.5192 31.8568C99.7579 30.6876 100.396 29.5429 100.873 28.4517C102.179 25.4656 103.48 22.4746 104.785 19.4884C105.867 17.0089 106.948 14.5294 108.029 12.0499C108.102 11.8746 108.18 11.7041 108.258 11.5287L105.677 11.7625C105.467 11.782 105.297 11.6066 105.316 11.402C105.326 11.3046 105.375 11.2218 105.452 11.1633L109.54 8.19669C109.622 8.13824 109.676 8.04081 109.686 7.93851C109.744 7.21269 109.725 7.42215 109.832 6.54044C109.983 5.42491 110.436 4.55781 110.83 4.59191C111.225 4.63088 111.508 5.56617 111.449 6.69145C111.391 7.57804 111.41 7.37344 111.332 8.0944C111.322 8.19669 111.357 8.29899 111.425 8.37206L114.888 12.0499C114.956 12.1181 114.986 12.2155 114.976 12.3081C114.956 12.5176 114.752 12.654 114.552 12.5955L112.341 11.9671C112.75 13.3262 113.159 14.6853 113.568 16.0395C114.513 19.1767 115.453 22.309 116.398 25.4461C117.455 28.9583 118.513 32.4706 119.57 35.9828C120.32 38.472 121.114 40.9515 121.82 43.4554C122.371 45.4234 123.389 47.8347 125.547 48.4534C126.969 48.8577 128.596 48.4534 129.658 47.4207C131.012 46.1054 131.076 44.4053 130.579 42.7296C130.345 41.9356 130.106 41.1415 129.872 40.3475C129.069 37.639 128.265 34.9257 127.461 32.2172C126.482 28.9096 125.503 25.6068 124.519 22.2992C123.681 19.4787 122.848 16.6582 122.01 13.8377C121.055 10.6129 120.203 6.80349 117.913 4.21194" fill="#8A8C8E"/>
<path d="M65.7753 1.14307C66.1114 1.23562 66.4378 1.36228 66.7496 1.51816C68.6056 2.45346 69.4873 4.34354 70.4713 6.06312C72.2688 9.18564 74.0614 12.3082 75.8833 15.4112C76.2682 16.0786 76.7017 16.7313 77.0476 17.4182C77.3204 17.9638 77.5688 18.4363 78.2313 18.5727C79.5466 18.8406 80.2773 17.3256 80.8813 16.4342C83.3462 12.7904 85.889 9.20026 88.4416 5.61983C89.6497 3.9246 91.5885 -0.0211796 94.3116 1.61072C95.052 2.05401 95.4661 2.89188 95.7243 3.71513C96.4111 5.88775 96.0117 8.56698 96.0214 10.8224C96.0653 19.5226 96.075 28.2228 96.0701 36.923C96.0701 40.2258 96.0653 41.7749 96.0701 44.2008C96.0701 46.0568 95.544 47.8251 93.7222 48.6824C92.29 49.3595 90.4681 49.1111 89.2698 48.0735C87.8912 46.8849 87.8766 45.3991 87.9983 43.7478C88.0665 42.832 87.9788 41.8626 87.9788 40.9419C87.9788 34.9404 87.9447 26.8199 87.974 20.8184C87.974 20.1754 88.3345 18.4753 87.6086 18.1197C86.4298 17.54 84.5348 21.2227 84.0185 21.9534C82.4109 24.2283 80.9446 26.8832 79.0302 28.9097C78.5772 29.3919 77.9877 29.7475 77.3496 29.9083C76.1902 30.2006 74.8019 29.8937 74.1248 28.8853C71.9424 25.6459 69.8429 22.3529 67.7092 19.0842C67.5339 18.8163 67.2903 18.1733 67.0126 18.0271C66.8226 17.9297 66.5693 17.9589 66.4232 18.1148C65.8922 19.1232 66.3599 21.5345 66.3599 22.6354V41.6239C66.3599 43.6308 66.7204 45.9058 64.5623 46.9969C63.3835 47.5961 61.8539 47.4305 60.8358 46.5877C59.9346 45.8473 59.5059 44.6684 59.6131 43.5237C59.7397 42.0915 59.7008 40.6447 59.7008 39.2028V13.1412C59.7008 10.4035 59.4231 7.49042 59.7397 4.76734C59.9005 3.38875 60.8065 2.12708 62.0293 1.47919C63.1643 0.880017 64.5282 0.797205 65.7704 1.14307" fill="#00A8A5"/>
<path d="M65.9898 42.72C65.7559 41.9259 65.5221 41.1319 65.2834 40.3428C64.4796 37.6343 63.6759 34.9258 62.8721 32.2174C61.893 28.9146 60.9138 25.6118 59.9347 22.3091C59.0968 19.4886 58.2638 16.6729 57.426 13.8573C56.4712 10.6325 55.6187 6.82797 53.3292 4.23642C52.579 3.38881 51.6778 2.67272 50.572 2.14662C48.9985 1.40131 47.1913 1.23568 45.4814 1.57667C41.1654 2.4389 39.1438 5.80499 37.7117 9.30261C36.2454 12.8879 34.8035 16.483 33.3177 20.0634C31.8758 23.5464 30.4339 27.0245 28.992 30.5075C28.5097 31.6766 28.0226 32.8458 27.5403 34.0149C26.8145 35.7686 26.6294 37.7366 27.0873 39.5828C28.3002 44.4736 34.5258 47.4305 39.1243 47.8446C40.2155 47.942 41.3164 47.9031 42.393 47.6936C44.4292 47.2942 46.2852 46.0081 47.8489 44.6831C49.2178 43.5286 51.0299 41.5655 53.2902 38.7937C53.6068 38.404 53.7627 37.9071 53.7189 37.4053C53.7043 37.2251 53.6799 37.0303 53.6458 36.8208C53.5873 36.4652 53.412 36.1339 53.1489 35.8904C52.3987 35.184 51.2296 35.1889 50.4843 35.9001C49.4613 36.8792 48.5406 37.9071 47.3179 38.6621C45.8029 39.6023 43.9713 40.3281 42.1738 40.1576C40.3958 39.9871 38.7152 39.3149 37.322 38.1994C35.4562 36.7136 34.4674 34.2244 34.9545 31.8715C35.1932 30.7073 35.8313 29.5625 36.3087 28.4664C38.6908 23.0154 41.0826 17.5693 43.4647 12.1134C43.9275 11.0465 44.4292 8.93239 45.9296 8.99085C47.4202 9.0493 47.6589 11.6652 47.9999 12.7905C48.3214 13.8524 48.6381 14.9144 48.9693 15.9715C48.9791 16.0007 48.9888 16.0299 48.9937 16.0592C49.9338 19.1914 50.8789 22.3237 51.8239 25.4608C52.881 28.9682 53.9381 32.4804 54.9903 35.9878C55.7405 38.477 56.5345 40.9517 57.236 43.4555C57.9033 45.8376 59.2576 48.8725 62.4921 48.5753C63.4469 48.4876 64.3725 48.0882 65.0593 47.4208C66.4184 46.1055 66.4818 44.4006 65.9849 42.7248" fill="#EA8024"/>
<path d="M31.3497 9.11264C32.5675 10.7056 31.1207 12.8636 28.953 13.2338C28.7679 13.2679 28.5876 13.2922 28.4123 13.3166C28.3684 13.3215 28.3295 13.3263 28.2856 13.3361C27.4916 13.4384 26.6878 13.2776 26.0058 12.8928C24.5785 12.089 23.1512 11.2853 21.7239 10.4815C19.6341 9.30263 17.7246 7.92404 15.1769 9.02983C13.4865 9.7654 12.3271 11.4655 12.3174 13.2192C12.3076 15.4892 14.0467 16.824 15.815 18.0418C18.0412 19.5763 20.2333 21.1595 22.3475 22.8303C24.8026 24.7594 27.058 26.7079 29.1137 28.6808C29.1771 28.7441 29.2404 28.8074 29.2989 28.8756C30.8723 30.7657 31.9537 32.8555 31.6615 35.0963C30.0442 47.4208 13.5401 54.6937 2.37499 41.8285C0.728479 39.9287 -1.23954 36.9328 1.49815 35.1451C2.69163 34.3656 4.2602 34.4436 5.45367 35.1597C6.92969 36.0511 12.8435 40.1966 14.6946 40.9273C16.4239 41.6044 18.4699 41.7555 20.1359 40.9468C24.3837 38.8862 22.0113 33.747 19.5854 31.3016C18.1435 29.8499 16.3996 28.7003 14.6849 27.5409C11.4405 25.3488 8.55671 22.7378 5.8239 20.0001C3.92407 17.9151 3.45643 15.119 4.2943 12.4398C8.85387 -2.20834 23.4727 -1.2292 31.3497 9.1029" fill="#00417E"/>
</svg>
