<svg width="173" height="65" viewBox="0 0 173 65" fill="none" xmlns="http://www.w3.org/2000/svg">
<path d="M155.455 5.01203C154.66 4.10832 153.724 3.31998 152.628 2.67905C149.565 0.91008 145.629 0.890852 142.425 2.38422C138.541 4.19164 136.451 7.8834 134.894 11.6841C132.958 16.4014 131.061 21.1378 129.113 25.8487C127.215 30.4313 125.318 35.014 123.415 39.5966C122.78 41.1349 122.139 42.6731 121.505 44.2113C120.55 46.5187 120.306 49.1145 120.909 51.5436C122.505 57.9785 130.702 61.8754 136.752 62.4202C138.188 62.5484 139.637 62.4971 141.053 62.2215C143.739 61.6959 146.174 59.9975 148.238 58.2605C149.93 56.8313 151.43 55.1713 152.878 53.5112C154.064 52.1525 155.904 50.6271 155.98 48.6722C156.07 46.429 153.365 45.1022 151.705 46.6917C150.359 47.98 149.142 49.3324 147.539 50.3322C144.61 52.1461 140.906 52.7934 137.599 51.5885C134.304 50.3835 131.606 47.557 131.164 44.0063C131.055 43.1346 131.087 42.2501 131.26 41.3913C131.574 39.853 132.413 38.3468 133.042 36.9111C134.759 32.9822 136.47 29.0469 138.188 25.118C139.611 21.8557 141.034 18.5934 142.457 15.331C142.553 15.1003 142.655 14.876 142.758 14.6452L139.361 14.9529C139.085 14.9785 138.861 14.7478 138.887 14.4786C138.9 14.3504 138.964 14.2414 139.066 14.1645L144.444 10.2613C144.553 10.1843 144.623 10.0562 144.636 9.92156C144.713 8.96658 144.687 9.24218 144.828 8.08209C145.027 6.61436 145.623 5.47351 146.142 5.51837C146.661 5.56964 147.033 6.80023 146.956 8.28078C146.879 9.44727 146.905 9.17808 146.802 10.1267C146.789 10.2613 146.834 10.3959 146.924 10.492L151.481 15.331C151.571 15.4207 151.609 15.5489 151.596 15.6707C151.571 15.9463 151.302 16.1258 151.039 16.0489L148.129 15.2221C148.667 17.0103 149.206 18.7985 149.744 20.5802C150.988 24.7078 152.225 28.829 153.468 32.9566C154.859 37.5777 156.25 42.1988 157.64 46.8199C158.627 50.0951 159.672 53.3574 160.602 56.6518C161.326 59.2412 162.665 62.4138 165.505 63.2278C167.376 63.7597 169.517 63.2278 170.914 61.869C172.696 60.1385 172.779 57.9016 172.125 55.6968C171.818 54.6521 171.504 53.6074 171.196 52.5627C170.139 48.9991 169.081 45.4291 168.024 41.8655C166.735 37.5136 165.447 33.1681 164.152 28.8162C163.05 25.1052 161.954 21.3942 160.851 17.6832C159.595 13.4403 158.474 8.42819 155.461 5.01844" fill="white"/>
<path d="M86.8623 0.980625C87.3045 1.1024 87.7339 1.26904 88.1441 1.47414C90.5861 2.70473 91.7461 5.19154 93.0408 7.45402C95.4059 11.5624 97.7645 15.6708 100.162 19.7535C100.668 20.6316 101.238 21.4904 101.693 22.3941C102.052 23.112 102.379 23.7337 103.251 23.9131C104.981 24.2656 105.943 22.2723 106.738 21.0994C109.981 16.3053 113.326 11.5816 116.685 6.87078C118.274 4.64034 120.825 -0.551199 124.408 1.59592C125.382 2.17917 125.927 3.28157 126.267 4.36474C127.17 7.22329 126.645 10.7484 126.658 13.7159C126.715 25.1629 126.728 36.61 126.722 48.057C126.722 52.4025 126.715 54.4406 126.722 57.6325C126.722 60.0744 126.03 62.401 123.632 63.529C121.748 64.4199 119.351 64.0931 117.774 62.7279C115.961 61.164 115.941 59.2092 116.102 57.0364C116.191 55.8315 116.076 54.556 116.076 53.3447C116.076 45.4484 116.031 34.7641 116.069 26.8678C116.069 26.0218 116.544 23.7849 115.589 23.3171C114.038 22.5543 111.544 27.3998 110.865 28.3612C108.75 31.3543 106.821 34.8474 104.302 37.5137C103.706 38.1482 102.93 38.6161 102.091 38.8276C100.565 39.2121 98.7387 38.8083 97.8478 37.4816C94.9764 33.2194 92.214 28.8867 89.4068 24.5861C89.176 24.2336 88.8556 23.3876 88.4902 23.1953C88.2403 23.0671 87.907 23.1055 87.7147 23.3106C87.0161 24.6374 87.6314 27.81 87.6314 29.2585V54.242C87.6314 56.8826 88.1057 59.8757 85.2663 61.3114C83.7153 62.0998 81.7028 61.8818 80.3632 60.773C79.1775 59.7988 78.6135 58.2478 78.7545 56.7416C78.9211 54.8572 78.8699 52.9537 78.8699 51.0565V16.7667C78.8699 13.1647 78.5045 9.33195 78.9211 5.74915C79.1326 3.93532 80.3248 2.27531 81.9335 1.42287C83.4269 0.634523 85.2215 0.525565 86.8559 0.980625" fill="white"/>
<path d="M87.1444 55.6841C86.8368 54.6393 86.5291 53.5946 86.2151 52.5563C85.1575 48.9927 84.1 45.4292 83.0425 41.8656C81.7542 37.5201 80.4659 33.1746 79.1777 28.8291C78.0753 25.1181 76.9793 21.4135 75.8769 17.7089C74.6206 13.466 73.499 8.4603 70.4866 5.05055C69.4996 3.93533 68.3139 2.99316 66.859 2.30096C64.7888 1.32034 62.4109 1.10242 60.1613 1.55107C54.4826 2.68552 51.8227 7.11435 49.9384 11.7162C48.0092 16.4335 46.1121 21.1635 44.1572 25.8744C42.2601 30.457 40.3629 35.0333 38.4658 39.6159C37.8312 41.1542 37.1903 42.6924 36.5558 44.2306C35.6008 46.538 35.3572 49.1273 35.9597 51.5565C37.5556 57.9914 45.7467 61.8819 51.7971 62.4267C53.2328 62.5548 54.6813 62.5036 56.0978 62.228C58.7768 61.7024 61.2188 60.0103 63.2762 58.267C65.0772 56.748 67.4614 54.1651 70.4354 50.5182C70.852 50.0054 71.0571 49.3517 70.9994 48.6915C70.9802 48.4544 70.9481 48.198 70.9032 47.9224C70.8263 47.4545 70.5956 47.0187 70.2495 46.6982C69.2625 45.7689 67.7242 45.7753 66.7436 46.711C65.3977 47.9993 64.1863 49.3517 62.5776 50.3451C60.5843 51.5821 58.1744 52.5371 55.8093 52.3128C53.4699 52.0884 51.2587 51.204 49.4257 49.7362C46.9709 47.7814 45.6698 44.5062 46.3107 41.4105C46.6248 39.8787 47.4644 38.3725 48.0925 36.9304C51.2267 29.7584 54.3736 22.5928 57.5078 15.4144C58.1167 14.0108 58.7768 11.2291 60.7509 11.306C62.7122 11.3829 63.0262 14.8247 63.4749 16.3053C63.8979 17.7025 64.3145 19.0997 64.7503 20.4906C64.7631 20.529 64.7759 20.5675 64.7824 20.6059C66.0194 24.7271 67.2628 28.8483 68.5062 32.9759C69.897 37.5906 71.2878 42.2117 72.6722 46.8264C73.6592 50.1016 74.704 53.3575 75.6269 56.6519C76.505 59.786 78.2868 63.779 82.5425 63.3881C83.7988 63.2727 85.0165 62.7471 85.9202 61.869C87.7084 60.1385 87.7918 57.8953 87.138 55.6905" fill="white"/>
<path d="M41.5678 11.4662C43.1701 13.562 41.2666 16.4013 38.4144 16.8885C38.1709 16.9333 37.9337 16.9654 37.703 16.9974C37.6453 17.0038 37.594 17.0102 37.5364 17.0231C36.4916 17.1576 35.4341 16.9461 34.5368 16.4398C32.6589 15.3823 30.7809 14.3247 28.903 13.2672C26.1534 11.7161 23.641 9.90231 20.2889 11.3572C18.0649 12.325 16.5395 14.5619 16.5266 16.8692C16.5138 19.856 18.802 21.6121 21.1285 23.2144C24.0576 25.2334 26.9418 27.3164 29.7234 29.5148C32.9537 32.0529 35.9212 34.6166 38.6259 37.2124C38.7093 37.2957 38.7926 37.379 38.8695 37.4687C40.9397 39.9555 42.3626 42.7051 41.978 45.6534C39.8501 61.869 18.1354 71.4381 3.44526 54.5111C1.27891 52.0114 -1.31045 48.0697 2.29158 45.7175C3.86186 44.692 5.92566 44.7946 7.49594 45.7367C9.43796 46.9096 17.2189 52.364 19.6544 53.3254C21.9297 54.2162 24.6216 54.4149 26.8136 53.351C32.4025 50.6399 29.2812 43.878 26.0893 40.6606C24.1922 38.7506 21.8976 37.238 19.6416 35.7126C15.373 32.8284 11.5787 29.393 7.98305 25.791C5.48342 23.0478 4.86812 19.3689 5.97052 15.8437C11.9696 -3.42904 31.204 -2.14077 41.5678 11.4534" fill="white"/>
</svg>
