<svg xmlns="http://www.w3.org/2000/svg" width="369.434" height="136.033" viewBox="0 0 369.434 136.033">
    <path id="Path_1246"  d="M333,9.3a21.233,21.233,0,0,0-6.1-5A24.145,24.145,0,0,0,305,3.6c-8.3,3.9-12.8,11.8-16.1,20-4.2,10.2-8.3,20.3-12.5,30.4L264.2,83.6q-2.1,4.9-4.1,9.9a25.185,25.185,0,0,0-1.3,15.8c3.4,13.8,21,22.1,34,23.3a32.291,32.291,0,0,0,9.3-.4c5.8-1.1,11-4.8,15.4-8.5a96.127,96.127,0,0,0,10-10.2c2.5-3,6.5-6.2,6.7-10.4.1-4.8-5.7-7.7-9.2-4.3-2.9,2.8-5.5,5.7-9,7.8-6.3,3.9-14.2,5.3-21.3,2.7-7.1-2.5-12.9-8.6-13.9-16.3a17.761,17.761,0,0,1,.3-5.6c.6-3.3,2.4-6.5,3.8-9.6q5.5-12.7,11-25.3,4.6-10.5,9.2-21.1a13.7,13.7,0,0,1,.7-1.4l-7.3.6a.972.972,0,0,1-1.1-1,1.612,1.612,0,0,1,.4-.7l11.6-8.3a1.234,1.234,0,0,0,.4-.8,34.323,34.323,0,0,1,.4-3.9c.4-3.2,1.7-5.6,2.8-5.5s1.9,2.7,1.8,5.9a38.5,38.5,0,0,1-.4,4,1.33,1.33,0,0,0,.3.8l9.8,10.3a.778.778,0,0,1,.2.8.881.881,0,0,1-1.2.8l-6.2-1.8q1.7,5.8,3.5,11.5l8,26.6q4.4,14.9,8.9,29.8c2.1,7,4.4,14,6.4,21.1,1.5,5.6,4.4,12.4,10.5,14.1a12.084,12.084,0,0,0,11.6-2.9c3.8-3.7,4-8.5,2.6-13.3q-1-3.3-2-6.7l-6.8-23q-4.1-14-8.3-28-3.5-11.9-7.1-23.9c-2.7-9.1-5.1-19.9-11.6-27.2Z" transform="translate(-0.163 -0.029)" fill="#909195"/>
    <path id="Path_1247"  d="M185.7.6a13.508,13.508,0,0,1,2.7,1.1c5.3,2.6,7.8,8,10.6,12.8,5,8.9,10.1,17.7,15.3,26.5,1.1,1.8,2.3,3.7,3.3,5.6.7,1.6,1.4,2.9,3.3,3.3,3.7.7,5.8-3.5,7.5-6.1,7-10.3,14.1-20.4,21.4-30.5,3.4-4.8,8.9-16,16.6-11.4,2.1,1.3,3.2,3.7,4,6,1.9,6.1.8,13.7.8,20.1q.15,36.9.1,73.7v20.6c0,5.3-1.5,10.2-6.6,12.7a12.018,12.018,0,0,1-12.6-1.7c-3.9-3.4-3.9-7.6-3.6-12.3.2-2.6,0-5.3,0-7.9,0-17-.1-39.9,0-56.9,0-1.8,1-6.6-1.1-7.6-3.3-1.6-8.7,8.8-10.1,10.8-4.6,6.5-8.7,14-14.1,19.7a9.434,9.434,0,0,1-4.8,2.8c-3.2.8-7.2,0-9.1-2.9-6.2-9.1-12.1-18.4-18.1-27.7-.5-.7-1.2-2.5-2-3a1.567,1.567,0,0,0-1.7.3c-1.4,2.8-.1,9.7-.1,12.8V115c0,5.7,1,12.1-5.1,15.2a9.668,9.668,0,0,1-14-9.8c.4-4,.2-8.1.2-12.2V34.5c0-7.7-.7-15.9.1-23.6a12.658,12.658,0,0,1,6.5-9.3,14.421,14.421,0,0,1,10.6-1Z" transform="translate(-0.163 -0.029)" fill="#28b0a9"/>
    <path id="Path_1248"  d="M184.3,118.1q-1-3.3-2-6.7-3.4-11.5-6.8-22.9-4.2-14.1-8.3-28.1-3.6-11.9-7.1-23.9c-2.7-9.1-5.1-19.8-11.6-27.1a23.569,23.569,0,0,0-7.8-6,23.609,23.609,0,0,0-14.4-1.6c-12.2,2.5-17.9,12-21.9,21.9C100.2,33.8,96.2,44,92,54.1Q85.9,68.8,79.7,83.6q-2,5-4.1,9.9a25.881,25.881,0,0,0-1.2,15.8c3.4,13.8,21,22.1,34,23.3a31.455,31.455,0,0,0,9.2-.4c5.8-1.2,11-4.8,15.4-8.5q5.8-4.9,15.4-16.7a5.512,5.512,0,0,0,1.2-3.9,7.85,7.85,0,0,0-.2-1.7,3.973,3.973,0,0,0-1.4-2.6,5.437,5.437,0,0,0-7.5,0c-2.9,2.8-5.5,5.7-9,7.8-4.2,2.7-9.4,4.8-14.5,4.3a25.591,25.591,0,0,1-13.7-5.6,18.368,18.368,0,0,1-6.7-17.9c.7-3.2,2.5-6.5,3.8-9.6,6.7-15.4,13.5-30.8,20.2-46.2,1.4-3,2.8-9,7-8.8,4.2.1,4.9,7.5,5.9,10.7q1.3,4.5,2.7,9a.768.768,0,0,0,.1.3q4,13.3,8,26.5,4.4,14.9,8.9,29.8c2.1,7,4.4,14,6.4,21.1,1.8,6.7,5.7,15.3,14.8,14.5a12.578,12.578,0,0,0,7.3-3.3c3.8-3.7,4-8.5,2.6-13.3Z" transform="translate(-0.163 -0.029)" fill="#fc7b25"/>
    <path id="Path_1249" d="M88.4,23.1c3.4,4.5-.7,10.6-6.8,11.7q-.8.1-1.5.2a.888.888,0,0,1-.4.1,10.2,10.2,0,0,1-6.4-1.3Q67.2,30.4,61.2,27c-5.9-3.3-11.3-7.2-18.5-4.1a13.382,13.382,0,0,0-8.1,11.9c0,6.4,4.9,10.1,9.9,13.6,6.3,4.3,12.5,8.8,18.4,13.5q10.4,8.2,19.2,16.5a3.972,3.972,0,0,0,.5.6c4.4,5.3,7.5,11.3,6.7,17.6C84.7,131.4,38,152,6.5,115.6,1.8,110.3-3.7,101.8,4,96.7a10.744,10.744,0,0,1,11.2.1c4.2,2.5,20.9,14.2,26.1,16.3,4.9,1.9,10.7,2.3,15.4,0,12-5.8,5.3-20.3-1.6-27.2-4-4.1-9-7.4-13.8-10.6-9.2-6.2-17.3-13.6-25-21.4-5.4-5.8-6.7-13.7-4.4-21.3C24.8-8.8,66.1-6.1,88.4,23.1Z" transform="translate(-0.163 -0.029)" fill="#043c7c"/>
</svg>
