<svg width="16" height="16" viewBox="0 0 16 16" fill="none" xmlns="http://www.w3.org/2000/svg">
<g clip-path="url(#clip0_1_1790)">
<path d="M9.54167 7.75004C9.54167 8.46046 8.96042 9.04171 8.25 9.04171C7.53958 9.04171 6.95833 8.46046 6.95833 7.75004C6.95833 7.03962 7.53958 6.45837 8.25 6.45837C8.96042 6.45837 9.54167 7.03962 9.54167 7.75004ZM16 5.81254V9.68754C16 11.47 14.5533 12.9167 12.7708 12.9167H3.72917C1.94667 12.9167 0.5 11.47 0.5 9.68754V5.81254C0.5 4.03004 1.94667 2.58337 3.72917 2.58337H12.7708C14.5533 2.58337 16 4.03004 16 5.81254ZM10.8333 7.75004C10.8333 6.32275 9.67729 5.16671 8.25 5.16671C6.82271 5.16671 5.66667 6.32275 5.66667 7.75004C5.66667 9.17733 6.82271 10.3334 8.25 10.3334C9.67729 10.3334 10.8333 9.17733 10.8333 7.75004Z" fill="#00A8A5"/>
</g>
<defs>
<clipPath id="clip0_1_1790">
<rect width="15.5" height="15.5" fill="white" transform="translate(0.5)"/>
</clipPath>
</defs>
</svg>
