<svg width="30" height="31" viewBox="0 0 30 31" fill="none" xmlns="http://www.w3.org/2000/svg">
<path d="M29.2405 20.7707L25.9905 9.05697C25.2965 6.55125 23.7843 4.34965 21.6946 2.80258C19.6049 1.25551 17.0578 0.451878 14.4586 0.519578C11.8594 0.587277 9.35758 1.52242 7.35124 3.17618C5.34491 4.82993 3.94938 7.10727 3.38676 9.64572L0.873014 20.9582C0.75138 21.5063 0.754347 22.0746 0.881696 22.6214C1.00905 23.1682 1.25753 23.6793 1.60881 24.1172C1.96009 24.5551 2.40521 24.9086 2.91132 25.1515C3.41743 25.3944 3.97163 25.5206 4.53301 25.5207H9.04176C9.32866 26.9336 10.0952 28.2038 11.2114 29.1162C12.3277 30.0286 13.7251 30.527 15.1668 30.527C16.6085 30.527 18.0058 30.0286 19.1221 29.1162C20.2384 28.2038 21.0049 26.9336 21.2918 25.5207H25.6293C26.2069 25.5205 26.7767 25.3868 27.2941 25.13C27.8116 24.8733 28.2627 24.5006 28.6124 24.0408C28.9621 23.581 29.2008 23.0467 29.31 22.4794C29.4191 21.9122 29.3946 21.3274 29.2405 20.7707ZM15.1668 28.0207C14.3939 28.0175 13.641 27.7756 13.0109 27.3281C12.3808 26.8806 11.9044 26.2494 11.6468 25.5207H18.6868C18.4292 26.2494 17.9527 26.8806 17.3226 27.3281C16.6926 27.7756 15.9396 28.0175 15.1668 28.0207ZM26.623 22.527C26.5064 22.6816 26.3552 22.8067 26.1816 22.8925C26.008 22.9782 25.8167 23.0221 25.623 23.0207H4.53301C4.34584 23.0207 4.16106 22.9786 3.99232 22.8976C3.82358 22.8166 3.67518 22.6988 3.55808 22.5528C3.44098 22.4067 3.35816 22.2363 3.31575 22.054C3.27333 21.8717 3.2724 21.6822 3.31301 21.4995L5.82676 10.187C6.26971 8.19473 7.3659 6.40773 8.94108 5.11003C10.5163 3.81234 12.48 3.07844 14.5202 3.02499C16.5604 2.97154 18.5599 3.60162 20.2009 4.81506C21.8419 6.0285 23.0301 7.75566 23.5768 9.72197L26.8268 21.4357C26.8798 21.621 26.889 21.816 26.8537 22.0054C26.8183 22.1948 26.7393 22.3734 26.623 22.527Z" fill="#CCCCCF"/>
</svg>
