<svg width="16" height="17" viewBox="0 0 16 17" fill="none" xmlns="http://www.w3.org/2000/svg">
<g clip-path="url(#clip0_1_1175)">
<path d="M4.25546 12.375C3.51081 12.375 2.76746 12.147 2.13842 11.6994L0.798312 10.7462C0.508979 10.5408 0.313938 10.2218 0.263562 9.87238C0.215771 9.54365 0.298437 9.22396 0.496708 8.97079C0.83125 8.54325 1.39377 8.37985 1.89752 8.56392L3.99454 9.33375L13.4592 4.77352C14.2678 4.39958 15.2269 4.75415 15.6002 5.56144C15.9735 6.36744 15.6247 7.33425 14.8232 7.71723L5.8145 12.023C5.32044 12.2587 4.78827 12.375 4.25546 12.375ZM15.75 15.6041C15.75 15.247 15.4607 14.9583 15.1042 14.9583H0.895833C0.539333 14.9583 0.25 15.247 0.25 15.6041C0.25 15.9613 0.539333 16.25 0.895833 16.25H15.1042C15.4607 16.25 15.75 15.9613 15.75 15.6041ZM5.81321 7.02425L9.31298 5.33798L5.5355 3.00523C5.06146 2.65325 4.43306 2.58867 3.89379 2.83731L3.3894 3.07433C3.0936 3.21319 2.88952 3.4896 2.84302 3.81317C2.79652 4.13737 2.91471 4.45965 3.15948 4.67665L5.81256 7.0249L5.81321 7.02425Z" fill="#00A8A5"/>
</g>
<defs>
<clipPath id="clip0_1_1175">
<rect width="15.5" height="15.5" fill="white" transform="translate(0.25 0.75)"/>
</clipPath>
</defs>
</svg>
