<svg xmlns="http://www.w3.org/2000/svg" width="275.544" height="259" viewBox="0 0 275.544 259">
  <g id="Empty-pana" transform="translate(-22.926 -41.247)">
    <g id="freepik--background-complete--inject-4" transform="translate(22.926 41.247)">
      <rect id="Rectangle_27055" data-name="Rectangle 27055" width="63.34" height="48.854" transform="translate(87.626 205.256)" fill="#efeaf1"/>
      <path id="Path_34882" data-name="Path 34882" d="M244.968,427.173c-.085,0-.158-10.892-.158-24.326s.073-24.326.158-24.326.158,10.892.158,24.326S245.053,427.173,244.968,427.173Z" transform="translate(-109.869 -173.404)" fill="#e0e0e0"/>
      <rect id="Rectangle_27056" data-name="Rectangle 27056" width="4.853" height="5.492" transform="translate(140.743 242.993)" fill="#fafafa"/>
      <rect id="Rectangle_27057" data-name="Rectangle 27057" width="7.195" height="10.424" transform="translate(106.954 205.384)" fill="#5e2d77" opacity="0.1"/>
      <rect id="Rectangle_27058" data-name="Rectangle 27058" width="7.195" height="10.424" transform="translate(106.954 243.54)" fill="#5e2d77" opacity="0.1"/>
      <rect id="Rectangle_27059" data-name="Rectangle 27059" width="79.87" height="61.601" transform="translate(186.033 193.008)" fill="#efeaf1"/>
      <path id="Path_34883" data-name="Path 34883" d="M427.138,419.667c-.085,0-.158-13.726-.158-30.663s.073-30.664.158-30.664.158,13.726.158,30.664S427.229,419.667,427.138,419.667Z" transform="translate(-181.25 -165.496)" fill="#e0e0e0"/>
      <rect id="Rectangle_27060" data-name="Rectangle 27060" width="6.124" height="6.921" transform="translate(253.004 240.584)" fill="#fafafa"/>
      <rect id="Rectangle_27061" data-name="Rectangle 27061" width="9.074" height="13.142" transform="translate(210.396 193.166)" fill="#5e2d77" opacity="0.1"/>
      <rect id="Rectangle_27062" data-name="Rectangle 27062" width="9.074" height="13.142" transform="translate(210.396 241.278)" fill="#5e2d77" opacity="0.1"/>
      <path id="Path_34884" data-name="Path 34884" d="M78.967,360.565A17.132,17.132,0,0,1,89.6,359.276a8.818,8.818,0,0,1,5.248,2.341c1.314,1.447,1.557,4,.055,5.242a5.039,5.039,0,0,1-3.314.839c-2.81-.036-5.923-.529-8.168,1.162-1.283.967-2.135,2.566-3.649,3.041a3.588,3.588,0,0,1-3.977-1.77,6.173,6.173,0,0,1-.45-4.567,6.963,6.963,0,0,1,3.625-5Z" transform="translate(-43.369 -165.745)" fill="#efeaf1"/>
      <path id="Path_34885" data-name="Path 34885" d="M68.081,319.21c1.977,2.822,5.82,1.891,7.6.164s2.536-4.221,3.217-6.6c1.569-5.443,3.144-11.154,1.983-16.694a9.238,9.238,0,0,0-2.135-4.537,4.865,4.865,0,0,0-4.586-1.526c-1.94.511-3.144,2.433-4.014,4.215A39.707,39.707,0,0,0,66.22,311.3c0,2.755.31,5.638,1.861,7.906" transform="translate(-39.89 -138.688)" fill="#efeaf1"/>
      <path id="Path_34886" data-name="Path 34886" d="M45.692,329.106a10.267,10.267,0,0,0,1.6-9.451,18.235,18.235,0,0,0-5.6-8.125,30.165,30.165,0,0,0-10.023-5.911,10.691,10.691,0,0,0-4.513-.766,4.725,4.725,0,0,0-3.783,2.287c-1.058,2.013-.043,4.452,1.052,6.447A76.547,76.547,0,0,0,31,323.614c1.977,2.542,4.257,5.054,7.243,6.2s6.136,1.016,7.73-1.07" transform="translate(-22.926 -144.533)" fill="#efeaf1"/>
      <path id="Path_34887" data-name="Path 34887" d="M69.038,391.369a6.124,6.124,0,0,0,.182-1.277c.091-.937.2-2.11.341-3.5a51.085,51.085,0,0,1,.785-5.133,39.3,39.3,0,0,1,1.867-6.082,22.5,22.5,0,0,1,3.1-5.473,11.689,11.689,0,0,1,3.91-3.254,11.007,11.007,0,0,1,3.3-1.022,6.01,6.01,0,0,0,1.277-.189,5.909,5.909,0,0,0-1.3,0,9.956,9.956,0,0,0-3.436.894,11.519,11.519,0,0,0-4.129,3.284A21.693,21.693,0,0,0,71.72,375.2a37.188,37.188,0,0,0-1.824,6.161,44.607,44.607,0,0,0-.687,5.2c-.109,1.49-.152,2.694-.17,3.527a6.082,6.082,0,0,0,0,1.277Z" transform="translate(-40.981 -168.263)" fill="#5e2d77" opacity="0.2"/>
      <path id="Path_34888" data-name="Path 34888" d="M69.292,366.373a2.585,2.585,0,0,0,.036-.608v-1.7c0-1.478,0-3.619.073-6.258.134-5.279.608-10.947,1.466-18.969.833-7.535,1.946-16.3,3.126-22,.249-1.3.5-2.463.748-3.485s.42-1.91.608-2.621.292-1.216.4-1.654a2.492,2.492,0,0,0,.1-.608,2.432,2.432,0,0,0-.207.56c-.134.432-.3.967-.5,1.63s-.444,1.587-.7,2.6-.547,2.183-.821,3.479a192.787,192.787,0,0,0-3.29,20.41c-.876,8.028-1.271,15.338-1.308,20.629,0,2.646,0,4.792.091,6.27.043.687.079,1.253.1,1.7a2.621,2.621,0,0,0,.067.626Z" transform="translate(-40.991 -145.955)" fill="#5e2d77" opacity="0.2"/>
      <path id="Path_34889" data-name="Path 34889" d="M57.375,355.074a11.433,11.433,0,0,0,0-1.782c-.067-1.143-.225-2.791-.547-4.817a63.383,63.383,0,0,0-1.593-7.018,57.975,57.975,0,0,0-2.937-8.307,44.165,44.165,0,0,0-8.618-13.416,21.342,21.342,0,0,0-2.031-1.885c-.31-.268-.608-.529-.864-.736l-.754-.541a10.776,10.776,0,0,0-1.5-.961,53.48,53.48,0,0,1,4.908,4.379,46.586,46.586,0,0,1,8.4,13.38,64.551,64.551,0,0,1,2.95,8.228q1,3.429,1.66,6.945c.365,2,.608,3.649.705,4.768A11.165,11.165,0,0,0,57.375,355.074Z" transform="translate(-29.039 -148.753)" fill="#5e2d77" opacity="0.2"/>
      <path id="Path_34890" data-name="Path 34890" d="M45.56,417.86l1.411,19.358H71.839L73.25,417.86Z" transform="translate(-31.795 -188.819)" fill="#efeaf1"/>
      <rect id="Rectangle_27063" data-name="Rectangle 27063" width="33.054" height="7.626" transform="translate(11.363 221.415)" fill="#efeaf1"/>
      <path id="Path_34891" data-name="Path 34891" d="M41.61,448.47v2.11H74.122v-2.11Z" transform="translate(-30.247 -200.813)" fill="#dfd5e4"/>
      <path id="Path_34892" data-name="Path 34892" d="M45.69,455.282l-1.52-3.722H73.94l-1.776,3.722Z" transform="translate(-31.25 -202.024)" fill="#dfd5e4"/>
      <path id="Path_34893" data-name="Path 34893" d="M73.058,426.516a.9.9,0,0,1-.116.182c-.1.128-.225.292-.371.493l-1.447,1.824-.067.085L71,429.016l-3.558-4.92h.2l-3.5,4.956-.109.158-.122-.146-4.154-4.944h.237l-.225.292-3.716,4.652-.128.158-.109-.164L52.3,424.1h.207l-4.318,4.914-.073.091-.061-.1-1.35-2.238c-.146-.243-.255-.444-.347-.608a.941.941,0,0,1-.109-.219.936.936,0,0,1,.146.195l.383.578,1.417,2.232h-.134l4.257-4.975.1-.128.1.134,3.54,4.938h-.231l3.7-4.665c.079-.1.158-.195.225-.286l.122-.152.122.146,4.142,4.957h-.231l3.539-4.932.1-.146.1.146c1.4,2,2.6,3.7,3.485,4.975h-.128l1.508-1.824c.164-.189.3-.341.4-.468a1.374,1.374,0,0,1,.14-.146Z" transform="translate(-32.065 -191.15)" fill="#fff"/>
      <path id="Path_34894" data-name="Path 34894" d="M73.729,417.552c0,.085-6.234.158-13.915.158s-13.915-.073-13.915-.158,6.228-.152,13.915-.152S73.729,417.467,73.729,417.552Z" transform="translate(-31.928 -188.638)" fill="#efeaf1"/>
      <rect id="Rectangle_27064" data-name="Rectangle 27064" width="5.096" height="25.36" transform="matrix(1, -0.005, 0.005, 1, 211.104, 9.487)" fill="#e0e0e0"/>
      <rect id="Rectangle_27065" data-name="Rectangle 27065" width="13.197" height="14" transform="matrix(1, -0.005, 0.005, 1, 166.952, 9.598)" fill="#ebebeb"/>
      <rect id="Rectangle_27066" data-name="Rectangle 27066" width="13.197" height="14" transform="matrix(1, -0.005, 0.005, 1, 180.088, 9.527)" fill="#f5f5f5"/>
      <path id="Path_34895" data-name="Path 34895" d="M297.409,63.13q13.161.109,26.333-.122a.14.14,0,1,0,0-.28c-8.77-.049-17.564,0-26.333.164a.122.122,0,0,0,0,.237Z" transform="translate(-130.442 -49.657)" fill="#e0e0e0"/>
      <rect id="Rectangle_27067" data-name="Rectangle 27067" width="23.98" height="11.409" transform="matrix(1, -0.005, 0.005, 1, 158.725, 23.424)" fill="#ebebeb"/>
      <rect id="Rectangle_27068" data-name="Rectangle 27068" width="23.98" height="11.409" transform="matrix(1, -0.005, 0.005, 1, 182.589, 23.295)" fill="#f5f5f5"/>
      <path id="Path_34896" data-name="Path 34896" d="M283.862,84.638c15.928.176,31.91,0,47.844-.237a.14.14,0,1,0,0-.28c-15.928-.085-31.916-.079-47.844.274a.122.122,0,1,0,0,.243Z" transform="translate(-125.123 -58.029)" fill="#e0e0e0"/>
      <rect id="Rectangle_27069" data-name="Rectangle 27069" width="92.903" height="4.087" transform="translate(149.768 34.843)" fill="#e0e0e0"/>
      <rect id="Rectangle_27070" data-name="Rectangle 27070" width="3.771" height="13.945" transform="translate(164.978 36.808)" fill="#e0e0e0"/>
      <rect id="Rectangle_27071" data-name="Rectangle 27071" width="3.771" height="13.945" transform="translate(221.276 36.808)" fill="#e0e0e0"/>
      <rect id="Rectangle_27072" data-name="Rectangle 27072" width="5.096" height="34.878" transform="matrix(1, -0.005, 0.005, 1, 216.076, 0.028)" fill="#ebebeb"/>
      <rect id="Rectangle_27073" data-name="Rectangle 27073" width="7.918" height="28.267" transform="matrix(1, -0.005, 0.005, 1, 221.213, 6.538)" fill="#f5f5f5"/>
      <path id="Path_34897" data-name="Path 34897" d="M394.506,60.814a56.1,56.1,0,0,1-7.906,0,58.642,58.642,0,0,1,7.906,0Z" transform="translate(-165.428 -48.862)" fill="#e0e0e0"/>
      <path id="Path_34898" data-name="Path 34898" d="M394.5,58.91a58.644,58.644,0,0,1-7.918,0,56.1,56.1,0,0,1,7.906,0Z" transform="translate(-165.42 -48.114)" fill="#e0e0e0"/>
      <path id="Path_34899" data-name="Path 34899" d="M394.506,91.344a56.1,56.1,0,0,1-7.906,0A58.643,58.643,0,0,1,394.506,91.344Z" transform="translate(-165.428 -60.825)" fill="#e0e0e0"/>
      <path id="Path_34900" data-name="Path 34900" d="M394.506,89.39a58.645,58.645,0,0,1-7.906,0,56.106,56.106,0,0,1,7.906,0Z" transform="translate(-165.427 -60.057)" fill="#e0e0e0"/>
      <path id="Path_34901" data-name="Path 34901" d="M393.214,77.011c-.073,0-.134-2.852-.134-6.367s.061-6.374.134-6.374.14,2.852.14,6.374S393.293,77.011,393.214,77.011Z" transform="translate(-167.967 -50.268)" fill="#e0e0e0"/>
      <rect id="Rectangle_27074" data-name="Rectangle 27074" width="8.618" height="21.334" transform="translate(229.17 13.448)" fill="#ebebeb"/>
      <circle id="Ellipse_1622" data-name="Ellipse 1622" cx="1.466" cy="1.466" r="1.466" transform="translate(217.08 4.502)" fill="#e0e0e0"/>
      <rect id="Rectangle_27075" data-name="Rectangle 27075" width="0.906" height="20.75" transform="translate(218.095 10)" fill="#e0e0e0"/>
    </g>
    <g id="freepik--Floor--inject-4" transform="translate(30.476 295.363)">
      <path id="Path_34902" data-name="Path 34902" d="M296.436,459.248c0,.091-58.456.158-130.542.158s-130.554-.067-130.554-.158,58.444-.158,130.554-.158S296.436,459.163,296.436,459.248Z" transform="translate(-35.34 -459.09)" fill="#263238"/>
    </g>
    <g id="freepik--Character--inject-4" transform="translate(47.546 68.221)">
      <path id="Path_34903" data-name="Path 34903" d="M143.16,92.35a19.461,19.461,0,0,1,4.391,12.443c-.03,2.566-.5,5.394.991,7.48,1.131,1.581,3.2,2.378,4.117,4.093,1.107,2.062.164,4.671.845,6.909.961,3.175,4.683,4.506,6.89,6.982a8.831,8.831,0,0,1,1.824,8.076,9.074,9.074,0,0,1-5.7,6.033,5.911,5.911,0,0,1-4.513-.073,7.762,7.762,0,0,1-3.162-3.758c-1.466-2.931-14.34-18.774-15.07-21.973" transform="translate(-90.979 -88.245)" fill="#263238"/>
      <path id="Path_34904" data-name="Path 34904" d="M117.861,86.128c-5.267-.851-10.339,2.646-12.546,7.5s-2.281,10.339-2.433,15.691-.541,10.9-3.26,15.484c-1.727,2.913-4.4,5.473-4.823,8.824-.377,3,1.18,6.033.663,9.019-.45,2.6-2.433,4.865-2.354,7.5.1,3.175,3.363,5.565,6.532,5.65s6.136-1.575,8.624-3.546a33.145,33.145,0,0,0,9.469-12.036" transform="translate(-75.045 -85.757)" fill="#263238"/>
      <path id="Path_34905" data-name="Path 34905" d="M119.51,99.631a9.968,9.968,0,0,1,8.964-11.16A10.163,10.163,0,0,1,139.306,97.2a104.612,104.612,0,0,1,1.277,11c-.067,5.115-3.041,7.1-4.257,7.705a6.848,6.848,0,0,1-1.35.334h0v.036l1.131,5.875c.517,3.85-1.63,7.3-5.473,7.839s-6.866-2.4-7.456-6.246Z" transform="translate(-85.361 -86.708)" fill="#ffbe9d"/>
      <path id="Path_34906" data-name="Path 34906" d="M148.318,106.1c-.085.122-.76-.237-1.624-.109s-1.441.651-1.551.56,0-.243.268-.487a2.238,2.238,0,0,1,1.216-.608,2.129,2.129,0,0,1,1.314.219C148.245,105.868,148.36,106.05,148.318,106.1Z" transform="translate(-95.418 -93.37)" fill="#263238"/>
      <path id="Path_34907" data-name="Path 34907" d="M135.658,109.181c-.085.122-.76-.243-1.63-.116s-1.435.657-1.545.566,0-.249.268-.487a2.238,2.238,0,0,1,1.216-.608,2.177,2.177,0,0,1,1.314.225C135.578,108.95,135.7,109.126,135.658,109.181Z" transform="translate(-90.458 -94.579)" fill="#263238"/>
      <path id="Path_34908" data-name="Path 34908" d="M141.98,112.627a5.71,5.71,0,0,1,1.368-.456c.219-.055.42-.128.438-.286a1.137,1.137,0,0,0-.243-.608l-.906-1.618a28.674,28.674,0,0,1-2.11-4.19,25.648,25.648,0,0,1,2.433,4.014c.31.56.608,1.095.876,1.6a1.32,1.32,0,0,1,.243.851.553.553,0,0,1-.316.377,1.545,1.545,0,0,1-.371.109,5.473,5.473,0,0,1-1.411.207Z" transform="translate(-93.623 -93.385)" fill="#263238"/>
      <path id="Path_34909" data-name="Path 34909" d="M139.851,133.423A13.949,13.949,0,0,1,132,132.28s1.964,4.227,8.162,2.725Z" transform="translate(-90.285 -103.891)" fill="#eb996e"/>
      <path id="Path_34910" data-name="Path 34910" d="M134.49,105.6c-.049.249-.93.262-1.928.535s-1.782.663-1.946.474c-.073-.091.036-.334.334-.608a3.479,3.479,0,0,1,2.95-.766C134.3,105.327,134.49,105.485,134.49,105.6Z" transform="translate(-89.734 -93.267)" fill="#263238"/>
      <path id="Path_34911" data-name="Path 34911" d="M147.306,102.928c-.122.219-.748.1-1.466.195s-1.308.328-1.478.14c-.073-.091,0-.3.231-.523a2.019,2.019,0,0,1,1.143-.5,2.074,2.074,0,0,1,1.216.225C147.245,102.63,147.361,102.818,147.306,102.928Z" transform="translate(-95.119 -92.115)" fill="#263238"/>
      <path id="Path_34912" data-name="Path 34912" d="M134.636,110.943a.718.718,0,0,0,.821.608.693.693,0,0,0,.608-.778.724.724,0,0,0-.821-.608.687.687,0,0,0-.608.778Z" transform="translate(-91.315 -95.223)" fill="#263238"/>
      <path id="Path_34913" data-name="Path 34913" d="M147.246,108.213a.724.724,0,0,0,.821.608.693.693,0,0,0,.608-.778.724.724,0,0,0-.821-.608.687.687,0,0,0-.608.778Z" transform="translate(-96.256 -94.153)" fill="#263238"/>
      <path id="Path_34914" data-name="Path 34914" d="M144.257,119.969a1.07,1.07,0,0,0-1.265.523,1.113,1.113,0,0,0,.152,1.283.979.979,0,0,0,1.265.091,1.216,1.216,0,0,0,.4-.827,1.168,1.168,0,0,0-.195-.827.663.663,0,0,0-.772-.231" transform="translate(-94.538 -99.048)" fill="#eb996e"/>
      <path id="Path_34915" data-name="Path 34915" d="M141.927,91.925a7.833,7.833,0,0,0-3.333-4.683,8.7,8.7,0,0,0-4.659-1.636,6.392,6.392,0,0,0-4.586,1.666,4.768,4.768,0,0,0-1.411,3.314l.1-.851a3.1,3.1,0,0,0,0,2.147h0c.14.371.31.748.456,1.119a4.8,4.8,0,0,0,2.275,2.475,3.126,3.126,0,0,0,1.52.371,1.824,1.824,0,0,0,1.381-.675A3.041,3.041,0,0,0,134,93a5.2,5.2,0,0,0,1.66,1.824,1.824,1.824,0,0,0,2.287-.262,2.387,2.387,0,0,0,0-2.323,4.6,4.6,0,0,0,1.9,1.636,1.7,1.7,0,0,0,1.356.146,1.32,1.32,0,0,0,.705-.912A2.785,2.785,0,0,0,141.927,91.925Z" transform="translate(-88.657 -85.6)" fill="#263238"/>
      <path id="Path_34916" data-name="Path 34916" d="M138.531,94.045c-.055,0-.043-.724-.28-1.824a6.957,6.957,0,0,0-2.1-3.813,4.981,4.981,0,0,0-2.1-1.137,4.573,4.573,0,0,0-1.958-.049,5.65,5.65,0,0,0-1.691.7,1.634,1.634,0,0,1,.371-.347A3.734,3.734,0,0,1,132.042,87a4.549,4.549,0,0,1,2.074,0,5.151,5.151,0,0,1,2.25,1.216,6.806,6.806,0,0,1,2.11,4.008,8.8,8.8,0,0,1,.109,1.374A1.3,1.3,0,0,1,138.531,94.045Z" transform="translate(-89.658 -86.103)" fill="#455a64"/>
      <path id="Path_34917" data-name="Path 34917" d="M207.83,198.957l-23.384-9.274s-11.975-15.709-11.725-16.013l-8.411,9.208,12.224,16.536,28.334,6.641,4.865-1.35C208.663,199.541,207.83,198.957,207.83,198.957Z" transform="translate(-102.945 -120.109)" fill="#ffbe9d"/>
      <path id="Path_34918" data-name="Path 34918" d="M131.035,140.776l-3.187-1.216-13.757,1.745v2.433l-.4.049a28.182,28.182,0,0,0-8.423,3.272,14.377,14.377,0,0,0-6.69,14.638c.559,3.479,1.642,7.705,3.734,10.15,4,4.677,7.645-1.1,7.645-1.1s2.506,5.717,2.36,8.423a73.756,73.756,0,0,1-1.441,8.46.444.444,0,0,0,.359.535l29.021,5.37.14-7.1-.924-29.192-1.308-11.336S138.211,140.5,131.035,140.776Z" transform="translate(-77.114 -106.744)" fill="#5e2d77"/>
      <path id="Path_34919" data-name="Path 34919" d="M163.07,146.9l11.069,15.989-8.91,10.85Z" transform="translate(-102.459 -109.62)" fill="#5e2d77"/>
      <path id="Path_34920" data-name="Path 34920" d="M164.888,185.508a6.984,6.984,0,0,1-.043-1.034c0-.718,0-1.66-.036-2.81a85.251,85.251,0,0,0-.663-9.226c-.456-3.588-1.156-6.793-1.685-9.122l-.645-2.737a7.05,7.05,0,0,1-.207-1.01,5.808,5.808,0,0,1,.328.979c.189.608.444,1.563.736,2.718a74.531,74.531,0,0,1,1.788,9.122,71.578,71.578,0,0,1,.572,9.268c0,1.216-.03,2.153-.067,2.816A6.079,6.079,0,0,1,164.888,185.508Z" transform="translate(-101.887 -114.584)" fill="#263238"/>
      <path id="Path_34921" data-name="Path 34921" d="M112.851,162.179c0,.049-.839.043-2.183.109a35.358,35.358,0,0,0-5.218.675,36.154,36.154,0,0,0-5.06,1.454c-1.265.468-2.025.815-2.05.766a2.171,2.171,0,0,1,.511-.3c.334-.182.833-.414,1.46-.675a28.328,28.328,0,0,1,10.339-2.141c.681,0,1.216,0,1.612.036A1.922,1.922,0,0,1,112.851,162.179Z" transform="translate(-77.096 -115.564)" fill="#fafafa"/>
      <path id="Path_34922" data-name="Path 34922" d="M158.182,174.28a5.382,5.382,0,0,1-1.381.3,30.694,30.694,0,0,1-6.793.231,5.474,5.474,0,0,1-1.4-.207,7.972,7.972,0,0,1,1.411,0H153.4c1.32,0,2.512-.134,3.375-.213A7.767,7.767,0,0,1,158.182,174.28Z" transform="translate(-96.793 -120.348)" fill="#fafafa"/>
      <path id="Path_34923" data-name="Path 34923" d="M169.373,162.387A8.612,8.612,0,0,1,167,164.3a8.344,8.344,0,0,1-2.791,1.216c-.036-.085,1.216-.608,2.627-1.508A27.415,27.415,0,0,1,169.373,162.387Z" transform="translate(-102.906 -115.686)" fill="#fafafa"/>
      <path id="Path_34924" data-name="Path 34924" d="M160.879,150.2a11.47,11.47,0,0,1-6.939,2.919c0-.1,1.672-.353,3.594-1.174S160.818,150.118,160.879,150.2Z" transform="translate(-98.882 -110.91)" fill="#fafafa"/>
      <path id="Path_34925" data-name="Path 34925" d="M155.976,194.637a2.9,2.9,0,0,1-.572.3c-.383.182-.937.407-1.642.669a30.342,30.342,0,0,1-5.65,1.435,29.837,29.837,0,0,1-5.82.322c-.748-.03-1.35-.085-1.764-.14a2.885,2.885,0,0,1-.639-.116,22.545,22.545,0,0,1,2.433.036,35.747,35.747,0,0,0,11.391-1.751C155.1,194.935,155.958,194.588,155.976,194.637Z" transform="translate(-93.377 -128.323)" fill="#fafafa"/>
      <path id="Path_34926" data-name="Path 34926" d="M148.321,208.19a2.366,2.366,0,0,1-.262.152l-.778.341c-.669.316-1.66.73-2.9,1.216a44.9,44.9,0,0,1-4.433,1.417,52.265,52.265,0,0,1-11.251,1.745c-1.752.067-3.327.061-4.652,0s-2.39-.158-3.126-.262l-.845-.116a1.125,1.125,0,0,1-.292-.061.949.949,0,0,1,.3,0l.851.055c.736.061,1.824.122,3.12.158s2.895,0,4.634-.061a44.769,44.769,0,0,0,5.638-.608c1.989-.328,3.862-.724,5.553-1.149s3.187-.906,4.427-1.35,2.25-.815,2.931-1.095l.791-.31a1.466,1.466,0,0,1,.3-.073Z" transform="translate(-85.497 -133.636)" fill="#fafafa"/>
      <path id="Path_34927" data-name="Path 34927" d="M72.891,420.78,69.6,435.637l-6,11a1.563,1.563,0,0,0,.718,2.165h0a1.551,1.551,0,0,0,1.423-.067c2.785-1.606,13.009-7.584,13.185-8.685.213-1.271,4.513-15.441,4.513-15.441Z" transform="translate(-63.408 -216.937)" fill="#ea3224"/>
      <g id="Group_11930" data-name="Group 11930" transform="translate(0.907 222.137)" opacity="0.6">
        <path id="Path_34928" data-name="Path 34928" d="M64.9,460.591l14.857-9.731-.158.608a2.347,2.347,0,0,1-.9,1.35c-1.216.87-4.6,3.205-12.327,7.718a1.557,1.557,0,0,1-1.472.055Z" transform="translate(-64.9 -450.86)" fill="#fff"/>
      </g>
      <g id="Group_11931" data-name="Group 11931" transform="translate(13.318 216.556)" opacity="0.6">
        <path id="Path_34929" data-name="Path 34929" d="M85.886,441.736a.943.943,0,0,0-.541,1.137.906.906,0,0,0,1.119.547,1,1,0,0,0,.572-1.216.943.943,0,0,0-1.216-.444" transform="translate(-85.306 -441.683)" fill="#fff"/>
      </g>
      <path id="Path_34930" data-name="Path 34930" d="M71.359,456.136a4.865,4.865,0,0,0-1.016-1.466,4.726,4.726,0,0,0-1.624-.724c0-.043.213-.109.572-.073a2.433,2.433,0,0,1,1.265.56,2.359,2.359,0,0,1,.766,1.131C71.426,455.911,71.4,456.136,71.359,456.136Z" transform="translate(-65.49 -229.9)" fill="#263238"/>
      <path id="Path_34931" data-name="Path 34931" d="M68.884,459.41c-.085.049-.444-.547-1.156-.955a11.435,11.435,0,0,0-1.4-.541,1.739,1.739,0,0,1,1.569.249C68.708,458.632,68.969,459.392,68.884,459.41Z" transform="translate(-64.553 -231.453)" fill="#263238"/>
      <path id="Path_34932" data-name="Path 34932" d="M74.886,452.515a14.839,14.839,0,0,0-1.679-1.593,15.079,15.079,0,0,0-2.068-1.052,3.473,3.473,0,0,1,2.262.778A3.406,3.406,0,0,1,74.886,452.515Z" transform="translate(-66.438 -228.335)" fill="#263238"/>
      <path id="Path_34933" data-name="Path 34933" d="M77.129,446.133c-.061.079-.8-.462-1.824-.76s-1.958-.249-1.964-.353a3.88,3.88,0,0,1,3.813,1.113Z" transform="translate(-67.3 -226.386)" fill="#263238"/>
      <path id="Path_34934" data-name="Path 34934" d="M78.773,438.987a7.691,7.691,0,0,0-1.9-.845,7.711,7.711,0,0,0-2.08,0c0-.036.189-.182.578-.3a3.4,3.4,0,0,1,2.992.608C78.67,438.743,78.8,438.962,78.773,438.987Z" transform="translate(-67.868 -223.576)" fill="#263238"/>
      <path id="Path_34935" data-name="Path 34935" d="M77.342,435.226a1.362,1.362,0,0,1,.122-.56,3.893,3.893,0,0,1,.8-1.356,1.788,1.788,0,0,1,.937-.645.645.645,0,0,1,.657.3,1.022,1.022,0,0,1,.067.73,2.208,2.208,0,0,1-2.36,1.52,2.567,2.567,0,0,1-2.122-1.9.912.912,0,0,1,.14-.73.608.608,0,0,1,.7-.164,2.219,2.219,0,0,1,.851.748,4.494,4.494,0,0,1,.724,1.4,1.4,1.4,0,0,1,.1.572,6.981,6.981,0,0,0-1.016-1.824,2.056,2.056,0,0,0-.754-.608.328.328,0,0,0-.383.091.608.608,0,0,0-.061.48,2.293,2.293,0,0,0,1.849,1.593,1.916,1.916,0,0,0,2.025-1.259.76.76,0,0,0,0-.511.341.341,0,0,0-.359-.17,1.6,1.6,0,0,0-.809.523A6.252,6.252,0,0,0,77.342,435.226Z" transform="translate(-68.115 -221.482)" fill="#263238"/>
      <g id="Group_11932" data-name="Group 11932" transform="translate(8.369 203.843)" opacity="0.3">
        <path id="Path_34936" data-name="Path 34936" d="M77.882,422.392,77.17,425.8l10.758,1.788.9-2.974L78.265,420.78Z" transform="translate(-77.17 -420.78)"/>
      </g>
      <path id="Path_34937" data-name="Path 34937" d="M150.155,429.51l-.888,11.871s11.774,4.865,11.823,7.1l-23.11-.894.608-18.561Z" transform="translate(-92.628 -220.169)" fill="#ea3224"/>
      <g id="Group_11933" data-name="Group 11933" transform="translate(48.851 219.923)" opacity="0.6">
        <path id="Path_34938" data-name="Path 34938" d="M144.437,447.232a.949.949,0,0,0-.693,1.052.912.912,0,0,0,1.034.7,1,1,0,0,0,.73-1.119.943.943,0,0,0-1.156-.608" transform="translate(-143.734 -447.219)" fill="#fff"/>
      </g>
      <g id="Group_11934" data-name="Group 11934" transform="translate(45.364 225.549)" opacity="0.6">
        <path id="Path_34939" data-name="Path 34939" d="M138,458.343l.134-1.873,22.107,1.539s1.016.487.87,1.216Z" transform="translate(-138 -456.47)" fill="#fff"/>
      </g>
      <path id="Path_34940" data-name="Path 34940" d="M155.8,449.1c0,.116-.572.146-1.137.487s-.882.8-.985.754.091-.693.785-1.095S155.826,448.992,155.8,449.1Z" transform="translate(-98.767 -227.986)" fill="#263238"/>
      <path id="Path_34941" data-name="Path 34941" d="M160.073,450.964c0,.116-.474.286-.876.748s-.529.961-.645.955-.158-.651.353-1.216S160.073,450.842,160.073,450.964Z" transform="translate(-100.66 -228.742)" fill="#263238"/>
      <path id="Path_34942" data-name="Path 34942" d="M163.1,454.6c-.1,0-.237-.553.073-1.156s.851-.833.894-.736-.292.414-.541.912S163.213,454.591,163.1,454.6Z" transform="translate(-102.426 -229.438)" fill="#263238"/>
      <path id="Path_34943" data-name="Path 34943" d="M155.428,444.4c-.049.1-.56-.079-1.216-.061s-1.143.2-1.216.1.438-.48,1.216-.493S155.5,444.315,155.428,444.4Z" transform="translate(-98.509 -226.015)" fill="#263238"/>
      <g id="Group_11935" data-name="Group 11935" transform="translate(45.863 210.819)" opacity="0.3">
        <path id="Path_34944" data-name="Path 34944" d="M150.32,433.126l-.158,2.116-11.342-.547.079-2.445Z" transform="translate(-138.82 -432.25)"/>
      </g>
      <path id="Path_34945" data-name="Path 34945" d="M155.016,439.466a2.1,2.1,0,0,1-1.156-.049,5.063,5.063,0,0,1-1.216-.42,5.581,5.581,0,0,1-.651-.377,1.514,1.514,0,0,1-.341-.286.5.5,0,0,1,0-.608.608.608,0,0,1,.5-.237,1.725,1.725,0,0,1,.432.073,4.064,4.064,0,0,1,.705.28,3.966,3.966,0,0,1,1.04.736c.517.517.681.949.645.967s-.3-.328-.827-.76a4.867,4.867,0,0,0-1.01-.608,6.4,6.4,0,0,0-.657-.231c-.243-.073-.45-.079-.517,0s0,.061,0,.134a1.15,1.15,0,0,0,.249.207,5.912,5.912,0,0,0,.608.371,6.185,6.185,0,0,0,1.1.474,8,8,0,0,1,1.089.334Z" transform="translate(-97.945 -223.484)" fill="#263238"/>
      <path id="Path_34946" data-name="Path 34946" d="M156.827,438.657a1.916,1.916,0,0,1-.262-1.131,4.074,4.074,0,0,1,.207-1.259,4.365,4.365,0,0,1,.322-.687.967.967,0,0,1,.76-.56.547.547,0,0,1,.474.347,1.513,1.513,0,0,1,.1.426,2.542,2.542,0,0,1,0,.778,2.664,2.664,0,0,1-.541,1.174c-.474.608-.949.7-.961.663a5.053,5.053,0,0,0,.736-.827,2.627,2.627,0,0,0,.407-1.07,2.433,2.433,0,0,0,0-.669c-.03-.243-.116-.45-.207-.426a.856.856,0,0,0-.42.365,4.474,4.474,0,0,0-.31.608,4.324,4.324,0,0,0-.268,1.143C156.785,438.213,156.888,438.657,156.827,438.657Z" transform="translate(-99.909 -222.516)" fill="#263238"/>
      <path id="Path_34947" data-name="Path 34947" d="M101.287,218.254s-3.649.164-6.082,12.644S74.23,344.5,74.23,344.5l13.446.122,25.336-96.138-1.685,99.13,13.659,1.046s10.248-109.645,10.339-116.025c.122-7.955-4.446-16-4.446-16Z" transform="translate(-67.649 -136.943)" fill="#263238"/>
      <path id="Path_34948" data-name="Path 34948" d="M144.891,217.55c.085,0-1.314,7.146-3.12,15.922s-3.339,15.879-3.424,15.861,1.308-7.146,3.114-15.922S144.825,217.532,144.891,217.55Z" transform="translate(-92.771 -137.303)" fill="#455a64"/>
      <path id="Path_34949" data-name="Path 34949" d="M151.88,220.452c0-.036.365-.146.785.225a1.113,1.113,0,0,1,.365.858,1.076,1.076,0,0,1-.687.924,1.089,1.089,0,0,1-1.143-.152,1.137,1.137,0,0,1-.359-.864c0-.56.377-.754.383-.718a1.733,1.733,0,0,0-.158.712.93.93,0,0,0,.322.645.87.87,0,0,0,1.35-.566.924.924,0,0,0-.231-.681C152.208,220.488,151.874,220.5,151.88,220.452Z" transform="translate(-97.667 -138.423)" fill="#455a64"/>
      <path id="Path_34950" data-name="Path 34950" d="M150.715,228.562c0-.036.377,0,.608.5a1.034,1.034,0,0,1-1.928.748,1.058,1.058,0,0,1,.1-.888c.286-.456.675-.444.663-.407a1.175,1.175,0,0,0-.468.511.9.9,0,0,0,0,.681.809.809,0,0,0,1.362.109.906.906,0,0,0,.079-.681C150.958,228.727,150.685,228.6,150.715,228.562Z" transform="translate(-97.08 -141.595)" fill="#455a64"/>
      <path id="Path_34951" data-name="Path 34951" d="M122.3,220.68a2.33,2.33,0,0,1-.158.608,10.138,10.138,0,0,1-.712,1.612,11.817,11.817,0,0,1-9.354,6.161,10.121,10.121,0,0,1-1.758,0,2.432,2.432,0,0,1-.608-.1c0-.061.918.043,2.372-.14a12.34,12.34,0,0,0,9.183-6.051C121.977,221.543,122.244,220.662,122.3,220.68Z" transform="translate(-81.551 -138.53)" fill="#455a64"/>
      <path id="Path_34952" data-name="Path 34952" d="M170.618,228.491a3.159,3.159,0,0,1-.407-.243,7.3,7.3,0,0,1-.973-.839,10.339,10.339,0,0,1-2.974-7.718,6.692,6.692,0,0,1,.164-1.271c.067-.3.109-.456.134-.45s-.073.663-.073,1.727a11.275,11.275,0,0,0,2.913,7.559C170.113,228.041,170.648,228.442,170.618,228.491Z" transform="translate(-103.707 -137.468)" fill="#455a64"/>
      <path id="Path_34953" data-name="Path 34953" d="M242.9,225.93c.2-.487.146-.292-3.077-2.433,0,0,4.622,3.041,4.142,1.593a5.9,5.9,0,0,0-1.5-1.393c1.216.718,1.922.8,2.135.5.365-.5-2.281-2.433-3.54-3.3a30.31,30.31,0,0,0,3.612,2.22c.748.231.389-.645-.116-1.283s-4.421-4.409-5.473-5.534a.912.912,0,0,1,0-1.387,5.768,5.768,0,0,0,2.688-3.795.687.687,0,0,0-1.289-.219,8.343,8.343,0,0,1-1.648,1.557,5.389,5.389,0,0,1-1.593.858,12.8,12.8,0,0,1-4.665-.322L230.33,220.6s8.143,3.807,9.688,4.549C241.915,226.051,242.761,226.3,242.9,225.93Z" transform="translate(-128.815 -134.554)" fill="#ffbe9d"/>
      <path id="Path_34954" data-name="Path 34954" d="M243.528,229.992a10.706,10.706,0,0,0,2.36,1.733,11.171,11.171,0,0,0,2.573,1.4,11.191,11.191,0,0,0-2.366-1.733A10.175,10.175,0,0,0,243.528,229.992Z" transform="translate(-133.985 -142.173)" fill="#eb996e"/>
      <path id="Path_34955" data-name="Path 34955" d="M244.788,227.546a12.463,12.463,0,0,0,2.433,1.989,13.4,13.4,0,0,0,2.639,1.672,12.487,12.487,0,0,0-2.433-1.989A13.4,13.4,0,0,0,244.788,227.546Z" transform="translate(-134.479 -141.217)" fill="#eb996e"/>
      <path id="Path_34956" data-name="Path 34956" d="M246.118,225.066a11.59,11.59,0,0,0,2.256,1.922,11.848,11.848,0,0,0,2.481,1.606,11.893,11.893,0,0,0-2.25-1.922A11.3,11.3,0,0,0,246.118,225.066Z" transform="translate(-135 -140.245)" fill="#eb996e"/>
      <path id="Path_34957" data-name="Path 34957" d="M105.937,158.6l5.972.328A29.994,29.994,0,0,0,113.6,163.8a100.111,100.111,0,0,0,9.463-24.022q-.2-.663-.493-1.5a6.349,6.349,0,0,1,.073-2.53c.164-1,.444-2.348.523-2.968.262-1.9.566-2.2,1.216-1.983.9.292-.371,5.334.365,5.443.4.055.882-1.672,1.028-3.089s.778-5.771,1.247-6.082c.687-.426,1.283.249,1.113,1.66s-.4,5.686.353,5.741,1.356-7.17,1.356-7.17-.116-1.569.748-1.533c1.563.067.347,7.687.213,8.411-.1.5.718.608.791.049s.45-7.231,2.037-7.176c1.216.043-.943,6.276-.255,7.724s1.162-4.908,2.329-4.823c.432.036.754.122-.043,3.716a81.982,81.982,0,0,1-2.791,8.429c-1.824,9.974-9.968,41.878-22.691,36.04-7.115-3.266-10.442-19.461-10.442-19.461Z" transform="translate(-77.644 -101.34)" fill="#ffbe9d"/>
      <path id="Path_34958" data-name="Path 34958" d="M147.453,142.045a.857.857,0,0,1,.061-.219c.055-.158.122-.365.213-.608.2-.578.474-1.381.833-2.433s.791-2.329,1.216-3.837c.219-.748.4-1.563.566-2.433.085-.438.164-.888.219-1.35a5.2,5.2,0,0,0,0-.687c0-.237-.055-.432-.243-.438s-.322.109-.456.31a3.777,3.777,0,0,0-.3.675c-.17.48-.3.991-.438,1.508s-.255,1.058-.414,1.606a2.5,2.5,0,0,1-.365.839.335.335,0,0,1-.164.1.274.274,0,0,1-.231-.055.784.784,0,0,1-.17-.225,1.739,1.739,0,0,1-.128-.468,15.034,15.034,0,0,1,.365-3.649c.1-.608.213-1.216.292-1.824a9.258,9.258,0,0,0,.079-.937c.006-.328-.043-.675-.17-.73s-.438.116-.608.371a3.722,3.722,0,0,0-.4.864,12.615,12.615,0,0,0-.468,1.946c-.116.669-.207,1.35-.286,2.043-.03.347-.067.693-.1,1.046l-.049.529a.772.772,0,0,1-.243.608.608.608,0,0,1-.718,0,.5.5,0,0,1-.219-.347.688.688,0,0,1,0-.195v-.128l.164-1.064c.1-.718.189-1.435.255-2.165s.122-1.466.134-2.2a7.3,7.3,0,0,0-.219-2.165.724.724,0,0,0-.3-.438.365.365,0,0,0-.407.134,1.989,1.989,0,0,0-.231,1.18h0c-.134,1.429-.286,2.834-.493,4.215-.1.687-.219,1.374-.389,2.049-.049.164-.1.334-.158.5a1.022,1.022,0,0,1-.347.523.365.365,0,0,1-.444-.1.73.73,0,0,1-.164-.274,2.475,2.475,0,0,1-.14-.523,20.332,20.332,0,0,1-.036-3.983,10.509,10.509,0,0,0,.1-1.867,1.034,1.034,0,0,0-.341-.693.407.407,0,0,0-.316-.049.965.965,0,0,0-.164.073c-.055.049-.049,0-.085.1a8.3,8.3,0,0,0-.48,1.7c-.122.608-.225,1.162-.316,1.733s-.176,1.131-.249,1.691-.109,1.107-.219,1.654a9.041,9.041,0,0,1-.426,1.569,3.038,3.038,0,0,1-.176.377c-.085.116-.134.262-.365.334a.3.3,0,0,1-.31-.134.9.9,0,0,1-.1-.225,2.432,2.432,0,0,1-.049-.4c0-1.04.14-1.989.195-2.907a7.336,7.336,0,0,0,0-1.32c0-.195-.091-.426-.2-.468a.56.56,0,0,0-.493,0,1.709,1.709,0,0,0-.45,1c-.091.371-.128.748-.195,1.107-.255,1.435-.523,2.676-.651,3.685a5,5,0,0,0,0,1.338c.085.365.213.693.28.949s.134.438.176.608a1.069,1.069,0,0,1,.049.2.8.8,0,0,1-.085-.189l-.207-.608c-.085-.262-.213-.553-.316-.955a4.866,4.866,0,0,1,0-1.374c.116-1.028.359-2.256.608-3.7.067-.359.1-.736.182-1.125a5.737,5.737,0,0,1,.164-.608,1.034,1.034,0,0,1,.377-.553.766.766,0,0,1,.718,0,.821.821,0,0,1,.383.706,7.408,7.408,0,0,1,0,1.374c-.043.924-.189,1.891-.164,2.877a2.08,2.08,0,0,0,.043.347c0,.116.085.164.073.14s.116-.1.164-.195a2.817,2.817,0,0,0,.158-.334,8.2,8.2,0,0,0,.4-1.52c.1-.529.14-1.076.213-1.642s.146-1.125.237-1.7.195-1.156.31-1.745a7.906,7.906,0,0,1,.511-1.794.608.608,0,0,1,.213-.237,1.178,1.178,0,0,1,.255-.1.742.742,0,0,1,.608.091,1.314,1.314,0,0,1,.493.924,3.649,3.649,0,0,1,0,1c-.03.31-.061.608-.079.949a19.376,19.376,0,0,0,.036,3.892,2.432,2.432,0,0,0,.122.45.414.414,0,0,0,.091.158h.03v.006a1.217,1.217,0,0,0,.176-.334,4.053,4.053,0,0,0,.146-.474c.164-.645.274-1.326.377-2.007.207-1.368.359-2.773.487-4.2v.03a2.347,2.347,0,0,1,.31-1.441.76.76,0,0,1,.845-.249,1.089,1.089,0,0,1,.523.669,7.626,7.626,0,0,1,.237,2.293c0,.754-.067,1.5-.134,2.232s-.158,1.46-.262,2.177c-.055.365-.109.718-.164,1.076-.049.225-.036.231,0,.3a.255.255,0,0,0,.286,0c.073-.055.085-.158.1-.359l.043-.529.109-1.052c.073-.693.17-1.387.286-2.062a13.908,13.908,0,0,1,.487-2,4.433,4.433,0,0,1,.444-.943,1.356,1.356,0,0,1,.389-.4.669.669,0,0,1,.608-.091.712.712,0,0,1,.335.535,2.986,2.986,0,0,1,.03.517,8.616,8.616,0,0,1-.079.979c-.085.608-.2,1.253-.31,1.867a15.338,15.338,0,0,0-.377,3.521,1.569,1.569,0,0,0,.1.371.7.7,0,0,0,.079.122h0v-.043a2.432,2.432,0,0,0,.3-.712c.158-.529.286-1.064.426-1.587a15.531,15.531,0,0,1,.456-1.539,3.8,3.8,0,0,1,.328-.718,1.161,1.161,0,0,1,.28-.322.5.5,0,0,1,.213-.109.766.766,0,0,1,.237,0,.468.468,0,0,1,.383.28,1.119,1.119,0,0,1,.079.4,4.793,4.793,0,0,1-.043.736c-.055.474-.146.924-.231,1.368a22.906,22.906,0,0,1-.608,2.433c-.456,1.508-.912,2.785-1.283,3.825s-.687,1.824-.9,2.384c-.1.255-.189.456-.249.608A1.32,1.32,0,0,1,147.453,142.045Z" transform="translate(-92.213 -101.231)" fill="#eb996e"/>
      <path id="Path_34959" data-name="Path 34959" d="M99.65,177.392c1.156,4.081,3.418,10.375,5.844,17.029a1.149,1.149,0,0,0,2.122.1l5.948-12.583s-1.435-10.339-1.314-9.968-12.273,1.338-12.273,1.338Z" transform="translate(-77.609 -119.441)" fill="#5e2d77"/>
      <path id="Path_34960" data-name="Path 34960" d="M114.081,177.56c0,.049-.742.268-1.916.718a27.058,27.058,0,0,0-4.415,2.153,27.7,27.7,0,0,0-3.953,2.919c-.943.833-1.484,1.4-1.52,1.368s.1-.17.334-.444a14.645,14.645,0,0,1,1.034-1.089,22.813,22.813,0,0,1,3.941-3.041,23.209,23.209,0,0,1,4.5-2.092,14.084,14.084,0,0,1,1.447-.414A1.739,1.739,0,0,1,114.081,177.56Z" transform="translate(-78.636 -121.633)" fill="#fafafa"/>
      <path id="Path_34961" data-name="Path 34961" d="M122.858,176.161a6.453,6.453,0,0,1-1-1.3,22.235,22.235,0,0,1-1.824-3.491,21.893,21.893,0,0,1-1.174-3.771,6.215,6.215,0,0,1-.213-1.618,11.238,11.238,0,0,1,.432,1.563,30.406,30.406,0,0,0,1.216,3.7,31.091,31.091,0,0,0,1.739,3.5,12.769,12.769,0,0,1,.821,1.417Z" transform="translate(-85.054 -117.096)" fill="#263238"/>
      <path id="Path_34962" data-name="Path 34962" d="M126.221,90.31a13.38,13.38,0,0,0-1.162,11.44c.608,1.672,1.581,3.321,1.4,5.1s-1.563,3.533-1.076,5.285c.292,1.04,1.18,1.824,1.526,2.834a7.864,7.864,0,0,1-.213,3.746c-.487,3.187.535,6.392.785,9.6s-.608,6.976-3.479,8.374a2.5,2.5,0,0,1-2.731-.1c-.924-.821-.669-2.3-.414-3.521,2.518-12.163-5.261-24.035-3.485-36.344.286-1.97,1.387-5.315,2.8-6.69s5.352-1.216,6.69.243" transform="translate(-84.451 -86.965)" fill="#263238"/>
      <path id="Path_34963" data-name="Path 34963" d="M112.39,125.018a12.846,12.846,0,0,0,.918-1.3,11.792,11.792,0,0,0,1.587-3.983,12.116,12.116,0,0,0,.189-2.956,31.306,31.306,0,0,1-.128-3.46,7.481,7.481,0,0,1,.347-1.861,10.376,10.376,0,0,1,.839-1.788c.681-1.149,1.539-2.22,2.329-3.363a9.232,9.232,0,0,0,1.654-3.649,11.379,11.379,0,0,0-.213-3.728,14.176,14.176,0,0,1-.268-3.454,11.622,11.622,0,0,1,.608-2.968,11.281,11.281,0,0,1,2.153-3.789,7.906,7.906,0,0,1,.827-.845,1.629,1.629,0,0,1,.316-.262,13.3,13.3,0,0,0-1.052,1.216,11.677,11.677,0,0,0-2.566,6.69,13.848,13.848,0,0,0,.3,3.394,11.555,11.555,0,0,1,.231,3.831,9.566,9.566,0,0,1-1.7,3.752c-.8,1.162-1.654,2.226-2.323,3.345a9.487,9.487,0,0,0-.815,1.727,7.049,7.049,0,0,0-.347,1.788,32.97,32.97,0,0,0,.1,3.424,12.164,12.164,0,0,1-.231,3.01,11.4,11.4,0,0,1-1.7,4.008,8.836,8.836,0,0,1-.73.937A1.946,1.946,0,0,1,112.39,125.018Z" transform="translate(-82.601 -86.388)" fill="#ea3224"/>
      <path id="Path_34964" data-name="Path 34964" d="M102.91,125.9a2.232,2.232,0,0,1,.189-.407c.152-.286.347-.663.608-1.137.511-.991,1.271-2.433,2.019-4.257a18.555,18.555,0,0,0,1.5-6.732,13.076,13.076,0,0,0-.152-1.995c-.1-.681-.262-1.368-.365-2.086a5.911,5.911,0,0,1,.049-2.238,4,4,0,0,1,1.216-1.952c1.143-1.04,2.524-1.721,3.242-2.944a9.956,9.956,0,0,0,1.076-3.9,15.24,15.24,0,0,1,.839-3.649,13.191,13.191,0,0,1,4.92-6.215,10.182,10.182,0,0,1,1.113-.651,1.824,1.824,0,0,1,.414-.182,15,15,0,0,0-1.454.937,13.288,13.288,0,0,0-3.266,3.339A12.924,12.924,0,0,0,113.37,94.7a15.478,15.478,0,0,0-.791,3.649,10.158,10.158,0,0,1-1.107,4.026c-.778,1.283-2.2,2.013-3.29,3.041a3.722,3.722,0,0,0-1.149,1.824,5.632,5.632,0,0,0-.043,2.116c.1.7.249,1.393.353,2.08a12.339,12.339,0,0,1,.146,2.043,18.464,18.464,0,0,1-1.575,6.842,40.793,40.793,0,0,1-2.116,4.257l-.645.955A2.1,2.1,0,0,1,102.91,125.9Z" transform="translate(-78.886 -86.368)" fill="#455a64"/>
    </g>
    <g id="freepik--Plant--inject-4" transform="translate(255.1 176.857)">
      <path id="Path_34965" data-name="Path 34965" d="M427.16,366.979a1.43,1.43,0,0,1,.109-.255c.085-.182.2-.426.341-.736a17.962,17.962,0,0,0,1.016-2.944,25.934,25.934,0,0,0-.085-11.354,61.351,61.351,0,0,0-2.11-7.632c-.888-2.706-1.928-5.577-2.773-8.685a33.679,33.679,0,0,1-1.368-9.986,39.151,39.151,0,0,1,2.323-10.57,50.836,50.836,0,0,0,2.688-10.406,15.879,15.879,0,0,0-1.91-9.609c-1.52-2.8-3.436-5.206-4.865-7.687a26.761,26.761,0,0,1-2.925-7.4,27.568,27.568,0,0,1-.189-11.446,21.091,21.091,0,0,1,1.216-4.044,1.565,1.565,0,0,1-.073.268l-.243.772a31.1,31.1,0,0,0-.742,3.041,27.976,27.976,0,0,0,.3,11.367,26.46,26.46,0,0,0,2.937,7.3c1.429,2.433,3.351,4.865,4.908,7.681a16.2,16.2,0,0,1,1.964,9.81,51.065,51.065,0,0,1-2.7,10.485,38.865,38.865,0,0,0-2.311,10.466A33.224,33.224,0,0,0,424,335.306c.833,3.089,1.855,5.96,2.737,8.678a59.753,59.753,0,0,1,2.068,7.675,26.071,26.071,0,0,1,0,11.44,16.93,16.93,0,0,1-1.089,2.937l-.377.724A1.251,1.251,0,0,1,427.16,366.979Z" transform="translate(-409.475 -264.23)" fill="#263238"/>
      <path id="Path_34966" data-name="Path 34966" d="M425.54,296.313s-2.907-9.311,2.311-14.76a.322.322,0,0,1,.553.158C428.684,283.25,429.031,287.933,425.54,296.313Z" transform="translate(-412.543 -270.977)" fill="#ea3224"/>
      <path id="Path_34967" data-name="Path 34967" d="M427.736,286.72a8.912,8.912,0,0,1-.195,1.715c-.195,1.186-.42,2.573-.663,4.105s-.468,2.925-.657,4.105a10.239,10.239,0,0,1-.3,1.7,7.211,7.211,0,0,1,.036-1.727c.1-1.064.286-2.524.547-4.129s.547-3.041.772-4.093a7.543,7.543,0,0,1,.462-1.678Z" transform="translate(-412.994 -273.042)" fill="#263238"/>
      <path id="Path_34968" data-name="Path 34968" d="M431.68,334.281s1.782-9.591,8.946-11.963a.322.322,0,0,1,.414.4C440.565,324.2,438.686,328.5,431.68,334.281Z" transform="translate(-415.266 -286.984)" fill="#00ae9f"/>
      <path id="Path_34969" data-name="Path 34969" d="M438.643,326.38a9.01,9.01,0,0,1-.973,1.429l-2.512,3.314-2.493,3.327a9.724,9.724,0,0,1-1.064,1.356,7.2,7.2,0,0,1,.852-1.508c.608-.894,1.435-2.1,2.433-3.394s1.9-2.433,2.591-3.26A7.834,7.834,0,0,1,438.643,326.38Z" transform="translate(-415.234 -288.583)" fill="#263238"/>
      <path id="Path_34970" data-name="Path 34970" d="M428.453,372.439s-1.083-9.694,5.084-14.042a.316.316,0,0,1,.511.262C434.03,360.221,433.476,364.88,428.453,372.439Z" transform="translate(-413.973 -301.102)" fill="#ea3224"/>
      <path id="Path_34971" data-name="Path 34971" d="M432.433,363.26a8.1,8.1,0,0,1-.517,1.648l-1.435,3.9c-.535,1.46-1.016,2.779-1.423,3.9a9.993,9.993,0,0,1-.608,1.612,7.107,7.107,0,0,1,.377-1.691c.3-1.022.76-2.433,1.326-3.953s1.119-2.889,1.539-3.868A8.471,8.471,0,0,1,432.433,363.26Z" transform="translate(-414 -303.034)" fill="#263238"/>
      <path id="Path_34972" data-name="Path 34972" d="M437.353,412.347s-.73-9.731,5.583-13.854a.322.322,0,0,1,.5.28C443.368,400.336,442.651,404.976,437.353,412.347Z" transform="translate(-417.479 -316.817)" fill="#ea3224"/>
      <path id="Path_34973" data-name="Path 34973" d="M441.657,403.29a8.424,8.424,0,0,1-.578,1.63c-.45,1.107-.985,2.433-1.575,3.85s-1.107,2.737-1.557,3.85a9.462,9.462,0,0,1-.687,1.587,7.3,7.3,0,0,1,.444-1.679c.334-1.01.845-2.4,1.466-3.9s1.216-2.852,1.672-3.813a8.124,8.124,0,0,1,.815-1.526Z" transform="translate(-417.452 -318.719)" fill="#263238"/>
      <path id="Path_34974" data-name="Path 34974" d="M413.5,284.457s-8.624-4.525-8.812-12.06a.328.328,0,0,1,.5-.28C406.478,273,410.042,276.07,413.5,284.457Z" transform="translate(-404.69 -267.3)" fill="#ea3224"/>
      <path id="Path_34975" data-name="Path 34975" d="M407.64,276.87a8.363,8.363,0,0,1,1.076,1.356c.705.967,1.526,2.11,2.433,3.369l2.433,3.357a9.527,9.527,0,0,1,.985,1.417,7.153,7.153,0,0,1-1.186-1.259c-.687-.815-1.587-1.983-2.536-3.3s-1.782-2.542-2.354-3.436a8.31,8.31,0,0,1-.851-1.5Z" transform="translate(-405.846 -269.183)" fill="#263238"/>
      <path id="Path_34976" data-name="Path 34976" d="M428.309,317.671s-8.9-3.983-9.53-11.506a.322.322,0,0,1,.487-.3C420.6,306.669,424.338,309.5,428.309,317.671Z" transform="translate(-410.21 -280.525)" fill="#00ae9f"/>
      <path id="Path_34977" data-name="Path 34977" d="M422,310.47a8.254,8.254,0,0,1,1.156,1.283l2.639,3.217,2.646,3.205a9.731,9.731,0,0,1,1.07,1.356,7.407,7.407,0,0,1-1.265-1.186c-.73-.778-1.7-1.885-2.731-3.144s-1.928-2.433-2.56-3.29A7.815,7.815,0,0,1,422,310.47Z" transform="translate(-411.473 -282.349)" fill="#263238"/>
      <path id="Path_34978" data-name="Path 34978" d="M423.425,352.467s-6.082-7.6-3.241-14.6a.322.322,0,0,1,.572-.049C421.6,339.142,423.625,343.375,423.425,352.467Z" transform="translate(-410.465 -293.007)" fill="#00ae9f"/>
      <path id="Path_34979" data-name="Path 34979" d="M421.68,343.08a8.292,8.292,0,0,1,.45,1.672c.255,1.168.553,2.542.882,4.063s.639,2.889.894,4.056a9.531,9.531,0,0,1,.335,1.7,7.3,7.3,0,0,1-.608-1.63c-.3-1.028-.663-2.433-1-4.05s-.608-3.041-.778-4.087a7.907,7.907,0,0,1-.17-1.721Z" transform="translate(-411.347 -295.126)" fill="#263238"/>
      <path id="Path_34980" data-name="Path 34980" d="M429.984,397.371s-8.837-4.129-9.335-11.658a.322.322,0,0,1,.493-.3C422.449,386.241,426.141,389.142,429.984,397.371Z" transform="translate(-410.943 -311.693)" fill="#5e2d77"/>
      <path id="Path_34981" data-name="Path 34981" d="M423.77,390.06a9.059,9.059,0,0,1,1.131,1.308l2.585,3.254,2.591,3.254a9.534,9.534,0,0,1,1.046,1.374,7.163,7.163,0,0,1-1.216-1.216c-.724-.791-1.672-1.916-2.682-3.193s-1.885-2.463-2.506-3.333A7.436,7.436,0,0,1,423.77,390.06Z" transform="translate(-412.166 -313.535)" fill="#263238"/>
      <path id="Path_34982" data-name="Path 34982" d="M454.064,342.07v.821c0,.608-.061,1.38-.1,2.366-.109,2.08-.274,4.981-.462,8.447h0a32.116,32.116,0,0,1-4.865,11.239c-1.77,2.8-3.649,5.34-5.23,7.705a54.337,54.337,0,0,0-3.88,6.507,27.3,27.3,0,0,0-1.824,4.756c-.152.578-.274,1.034-.341,1.344a2.833,2.833,0,0,1-.128.474,2.208,2.208,0,0,1,.061-.487c.043-.316.134-.778.274-1.368a24.855,24.855,0,0,1,1.733-4.835,52.226,52.226,0,0,1,3.874-6.55c1.593-2.384,3.436-4.932,5.2-7.711a33.769,33.769,0,0,0,4.865-11.105h0c.243-3.46.444-6.355.608-8.435.079-.985.146-1.77.195-2.36a4.634,4.634,0,0,1,.061-.608.8.8,0,0,1-.036-.2Z" transform="translate(-417.44 -294.731)" fill="#263238"/>
      <path id="Path_34983" data-name="Path 34983" d="M455,368.845s3.74-9-.961-14.906a.322.322,0,0,0-.566.109C453.052,355.557,452.28,360.185,455,368.845Z" transform="translate(-423.636 -299.332)" fill="#00ae9f"/>
      <path id="Path_34984" data-name="Path 34984" d="M455.125,359.19a7.9,7.9,0,0,1,.3,1.7c.134,1.058.28,2.524.4,4.148s.17,3.1.17,4.166a7.058,7.058,0,0,1-.1,1.727,9.129,9.129,0,0,1-.152-1.721c-.079-1.216-.176-2.6-.28-4.148s-.2-2.956-.286-4.148a8.8,8.8,0,0,1-.043-1.727Z" transform="translate(-424.443 -301.439)" fill="#263238"/>
      <path id="Path_34986" data-name="Path 34986" d="M435.335,404.631s3-9.281-2.171-14.778a.322.322,0,0,0-.553.152C432.319,391.537,431.924,396.22,435.335,404.631Z" transform="translate(-415.558 -313.413)" fill="#00ae9f"/>
      <path id="Path_34987" data-name="Path 34987" d="M434.52,395a7.462,7.462,0,0,1,.438,1.679c.219,1.04.48,2.493.73,4.1s.42,3.071.511,4.135a7.3,7.3,0,0,1,.03,1.733,10.389,10.389,0,0,1-.292-1.7c-.176-1.186-.383-2.573-.608-4.111s-.444-2.925-.608-4.111a8.8,8.8,0,0,1-.2-1.721Z" transform="translate(-416.379 -315.471)" fill="#263238"/>
      <path id="Path_34989" data-name="Path 34989" d="M464.1,351.814s7.985-5.6,7.182-13.1a.322.322,0,0,0-.535-.207C469.586,339.553,466.472,343.032,464.1,351.814Z" transform="translate(-427.969 -293.303)" fill="#00ae9f"/>
      <g id="Group_11938" data-name="Group 11938" transform="translate(36.131 45.123)">
        <path id="Path_34990" data-name="Path 34990" d="M464.1,351.814s7.985-5.6,7.182-13.1a.322.322,0,0,0-.535-.207C469.586,339.553,466.472,343.032,464.1,351.814Z" transform="translate(-464.1 -338.425)" fill="#5e2d77"/>
      </g>
      <path id="Path_34991" data-name="Path 34991" d="M469.886,343.51a7.5,7.5,0,0,1-.663,1.6c-.456.961-1.119,2.275-1.891,3.71s-1.514,2.706-2.086,3.606a7.212,7.212,0,0,1-1.016,1.4,8.962,8.962,0,0,1,.791-1.533c.572-1.052,1.247-2.281,1.989-3.649l1.983-3.649a8.883,8.883,0,0,1,.894-1.484Z" transform="translate(-428.02 -295.295)" fill="#263238"/>
      <path id="Path_34992" data-name="Path 34992" d="M442.51,393.272s9.633-1.5,12.212-8.593a.322.322,0,0,0-.383-.426C452.837,384.7,448.482,386.437,442.51,393.272Z" transform="translate(-419.509 -311.256)" fill="#00ae9f"/>
      <g id="Group_11939" data-name="Group 11939" transform="translate(23.001 72.987)" opacity="0.3">
        <path id="Path_34993" data-name="Path 34993" d="M442.51,393.272s9.633-1.5,12.212-8.593a.322.322,0,0,0-.383-.426C452.837,384.7,448.482,386.437,442.51,393.272Z" transform="translate(-442.51 -384.243)" fill="#e5e5e5"/>
      </g>
      <path id="Path_34994" data-name="Path 34994" d="M452.227,388.05a7.807,7.807,0,0,1-1.3,1.137c-.833.669-2.007,1.557-3.327,2.506s-2.554,1.758-3.466,2.317a7.037,7.037,0,0,1-1.533.809,9.392,9.392,0,0,1,1.393-1.028l3.394-2.4,3.387-2.433a8.083,8.083,0,0,1,1.454-.912Z" transform="translate(-419.545 -312.747)" fill="#263238"/>
      <path id="Path_34995" data-name="Path 34995" d="M425.58,428.25l-2.81,18.914h17.515l-2.268-18.914Z" transform="translate(-411.774 -328.499)" fill="#455a64"/>
      <path id="Path_34996" data-name="Path 34996" d="M439.9,437.749a136.845,136.845,0,0,1-14.128,0,136.857,136.857,0,0,1,14.128,0Z" transform="translate(-412.95 -332.141)" fill="#263238"/>
      <path id="Path_34997" data-name="Path 34997" d="M440.156,440.242a146.062,146.062,0,0,1-14.6,0,146.037,146.037,0,0,1,14.6,0Z" transform="translate(-412.868 -333.127)" fill="#263238"/>
    </g>
    <g id="freepik--Boxes--inject-4" transform="translate(131.814 93.047)">
      <path id="Path_34998" data-name="Path 34998" d="M315,126.494h-.48a11.7,11.7,0,0,0-1.387,0,15.581,15.581,0,0,0-5.188,1.216,15.928,15.928,0,0,0-6.58,5.127,14.371,14.371,0,0,0-2.3,4.7,15.812,15.812,0,0,0,1.6,11.944,13.513,13.513,0,0,0,2.068,2.749,11.239,11.239,0,0,0,2.8,2.189,6.872,6.872,0,0,0,3.509.882,5.042,5.042,0,0,0,3.4-1.374,4.908,4.908,0,0,0,1.356-3.5,6.459,6.459,0,0,0-1.216-3.728,12.707,12.707,0,0,0-6.848-4.513,16.816,16.816,0,0,0-8.636-.122,18.1,18.1,0,0,0-4.16,1.654,14.992,14.992,0,0,0-3.57,2.8c-.249.286-.535.547-.76.864l-.687.924a17.356,17.356,0,0,0-1.119,2.031,16.481,16.481,0,0,0-1.32,4.482,16.992,16.992,0,0,0,1.216,9.122,14.091,14.091,0,0,0,5.869,6.69,9.731,9.731,0,0,0,4.16,1.259,7.347,7.347,0,0,0,4.105-.985,6.416,6.416,0,0,0,2.773-3.041,5.51,5.51,0,0,0,.1-4,8.046,8.046,0,0,0-2.287-3.235,10.472,10.472,0,0,0-3.363-1.952,13.033,13.033,0,0,0-7.407-.128,14.432,14.432,0,0,0-6.082,3.387,13.891,13.891,0,0,0-3.485,5.394,15.63,15.63,0,0,0,.164,10.947,16.6,16.6,0,0,0,5.005,6.69,18.008,18.008,0,0,0,4.6,2.682c.572.213,1.016.371,1.32.456l.45.146s-.158-.03-.462-.116a13.082,13.082,0,0,1-1.326-.432,17.229,17.229,0,0,1-4.659-2.639,16.67,16.67,0,0,1-5.1-6.72,15.812,15.812,0,0,1-.2-11.062,13.945,13.945,0,0,1,3.521-5.473,14.711,14.711,0,0,1,6.173-3.467,13.313,13.313,0,0,1,7.566.122,10.655,10.655,0,0,1,3.46,2,8.259,8.259,0,0,1,2.372,3.351,5.826,5.826,0,0,1-.061,4.19,6.811,6.811,0,0,1-2.9,3.169,7.675,7.675,0,0,1-4.257,1.034,9.889,9.889,0,0,1-4.257-1.3,14.377,14.377,0,0,1-6.015-6.805,17.332,17.332,0,0,1-1.253-9.293,16.944,16.944,0,0,1,1.35-4.573,17.6,17.6,0,0,1,1.143-2.074l.705-.943a9.085,9.085,0,0,1,.772-.888,15.4,15.4,0,0,1,3.649-2.858A18.323,18.323,0,0,1,297.1,141.8a17.114,17.114,0,0,1,8.8.128,13.035,13.035,0,0,1,7.006,4.64,6.69,6.69,0,0,1,1.277,3.892,5.193,5.193,0,0,1-1.441,3.7,5.321,5.321,0,0,1-3.588,1.441,7.073,7.073,0,0,1-3.649-.918,11.305,11.305,0,0,1-2.858-2.244,13.988,13.988,0,0,1-2.1-2.8,16.037,16.037,0,0,1-1.606-12.163,14.535,14.535,0,0,1,2.354-4.75,16.007,16.007,0,0,1,6.69-5.139,15.2,15.2,0,0,1,5.224-1.143,10.625,10.625,0,0,1,1.4,0Z" transform="translate(-232.536 -126.422)" fill="#263238"/>
      <rect id="Rectangle_27076" data-name="Rectangle 27076" width="85.27" height="65.767" transform="translate(17.503 60.924)" fill="#00ae9f"/>
      <path id="Path_34999" data-name="Path 34999" d="M230.75,226.6,246.5,241.293h83.823L316.02,226.6Z" transform="translate(-213.247 -165.676)" fill="#00ae9f"/>
      <path id="Path_35000" data-name="Path 35000" d="M230.75,226.5l85.295-.152h.067l.049.043,14.158,14.541.146.152.262.268h-.377l-83.823-.067h-.036L230.75,226.5l15.812,14.6H246.5l83.823-.061-.109.268-.152-.152L315.9,226.612l.109.049Z" transform="translate(-213.247 -165.578)" fill="#263238"/>
      <path id="Path_35004" data-name="Path 35004" d="M231.07,227.79l15.082,19.121h69.993v-5.151H246.627Z" transform="translate(-213.372 -166.142)" opacity="0.5"/>
      <path id="Path_35005" data-name="Path 35005" d="M343.208,301.586c-.085,0-.158-11.44-.158-25.543s.073-25.543.158-25.543.164,11.433.164,25.543S343.3,301.586,343.208,301.586Z" transform="translate(-257.251 -175.041)" fill="#263238"/>
      <rect id="Rectangle_27077" data-name="Rectangle 27077" width="7.517" height="8.496" transform="translate(91.832 111.633)" fill="#f5f5f5"/>
      <path id="Path_35006" data-name="Path 35006" d="M219.473,226.6l-17.5,14.693h17.5Z" transform="translate(-201.97 -165.676)" fill="#00ae9f"/>
      <g id="Group_11940" data-name="Group 11940" transform="translate(0 60.924)" opacity="0.4">
        <path id="Path_35007" data-name="Path 35007" d="M219.473,226.6l-17.5,14.693h17.5Z" transform="translate(-201.97 -226.6)"/>
      </g>
      <rect id="Rectangle_27078" data-name="Rectangle 27078" width="98.042" height="75.619" transform="translate(7.249 126.691)" fill="#5e2d77"/>
      <path id="Path_35008" data-name="Path 35008" d="M334.608,409.694c-.085,0-.158-16.852-.158-37.639s.073-37.645.158-37.645.158,16.852.158,37.645S334.693,409.694,334.608,409.694Z" transform="translate(-253.881 -207.92)" fill="#263238"/>
      <rect id="Rectangle_27080" data-name="Rectangle 27080" width="7.517" height="8.496" transform="translate(89.461 185.099)" fill="#f5f5f5"/>
      <rect id="Rectangle_27081" data-name="Rectangle 27081" width="11.135" height="16.135" transform="translate(37.159 126.892)" fill="#0e1740" opacity="0.8"/>
      <rect id="Rectangle_27082" data-name="Rectangle 27082" width="11.135" height="16.135" transform="translate(37.159 185.95)" fill="#0e1740" opacity="0.8"/>
      <path id="Path_35009" data-name="Path 35009" d="M311.08,334.681h-.991l-2.828.03-10.418.049-34.355.079-34.367-.043-10.412-.049-2.828-.03h0l2.828-.03,10.412-.049,34.367-.049,34.355.049,10.418.049,2.828.03h.736Z" transform="translate(-206.641 -207.99)" fill="#263238"/>
    </g>
    <g id="freepik--speech-bubble--inject-4" transform="translate(30.267 53.221)">
      <path id="Path_35010" data-name="Path 35010" d="M72.96,96.534,62.281,93.907h.079a17.728,17.728,0,0,1-9.214,2.767,19.382,19.382,0,0,1-5.711-.833,17.9,17.9,0,0,1-12.3-14.863,17.637,17.637,0,0,1,4.586-14.249,18.294,18.294,0,0,1,3.1-2.712c.572-.359,1.143-.73,1.739-1.04l.906-.438.45-.219.474-.17A17.848,17.848,0,0,1,69.731,72.955a18.525,18.525,0,0,1,.985,5.765,17.691,17.691,0,0,1-2.56,9.25v-.1c2.968,5.358,4.464,8.064,4.8,8.66-.347-.608-1.9-3.266-4.969-8.569v-.1a17.551,17.551,0,0,0,2.433-9.122,18.111,18.111,0,0,0-1-5.668A17.513,17.513,0,0,0,46.517,62.5l-.462.164-.444.219-.888.426c-.608.31-1.143.669-1.709,1.022a18.068,18.068,0,0,0-3.041,2.639,17.327,17.327,0,0,0-4.506,13.988,17.594,17.594,0,0,0,6.586,11.695,17.314,17.314,0,0,0,5.473,2.919,18.95,18.95,0,0,0,5.613.845,17.564,17.564,0,0,0,9.122-2.67h.1Z" transform="translate(-34.997 -60.935)" fill="#263238"/>
      <path id="Path_35011" data-name="Path 35011" d="M62,76.52l.541,8.94A1.447,1.447,0,0,0,63.9,86.816h0a1.453,1.453,0,0,0,1.526-1.289l.991-8.958a1.137,1.137,0,0,0-1.149-1.259H63.093A1.131,1.131,0,0,0,62,76.52Z" transform="translate(-45.576 -66.568)" fill="#5e2d77"/>
      <path id="Path_35012" data-name="Path 35012" d="M66.266,100.593a2.177,2.177,0,1,1-.119-1.664,2.177,2.177,0,0,1,.119,1.664Z" transform="translate(-45.586 -75.352)" fill="#5e2d77"/>
    </g>
  </g>
</svg>
