<svg width="17" height="17" viewBox="0 0 17 17" fill="none" xmlns="http://www.w3.org/2000/svg">
<g clip-path="url(#clip0_1_1106)">
<path d="M11.7292 0.75H5.27092C3.49035 0.75 2.04175 2.1986 2.04175 3.97917V13.0208C2.04175 14.8014 3.49035 16.25 5.27092 16.25H11.7292C13.5098 16.25 14.9584 14.8014 14.9584 13.0208V3.97917C14.9584 2.1986 13.5098 0.75 11.7292 0.75ZM8.51494 3.44377C8.87725 3.44377 9.07681 4.90658 9.14592 6.5625H7.88396C7.95306 4.90658 8.15262 3.44377 8.51494 3.44377ZM9.14592 7.85417C9.07681 9.51008 8.86498 10.9729 8.51494 10.9729C8.16489 10.9729 7.95306 9.51008 7.88396 7.85417H9.14592ZM6.27971 4.05537C6.5445 3.86744 6.91133 4.0909 6.8461 4.40929C6.684 5.19398 6.61941 6.00644 6.59423 6.5625H4.69871C4.87308 5.52917 5.45885 4.63792 6.27971 4.05537ZM4.69871 7.85417H6.59423C6.61941 8.41023 6.68464 9.22269 6.8461 10.0074C6.91198 10.3258 6.54514 10.5492 6.27971 10.3613C5.45885 9.77875 4.87308 8.8875 4.69871 7.85417ZM11.0841 13.6667H5.91675C5.5596 13.6667 5.27092 13.3773 5.27092 13.0208C5.27092 12.6643 5.5596 12.375 5.91675 12.375H11.0834C11.4406 12.375 11.7292 12.6643 11.7292 13.0208C11.7292 13.3773 11.4412 13.6667 11.0841 13.6667ZM10.7508 10.3613C10.486 10.5492 10.1192 10.3258 10.1844 10.0074C10.3465 9.22269 10.4111 8.41023 10.4363 7.85417H12.3318C12.1574 8.8875 11.5717 9.77875 10.7508 10.3613ZM10.4363 6.5625C10.4111 6.00644 10.3459 5.19398 10.1844 4.40929C10.1185 4.0909 10.4854 3.86744 10.7508 4.05537C11.5717 4.63727 12.1574 5.52917 12.3318 6.5625H10.4363Z" fill="#00417E"/>
</g>
<defs>
<clipPath id="clip0_1_1106">
<rect width="15.5" height="15.5" fill="white" transform="translate(0.75 0.75)"/>
</clipPath>
</defs>
</svg>
