<svg width="45" height="45" viewBox="0 0 45 45" fill="none" xmlns="http://www.w3.org/2000/svg">
<circle cx="22.5" cy="22.4087" r="22" fill="#00A8A5"/>
<path d="M32.47 28.7387C32.47 29.0987 32.39 29.4687 32.22 29.8287C32.05 30.1887 31.83 30.5287 31.54 30.8487C31.05 31.3887 30.51 31.7787 29.9 32.0287C29.3 32.2787 28.65 32.4087 27.95 32.4087C26.93 32.4087 25.84 32.1687 24.69 31.6787C23.54 31.1887 22.39 30.5287 21.25 29.6987C20.0881 28.8488 18.9917 27.9128 17.97 26.8987C16.9588 25.8807 16.0261 24.7876 15.18 23.6287C14.36 22.4887 13.7 21.3487 13.22 20.2187C12.74 19.0787 12.5 17.9887 12.5 16.9487C12.5 16.2687 12.62 15.6187 12.86 15.0187C13.1 14.4087 13.48 13.8487 14.01 13.3487C14.65 12.7187 15.35 12.4087 16.09 12.4087C16.37 12.4087 16.65 12.4687 16.9 12.5887C17.16 12.7087 17.39 12.8887 17.57 13.1487L19.89 16.4187C20.07 16.6687 20.2 16.8987 20.29 17.1187C20.38 17.3287 20.43 17.5387 20.43 17.7287C20.43 17.9687 20.36 18.2087 20.22 18.4387C20.09 18.6687 19.9 18.9087 19.66 19.1487L18.9 19.9387C18.79 20.0487 18.74 20.1787 18.74 20.3387C18.74 20.4187 18.75 20.4887 18.77 20.5687C18.8 20.6487 18.83 20.7087 18.85 20.7687C19.03 21.0987 19.34 21.5287 19.78 22.0487C20.23 22.5687 20.71 23.0987 21.23 23.6287C21.77 24.1587 22.29 24.6487 22.82 25.0987C23.34 25.5387 23.77 25.8387 24.11 26.0187C24.16 26.0387 24.22 26.0687 24.29 26.0987C24.37 26.1287 24.45 26.1387 24.54 26.1387C24.71 26.1387 24.84 26.0787 24.95 25.9687L25.71 25.2187C25.96 24.9687 26.2 24.7787 26.43 24.6587C26.66 24.5187 26.89 24.4487 27.14 24.4487C27.33 24.4487 27.53 24.4887 27.75 24.5787C27.97 24.6687 28.2 24.7987 28.45 24.9687L31.76 27.3187C32.02 27.4987 32.2 27.7087 32.31 27.9587C32.41 28.2087 32.47 28.4587 32.47 28.7387Z" fill="#00A8A5" stroke="white" stroke-width="1.5" stroke-miterlimit="10"/>
</svg>
