<svg width="19" height="19" viewBox="0 0 19 19" fill="none" xmlns="http://www.w3.org/2000/svg">
<path fill-rule="evenodd" clip-rule="evenodd" d="M11.6944 4.13637L3.22632 12.6045C3.22632 12.6045 3.22633 12.6044 3.22632 12.6045C2.63626 13.1946 2.22169 13.861 2.09807 14.5777C2.02317 15.012 1.98017 15.4635 2.00899 15.849C2.03929 16.2544 2.13934 16.46 2.22476 16.5454C2.31017 16.6308 2.51579 16.7309 2.92119 16.7612C3.30668 16.79 3.75816 16.747 4.19239 16.6721C4.90917 16.5485 5.57559 16.1339 6.16562 15.5438L14.6337 7.07572L11.6944 4.13637ZM15.6944 7.07572C16.2247 7.60605 16.2249 7.60586 16.2251 7.60566L16.2267 7.6041L16.2297 7.60105L16.2389 7.59165L16.2696 7.55995C16.2952 7.53323 16.3307 7.49538 16.3744 7.44741C16.4615 7.3516 16.5813 7.21457 16.7176 7.04424C16.9877 6.70657 17.3339 6.22378 17.6152 5.66113C18.1614 4.56874 18.577 2.89766 17.2247 1.54538C15.8725 0.193109 14.2014 0.608703 13.109 1.15489C12.5463 1.43622 12.0635 1.78243 11.7259 2.05256C11.5555 2.18883 11.4185 2.30867 11.3227 2.39576C11.2747 2.43937 11.2369 2.47497 11.2102 2.50053L11.1785 2.53117L11.1691 2.54042L11.166 2.54345L11.1649 2.54455C11.1647 2.54475 11.1641 2.54538 11.6942 3.07554L11.1641 2.54538L2.16564 11.5438C1.43841 12.2711 0.812895 13.2037 0.619894 14.3228C0.53494 14.8153 0.471418 15.4023 0.513161 15.9608C0.553415 16.4993 0.701011 17.143 1.16409 17.6061C1.62717 18.0692 2.27088 18.2168 2.80939 18.257C3.3678 18.2987 3.95479 18.2352 4.44736 18.1502C5.56641 17.9572 6.49903 17.3318 7.2263 16.6045C7.2263 16.6045 7.22631 16.6045 7.2263 16.6045L16.2251 7.60566L15.6944 7.07572ZM15.6516 5.9723C15.8577 5.70226 16.0874 5.36263 16.2736 4.9903C16.7274 4.08269 16.8118 3.25377 16.1641 2.60604C15.5163 1.95832 14.6874 2.04273 13.7798 2.49654C13.4075 2.6827 13.0679 2.91244 12.7978 3.11847L15.6516 5.9723Z" fill="white"/>
</svg>
