<svg width="25" height="25" viewBox="0 0 25 25" fill="none" xmlns="http://www.w3.org/2000/svg">
<path d="M24.1924 10.3999C23.9107 10.0673 23.5598 9.80017 23.1643 9.61711C22.7687 9.43404 22.338 9.33944 21.9022 9.33989H18.4758L14.2009 1.87204C13.9746 1.44888 13.6466 1.08875 13.2463 0.824181C12.8459 0.559613 12.386 0.398942 11.9081 0.356683C11.4301 0.314424 10.9491 0.391909 10.5086 0.582138C10.0681 0.772368 9.68191 1.06935 9.38494 1.44625C9.13583 1.79346 8.97293 2.19497 8.90969 2.6176C8.84645 3.04022 8.8847 3.47183 9.02127 3.87675L10.9649 9.33989H6.40542L4.98679 7.43636C4.76513 7.09741 4.46241 6.81912 4.10607 6.62669C3.74972 6.43426 3.35099 6.33376 2.946 6.33431C2.61114 6.33361 2.28106 6.41381 1.98385 6.5681C1.68665 6.72238 1.43111 6.94618 1.23899 7.22044C1.04686 7.49471 0.923834 7.81133 0.880375 8.14336C0.836916 8.4754 0.87431 8.81302 0.989375 9.12749L2.86686 12.3455L0.989375 15.5634C0.874427 15.8776 0.836991 16.2148 0.880247 16.5466C0.923503 16.8783 1.04617 17.1947 1.23784 17.4688C1.42951 17.743 1.68451 17.9669 1.98119 18.1214C2.27787 18.276 2.60747 18.3567 2.942 18.3566C3.34698 18.3572 3.74571 18.2567 4.10206 18.0642C4.45841 17.8718 4.76112 17.5935 4.98278 17.2546L6.40542 15.351H10.9649L9.02127 20.8142C8.8847 21.2191 8.84645 21.6507 8.90969 22.0733C8.97293 22.4959 9.13583 22.8975 9.38494 23.2447C9.68191 23.6216 10.0681 23.9186 10.5086 24.1088C10.9491 24.299 11.4301 24.3765 11.9081 24.3342C12.386 24.292 12.8459 24.1313 13.2463 23.8667C13.6466 23.6022 13.9746 23.242 14.2009 22.8189L18.4758 15.351H21.9022C22.4738 15.3464 23.0324 15.1795 23.5128 14.8697C23.9933 14.5598 24.3758 14.1198 24.6158 13.601C24.8558 13.0821 24.9434 12.5057 24.8685 11.939C24.7935 11.3723 24.559 10.8385 24.1924 10.3999Z" fill="#74F8F6"/>
</svg>
