<svg width="25" height="24" viewBox="0 0 25 24" fill="none" xmlns="http://www.w3.org/2000/svg">
<path d="M24.1924 10.0612C23.9107 9.72867 23.5598 9.46155 23.1643 9.27848C22.7687 9.09542 22.338 9.00081 21.9022 9.00126H18.4758L14.2009 1.53341C13.9746 1.11026 13.6466 0.750127 13.2463 0.485558C12.8459 0.22099 12.386 0.0603185 11.9081 0.0180598C11.4301 -0.0241989 10.9491 0.0532863 10.5086 0.243515C10.0681 0.433745 9.68191 0.730724 9.38494 1.10762C9.13583 1.45484 8.97293 1.85635 8.90969 2.27897C8.84645 2.7016 8.8847 3.13321 9.02127 3.53813L10.9649 9.00126H6.40542L4.98679 7.09773C4.76513 6.75879 4.46241 6.4805 4.10607 6.28807C3.74972 6.09564 3.35099 5.99514 2.946 5.99569C2.61114 5.99499 2.28106 6.07519 1.98385 6.22947C1.68665 6.38376 1.43111 6.60755 1.23899 6.88182C1.04686 7.15609 0.923834 7.47271 0.880375 7.80474C0.836916 8.13678 0.87431 8.47439 0.989375 8.78887L2.86686 12.0068L0.989375 15.2248C0.874427 15.539 0.836991 15.8762 0.880247 16.2079C0.923503 16.5397 1.04617 16.856 1.23784 17.1302C1.42951 17.4044 1.68451 17.6283 1.98119 17.7828C2.27787 17.9374 2.60747 18.018 2.942 18.018C3.34698 18.0185 3.74571 17.918 4.10206 17.7256C4.45841 17.5332 4.76112 17.2549 4.98278 16.9159L6.40542 15.0124H10.9649L9.02127 20.4755C8.8847 20.8805 8.84645 21.3121 8.90969 21.7347C8.97293 22.1573 9.13583 22.5588 9.38494 22.906C9.68191 23.2829 10.0681 23.5799 10.5086 23.7702C10.9491 23.9604 11.4301 24.0379 11.9081 23.9956C12.386 23.9534 12.8459 23.7927 13.2463 23.5281C13.6466 23.2635 13.9746 22.9034 14.2009 22.4803L18.4758 15.0124H21.9022C22.4738 15.0078 23.0324 14.8409 23.5128 14.531C23.9933 14.2212 24.3758 13.7812 24.6158 13.2624C24.8558 12.7435 24.9434 12.1671 24.8685 11.6004C24.7935 11.0336 24.559 10.4999 24.1924 10.0612Z" fill="#FFCCA0"/>
</svg>
