<svg width="33" height="25" viewBox="0 0 33 25" fill="none" xmlns="http://www.w3.org/2000/svg">
<path d="M31.5453 9.67879C32.2827 9.67879 32.8787 9.08279 32.8787 8.34546V7.01213C32.8787 3.33613 29.888 0.345459 26.212 0.345459H8.87866V3.01213C8.87866 3.74946 8.28266 4.34546 7.54533 4.34546C6.808 4.34546 6.212 3.74946 6.212 3.01213V0.480126C3.17333 1.10013 0.878662 3.79346 0.878662 7.01213V17.6788C0.878662 20.8975 3.17333 23.5908 6.212 24.2108V21.6788C6.212 20.9415 6.808 20.3455 7.54533 20.3455C8.28266 20.3455 8.87866 20.9415 8.87866 21.6788V24.3455H26.212C29.888 24.3455 32.8787 21.3548 32.8787 17.6788V16.3455C32.8787 15.6081 32.2827 15.0121 31.5453 15.0121C30.0747 15.0121 28.8787 13.8161 28.8787 12.3455C28.8787 10.8748 30.0747 9.67879 31.5453 9.67879ZM8.87866 16.3455C8.87866 17.0828 8.28266 17.6788 7.54533 17.6788C6.808 17.6788 6.212 17.0828 6.212 16.3455V15.0121C6.212 14.2748 6.808 13.6788 7.54533 13.6788C8.28266 13.6788 8.87866 14.2748 8.87866 15.0121V16.3455ZM8.87866 9.67879C8.87866 10.4161 8.28266 11.0121 7.54533 11.0121C6.808 11.0121 6.212 10.4161 6.212 9.67879V8.34546C6.212 7.60813 6.808 7.01213 7.54533 7.01213C8.28266 7.01213 8.87866 7.60813 8.87866 8.34546V9.67879ZM23.5453 13.6788H21.5453L18.9973 16.9068C18.7373 17.3828 18.2387 17.6788 17.6973 17.6788H17.2707C16.7613 17.6788 16.412 17.1668 16.596 16.6921L17.768 13.6788H16.008C15.4187 13.6788 14.8587 13.4188 14.4787 12.9681L13.0173 11.2348C12.6213 10.5415 13.1213 9.67879 13.92 9.67879C14.196 9.67879 14.46 9.78813 14.6547 9.98279L16.1347 11.0121H17.7893L16.6013 8.00146C16.4133 7.52679 16.764 7.01213 17.2747 7.01213H17.672C18.2147 7.01213 18.7133 7.30813 18.972 7.78413L21.544 11.0121H23.544C24.28 11.0121 24.8773 11.6095 24.8773 12.3455C24.8773 13.0815 24.2813 13.6788 23.5453 13.6788Z" fill="#62B3FF"/>
</svg>
