<svg width="37" height="36" viewBox="0 0 37 36" fill="none" xmlns="http://www.w3.org/2000/svg">
<rect x="0.576904" y="0.00610352" width="36" height="36" rx="18" fill="#8A8C8E"/>
<path d="M28.2368 16.4461L27.2568 20.6261C26.4168 24.2361 24.7568 25.6961 21.6368 25.3961C21.1368 25.3561 20.5968 25.2661 20.0168 25.1261L18.3368 24.7261C14.1668 23.7361 12.8768 21.6761 13.8568 17.4961L14.8368 13.3061C15.0368 12.4561 15.2768 11.7161 15.5768 11.1061C16.7468 8.68611 18.7368 8.03611 22.0768 8.82611L23.7468 9.21611C27.9368 10.1961 29.2168 12.2661 28.2368 16.4461Z" stroke="white" stroke-width="1.5" stroke-linecap="round" stroke-linejoin="round"/>
<path d="M19.2172 14.5362L24.0672 15.7662M18.2372 18.4062L21.1372 19.1462M21.6372 25.3962C21.0172 25.8162 20.2372 26.1662 19.2872 26.4762L17.7072 26.9962C13.7372 28.2762 11.6472 27.2062 10.3572 23.2362L9.07725 19.2862C7.79725 15.3162 8.85725 13.2162 12.8272 11.9362L14.4072 11.4162C14.8172 11.2862 15.2072 11.1762 15.5772 11.1062C15.2772 11.7162 15.0372 12.4562 14.8372 13.3062L13.8572 17.4962C12.8772 21.6762 14.1672 23.7362 18.3372 24.7262L20.0172 25.1262C20.5972 25.2662 21.1372 25.3562 21.6372 25.3962Z" stroke="white" stroke-width="1.5" stroke-linecap="round" stroke-linejoin="round"/>
</svg>
