<svg width="28" height="25" viewBox="0 0 28 25" fill="none" xmlns="http://www.w3.org/2000/svg">
<path fill-rule="evenodd" clip-rule="evenodd" d="M27.7735 10.9816L27.4526 13.9039C26.9238 18.7191 26.6595 21.1266 25.0039 22.5783C23.3482 24.03 20.8667 24.03 15.9039 24.03H12.0961C7.13324 24.03 4.65179 24.03 2.99612 22.5783C1.34047 21.1266 1.07611 18.7191 0.547397 13.9039L0.226531 10.9816C-0.0254833 8.68647 -0.151483 7.5389 0.306583 7.06451C0.554369 6.80791 0.891321 6.65067 1.25158 6.62355C1.91755 6.57341 2.75391 7.38951 4.42662 9.02171C5.29168 9.86583 5.72421 10.2879 6.20672 10.3533C6.47407 10.3894 6.74649 10.3522 6.99336 10.2457C7.43891 10.0535 7.73598 9.53177 8.3301 8.48825L11.4617 2.98786C12.5843 1.01597 13.1457 0.0300293 14 0.0300293C14.8543 0.0300293 15.4157 1.01597 16.5383 2.98785L19.6699 8.48824C20.264 9.53177 20.5611 10.0535 21.0066 10.2457C21.2535 10.3522 21.526 10.3894 21.7932 10.3533C22.2758 10.2879 22.7083 9.86583 23.5733 9.02171C25.2461 7.38951 26.0824 6.57341 26.7484 6.62355C27.1086 6.65067 27.4456 6.80791 27.6934 7.06451C28.1515 7.5389 28.0255 8.68647 27.7735 10.9816ZM15.3334 12.8688L15.1957 12.6573C14.6637 11.8392 14.3977 11.4303 14 11.4303C13.6023 11.4303 13.3363 11.8392 12.8043 12.6573L12.6666 12.8688C12.5156 13.1013 12.44 13.2176 12.3221 13.2942C12.2042 13.3709 12.0575 13.3993 11.7639 13.4563L11.4967 13.5082C10.4635 13.7085 9.94701 13.8087 9.82412 14.1474C9.70123 14.4862 10.0534 14.8391 10.7576 15.5449L10.9399 15.7276C11.14 15.9282 11.24 16.0286 11.2851 16.1526C11.3301 16.2767 11.3149 16.4105 11.2847 16.6781L11.2571 16.9218C11.1507 17.8636 11.0974 18.3346 11.4191 18.5439C11.741 18.7533 12.2245 18.5623 13.1918 18.1806L13.442 18.0819C13.7169 17.9734 13.8543 17.9192 14 17.9192C14.1457 17.9192 14.2831 17.9734 14.558 18.0819L14.8082 18.1806C15.7755 18.5623 16.259 18.7533 16.5809 18.5439C16.9026 18.3346 16.8493 17.8636 16.7429 16.9218L16.7153 16.6781C16.6851 16.4105 16.6699 16.2767 16.7149 16.1526C16.76 16.0286 16.8601 15.9282 17.0601 15.7276L17.2424 15.5449C17.9466 14.8391 18.2988 14.4862 18.1759 14.1474C18.053 13.8087 17.5364 13.7085 16.5033 13.5082L16.2361 13.4563C15.9425 13.3993 15.7958 13.3709 15.6779 13.2942C15.56 13.2176 15.4844 13.1013 15.3334 12.8688Z" fill="white"/>
</svg>
