<svg width="13" height="17" viewBox="0 0 13 17" fill="none" xmlns="http://www.w3.org/2000/svg">
<path d="M3.91667 0.75C3.06055 0.751025 2.2398 1.09157 1.63443 1.69693C1.02907 2.3023 0.688525 3.12305 0.6875 3.97917V15.6042C0.687591 15.7216 0.719718 15.8369 0.780424 15.9374C0.841129 16.038 0.928113 16.1201 1.03201 16.1749C1.13591 16.2297 1.25279 16.2551 1.37007 16.2485C1.48735 16.2418 1.60058 16.2032 1.69758 16.137L3.05771 15.2076L4.41783 16.137C4.52529 16.2106 4.65249 16.2499 4.78273 16.2499C4.91297 16.2499 5.04017 16.2106 5.14762 16.137L6.50387 15.2076L7.86012 16.137C7.96765 16.2107 8.09497 16.2502 8.22534 16.2502C8.35572 16.2502 8.48304 16.2107 8.59056 16.137L9.94681 15.2083L11.3031 16.1363C11.4 16.2024 11.5131 16.2408 11.6302 16.2474C11.7474 16.254 11.8641 16.2286 11.9679 16.1739C12.0716 16.1192 12.1585 16.0372 12.2193 15.9369C12.28 15.8365 12.3122 15.7215 12.3125 15.6042V3.97917C12.3115 3.12305 11.9709 2.3023 11.3656 1.69693C10.7602 1.09157 9.93945 0.751025 9.08333 0.75L3.91667 0.75ZM7.79167 9.79167H3.91667C3.74538 9.79167 3.58111 9.72362 3.45999 9.60251C3.33888 9.48139 3.27083 9.31712 3.27083 9.14583C3.27083 8.97455 3.33888 8.81028 3.45999 8.68916C3.58111 8.56804 3.74538 8.5 3.91667 8.5H7.79167C7.96295 8.5 8.12722 8.56804 8.24834 8.68916C8.36946 8.81028 8.4375 8.97455 8.4375 9.14583C8.4375 9.31712 8.36946 9.48139 8.24834 9.60251C8.12722 9.72362 7.96295 9.79167 7.79167 9.79167ZM9.72917 6.5625C9.72917 6.73379 9.66112 6.89806 9.54001 7.01917C9.41889 7.14029 9.25462 7.20833 9.08333 7.20833H3.91667C3.74538 7.20833 3.58111 7.14029 3.45999 7.01917C3.33888 6.89806 3.27083 6.73379 3.27083 6.5625C3.27083 6.39121 3.33888 6.22694 3.45999 6.10583C3.58111 5.98471 3.74538 5.91667 3.91667 5.91667H9.08333C9.25462 5.91667 9.41889 5.98471 9.54001 6.10583C9.66112 6.22694 9.72917 6.39121 9.72917 6.5625Z" fill="#00417E"/>
</svg>
