<svg width="11" height="11" viewBox="0 0 11 11" fill="none" xmlns="http://www.w3.org/2000/svg">
<path fill-rule="evenodd" clip-rule="evenodd" d="M5.56273 10.9758C2.55974 10.9758 0.125488 8.54156 0.125488 5.53856C0.125488 2.53557 2.55974 0.101318 5.56273 0.101318C8.56573 0.101318 11 2.53557 11 5.53856C11 8.54156 8.56573 10.9758 5.56273 10.9758ZM9.91253 5.53856C9.91253 4.38493 9.45425 3.27854 8.63851 2.46279C7.82276 1.64705 6.71637 1.18877 5.56273 1.18877C4.4091 1.18877 3.30271 1.64705 2.48696 2.46279C1.67122 3.27854 1.21294 4.38493 1.21294 5.53856C1.21294 6.6922 1.67122 7.79859 2.48696 8.61434C3.30271 9.43008 4.4091 9.88836 5.56273 9.88836C6.71637 9.88836 7.82276 9.43008 8.63851 8.61434C9.45425 7.79859 9.91253 6.6922 9.91253 5.53856ZM7.73763 4.99484C7.88184 4.99484 8.02014 5.05213 8.12211 5.15409C8.22407 5.25606 8.28136 5.39436 8.28136 5.53856C8.28136 5.68277 8.22407 5.82107 8.12211 5.92304C8.02014 6.025 7.88184 6.08229 7.73763 6.08229H6.10646C5.50836 6.08229 5.01901 5.59294 5.01901 4.99484V2.81994C5.01901 2.67574 5.0763 2.53744 5.17826 2.43547C5.28023 2.3335 5.41853 2.27622 5.56273 2.27622C5.70694 2.27622 5.84524 2.3335 5.94721 2.43547C6.04917 2.53744 6.10646 2.67574 6.10646 2.81994V4.99484H7.73763Z" fill="#9196AE"/>
</svg>
