<svg width="31" height="31" viewBox="0 0 31 31" fill="none" xmlns="http://www.w3.org/2000/svg">
<g clip-path="url(#clip0_1_610)">
<path d="M15.8333 15.5208C17.3166 15.5208 18.7667 15.0809 20 14.2568C21.2334 13.4327 22.1947 12.2613 22.7623 10.8909C23.33 9.52044 23.4785 8.01244 23.1891 6.55758C22.8998 5.10272 22.1854 3.76635 21.1366 2.71745C20.0877 1.66856 18.7513 0.954255 17.2964 0.664866C15.8416 0.375477 14.3336 0.524002 12.9631 1.09166C11.5927 1.65932 10.4213 2.62061 9.59723 3.85398C8.77312 5.08735 8.33325 6.5374 8.33325 8.02076C8.33524 10.0093 9.12605 11.9158 10.5321 13.3219C11.9382 14.728 13.8447 15.5188 15.8333 15.5208ZM15.8333 3.02076C16.8222 3.02076 17.7889 3.314 18.6111 3.86341C19.4333 4.41281 20.0742 5.19371 20.4527 6.10734C20.8311 7.02097 20.9301 8.0263 20.7372 8.99621C20.5443 9.96611 20.068 10.857 19.3688 11.5563C18.6695 12.2556 17.7786 12.7318 16.8087 12.9247C15.8388 13.1176 14.8335 13.0186 13.9198 12.6402C13.0062 12.2617 12.2253 11.6209 11.6759 10.7986C11.1265 9.97636 10.8333 9.00966 10.8333 8.02076C10.8333 6.69467 11.36 5.4229 12.2977 4.48522C13.2354 3.54754 14.5072 3.02076 15.8333 3.02076Z" fill="#CCCCCF"/>
<path d="M15.8333 18.0208C12.8506 18.0241 9.99102 19.2104 7.88195 21.3195C5.77289 23.4285 4.58656 26.2881 4.58325 29.2708C4.58325 29.6023 4.71495 29.9202 4.94937 30.1546C5.18379 30.3891 5.50173 30.5208 5.83325 30.5208C6.16477 30.5208 6.48271 30.3891 6.71714 30.1546C6.95156 29.9202 7.08325 29.6023 7.08325 29.2708C7.08325 26.9501 8.00512 24.7245 9.64607 23.0836C11.287 21.4426 13.5126 20.5208 15.8333 20.5208C18.1539 20.5208 20.3795 21.4426 22.0204 23.0836C23.6614 24.7245 24.5833 26.9501 24.5833 29.2708C24.5833 29.6023 24.7149 29.9202 24.9494 30.1546C25.1838 30.3891 25.5017 30.5208 25.8333 30.5208C26.1648 30.5208 26.4827 30.3891 26.7171 30.1546C26.9516 29.9202 27.0833 29.6023 27.0833 29.2708C27.0799 26.2881 25.8936 23.4285 23.7845 21.3195C21.6755 19.2104 18.8159 18.0241 15.8333 18.0208Z" fill="#CCCCCF"/>
</g>
<defs>
<clipPath id="clip0_1_610">
<rect width="30" height="30" fill="white" transform="translate(0.833252 0.520752)"/>
</clipPath>
</defs>
</svg>
