<svg width="37" height="36" viewBox="0 0 37 36" fill="none" xmlns="http://www.w3.org/2000/svg">
<rect x="0.576904" y="0.00610352" width="36" height="36" rx="18" fill="#3596EE"/>
<g clip-path="url(#clip0_1_804)">
<path d="M18.5769 7.0061C16.4013 7.0061 14.2746 7.65124 12.4656 8.85994C10.6567 10.0686 9.2468 11.7866 8.41423 13.7966C7.58167 15.8066 7.36383 18.0183 7.78827 20.1521C8.21271 22.2859 9.26036 24.2459 10.7987 25.7843C12.3371 27.3227 14.2971 28.3703 16.4309 28.7947C18.5647 29.2192 20.7764 29.0013 22.7864 28.1688C24.7964 27.3362 26.5144 25.9263 27.7231 24.1174C28.9318 22.3084 29.5769 20.1817 29.5769 18.0061C29.5738 15.0897 28.4138 12.2936 26.3516 10.2314C24.2894 8.1692 21.4933 7.00926 18.5769 7.0061ZM18.5769 27.1728C16.7639 27.1728 14.9916 26.6352 13.4842 25.6279C11.9767 24.6207 10.8018 23.189 10.108 21.514C9.41421 19.839 9.23268 17.9959 9.58638 16.2178C9.94008 14.4396 10.8131 12.8063 12.0951 11.5243C13.3771 10.2423 15.0104 9.36927 16.7886 9.01557C18.5667 8.66187 20.4099 8.8434 22.0848 9.53721C23.7598 10.231 25.1915 11.4059 26.1987 12.9134C27.206 14.4208 27.7436 16.1931 27.7436 18.0061C27.7409 20.4364 26.7743 22.7665 25.0558 24.485C23.3373 26.2035 21.0072 27.1701 18.5769 27.1728Z" fill="white"/>
<path d="M18.577 16.1729H17.6603C17.4172 16.1729 17.184 16.2694 17.0121 16.4413C16.8402 16.6132 16.7437 16.8464 16.7437 17.0895C16.7437 17.3326 16.8402 17.5658 17.0121 17.7377C17.184 17.9096 17.4172 18.0062 17.6603 18.0062H18.577V23.5062C18.577 23.7493 18.6736 23.9825 18.8455 24.1544C19.0174 24.3263 19.2505 24.4229 19.4937 24.4229C19.7368 24.4229 19.9699 24.3263 20.1418 24.1544C20.3137 23.9825 20.4103 23.7493 20.4103 23.5062V18.0062C20.4103 17.52 20.2172 17.0536 19.8733 16.7098C19.5295 16.366 19.0632 16.1729 18.577 16.1729Z" fill="white"/>
<path d="M18.5769 14.3394C19.3363 14.3394 19.9519 13.7237 19.9519 12.9644C19.9519 12.205 19.3363 11.5894 18.5769 11.5894C17.8175 11.5894 17.2019 12.205 17.2019 12.9644C17.2019 13.7237 17.8175 14.3394 18.5769 14.3394Z" fill="white"/>
</g>
<defs>
<clipPath id="clip0_1_804">
<rect width="22" height="22" fill="white" transform="translate(7.5769 7.0061)"/>
</clipPath>
</defs>
</svg>
