<svg xmlns="http://www.w3.org/2000/svg" width="354" height="239.559" viewBox="0 0 354 239.559">
  <g id="Social_media-rafiki" data-name="Social media-rafiki" transform="translate(0 -79.213)">
    <g id="freepik--background-complete--inject-11" transform="translate(0 79.213)">
      <rect id="Rectangle_26912" data-name="Rectangle 26912" width="354" height="0.177" transform="translate(0 231.799)" fill="#e0e0e0"/>
      <rect id="Rectangle_26913" data-name="Rectangle 26913" width="24.355" height="0.177" transform="translate(71.628 239.297)" fill="#e0e0e0"/>
      <rect id="Rectangle_26914" data-name="Rectangle 26914" width="13.707" height="0.177" transform="translate(52.732 239.382)" fill="#e0e0e0"/>
      <rect id="Rectangle_26915" data-name="Rectangle 26915" width="27.782" height="0.177" transform="translate(123.9 238.971)" fill="#e0e0e0"/>
      <rect id="Rectangle_26916" data-name="Rectangle 26916" width="81.972" height="0.177" transform="translate(140.736 236.451)" fill="#e0e0e0"/>
      <rect id="Rectangle_26917" data-name="Rectangle 26917" width="37.517" height="0.177" transform="translate(255.361 236.543)" fill="#e0e0e0"/>
      <path id="Path_31385" data-name="Path 31385" d="M178.953,255.222H42.246a4.043,4.043,0,0,1-4.036-4.043V59.007A4.043,4.043,0,0,1,42.246,55H178.953A4.043,4.043,0,0,1,183,59.043V251.18A4.043,4.043,0,0,1,178.953,255.222ZM42.246,55.142a3.866,3.866,0,0,0-3.859,3.866V251.18a3.866,3.866,0,0,0,3.859,3.866H178.953a3.873,3.873,0,0,0,3.866-3.866V59.007a3.873,3.873,0,0,0-3.866-3.866Z" transform="translate(-11.157 -55)" fill="#e0e0e0"/>
      <path id="Path_31386" data-name="Path 31386" d="M395.257,255.222H258.543a4.05,4.05,0,0,1-4.043-4.043V59.007A4.05,4.05,0,0,1,258.543,55H395.257a4.043,4.043,0,0,1,4.029,4.007V251.18A4.043,4.043,0,0,1,395.257,255.222ZM258.543,55.142a3.873,3.873,0,0,0-3.866,3.866V251.18a3.873,3.873,0,0,0,3.866,3.866H395.257a3.873,3.873,0,0,0,3.866-3.866V59.007a3.873,3.873,0,0,0-3.866-3.866Z" transform="translate(-74.314 -55)" fill="#e0e0e0"/>
      <path id="Path_31387" data-name="Path 31387" d="M206.828,284.61h0c-.389,0-.779,0-1.175.035a16.765,16.765,0,0,0-15.01,21.077,83.97,83.97,0,0,1,2.627,21.835V349a2.832,2.832,0,0,0,2.832,2.832h68.053V284.61Z" transform="translate(-55.5 -122.046)" fill="#e6e6e6"/>
      <path id="Path_31388" data-name="Path 31388" d="M304.524,301.406a16.765,16.765,0,0,0-33.488-1.09,16.936,16.936,0,0,0,.538,5.452,83.67,83.67,0,0,1,2.634,21.835V349.04a2.832,2.832,0,0,0,2.832,2.832h21.488a2.832,2.832,0,0,0,2.832-2.832v-22.7a76.6,76.6,0,0,1,2.591-20.454A16.745,16.745,0,0,0,304.524,301.406Z" transform="translate(-79.132 -122.084)" fill="#f2f3f5"/>
      <rect id="Rectangle_26918" data-name="Rectangle 26918" width="61.079" height="40.802" transform="translate(124.459 188.965)" fill="#e6e6e6"/>
      <path id="Path_31389" data-name="Path 31389" d="M117.17,228.61h56.357A12.687,12.687,0,0,1,186.271,241.3v62.587H104.49V241.3A12.687,12.687,0,0,1,117.17,228.61Z" transform="translate(-30.511 -105.694)" fill="#e0e0e0"/>
      <path id="Path_31390" data-name="Path 31390" d="M139.107,228.61h57.6a12.071,12.071,0,0,1,12.071,12.071v63.2H127V240.688a12.071,12.071,0,0,1,12.107-12.079Z" transform="translate(-37.084 -105.694)" fill="#f2f3f5"/>
      <path id="Path_31391" data-name="Path 31391" d="M180.977,316.64h56.3a3.682,3.682,0,0,1,3.682,3.682v9.254a3.682,3.682,0,0,1-3.682,3.682h-56.3a1.1,1.1,0,0,1-1.1-1.1V317.737a1.1,1.1,0,0,1,1.1-1.1Z" transform="translate(-52.525 -131.399)" fill="#e0e0e0"/>
      <path id="Path_31392" data-name="Path 31392" d="M89.088,284.61h0c-.389,0-.779,0-1.175.035A16.765,16.765,0,0,0,72.9,305.723a83.97,83.97,0,0,1,2.627,21.835V349a2.832,2.832,0,0,0,2.832,2.832h68.046V284.61Z" transform="translate(-21.12 -122.046)" fill="#e6e6e6"/>
      <path id="Path_31393" data-name="Path 31393" d="M186.764,301.406a16.765,16.765,0,0,0-33.488-1.09,16.936,16.936,0,0,0,.538,5.452,83.671,83.671,0,0,1,2.634,21.835V349.04a2.832,2.832,0,0,0,2.832,2.832h21.488a2.832,2.832,0,0,0,2.832-2.832v-22.7a76.6,76.6,0,0,1,2.591-20.454,16.744,16.744,0,0,0,.574-4.482Z" transform="translate(-44.746 -122.084)" fill="#f2f3f5"/>
      <path id="Path_31394" data-name="Path 31394" d="M235.123,381.569H96.829a2.039,2.039,0,0,1-2.039-2.039H237.155A2.039,2.039,0,0,1,235.123,381.569Z" transform="translate(-27.679 -149.763)" fill="#e0e0e0"/>
      <rect id="Rectangle_26919" data-name="Rectangle 26919" width="40.689" height="42.168" transform="translate(60.796 32.894)" fill="#e0e0e0"/>
      <rect id="Rectangle_26920" data-name="Rectangle 26920" width="39.669" height="42.168" transform="translate(64.138 32.894)" fill="#f2f3f5"/>
      <rect id="Rectangle_26921" data-name="Rectangle 26921" width="35.52" height="33.021" transform="translate(100.479 36.214) rotate(90)" fill="#fafafa"/>
      <path id="Path_31395" data-name="Path 31395" d="M114.877,118.56,105.85,134.2h18.061Z" transform="translate(-30.908 -73.56)" fill="#f2f3f5"/>
      <rect id="Rectangle_26922" data-name="Rectangle 26922" width="40.689" height="42.168" transform="translate(115.036 50.65)" fill="#e0e0e0"/>
      <rect id="Rectangle_26923" data-name="Rectangle 26923" width="39.669" height="42.168" transform="translate(118.371 50.65)" fill="#f2f3f5"/>
      <rect id="Rectangle_26924" data-name="Rectangle 26924" width="35.52" height="33.021" transform="translate(154.712 53.978) rotate(90)" fill="#fafafa"/>
      <path id="Path_31396" data-name="Path 31396" d="M195.712,159.585l3.915-6.783a4.673,4.673,0,0,0-4.043-7h-7.838a4.666,4.666,0,0,0-4.036,7l3.915,6.783a4.666,4.666,0,0,0,8.085,0Z" transform="translate(-53.461 -81.514)" fill="#f2f3f5"/>
      <rect id="Rectangle_26925" data-name="Rectangle 26925" width="11.123" height="97.145" transform="translate(238.851 131.299)" fill="#e6e6e6"/>
      <rect id="Rectangle_26926" data-name="Rectangle 26926" width="61.603" height="3.349" transform="translate(241.782 228.443)" fill="#e6e6e6"/>
      <rect id="Rectangle_26927" data-name="Rectangle 26927" width="56.35" height="97.145" transform="translate(306.316 228.45) rotate(180)" fill="#f2f3f5"/>
      <rect id="Rectangle_26928" data-name="Rectangle 26928" width="44.335" height="17.346" transform="translate(300.312 199.231) rotate(180)" fill="#e6e6e6"/>
      <rect id="Rectangle_26929" data-name="Rectangle 26929" width="44.335" height="17.346" transform="translate(300.312 221.937) rotate(180)" fill="#e6e6e6"/>
      <rect id="Rectangle_26930" data-name="Rectangle 26930" width="15.087" height="2.379" rx="1.189" transform="translate(270.598 189.369)" fill="#f2f3f5"/>
      <rect id="Rectangle_26931" data-name="Rectangle 26931" width="15.087" height="2.379" rx="1.189" transform="translate(270.598 212.074)" fill="#f2f3f5"/>
      <rect id="Rectangle_26932" data-name="Rectangle 26932" width="44.335" height="17.346" transform="translate(300.312 154.004) rotate(180)" fill="#e6e6e6"/>
      <rect id="Rectangle_26933" data-name="Rectangle 26933" width="44.335" height="17.346" transform="translate(300.312 176.533) rotate(180)" fill="#e6e6e6"/>
      <rect id="Rectangle_26934" data-name="Rectangle 26934" width="15.087" height="2.379" rx="1.189" transform="translate(270.598 144.142)" fill="#f2f3f5"/>
      <rect id="Rectangle_26935" data-name="Rectangle 26935" width="15.087" height="2.379" rx="1.189" transform="translate(270.598 166.663)" fill="#f2f3f5"/>
      <path id="Path_31397" data-name="Path 31397" d="M407.5,200.81H397.053s1.812,6.259,1.812,9.912-7.944,18.125,3.413,18.125,3.405-14.436,3.405-18.125S407.5,200.81,407.5,200.81Z" transform="translate(-115.68 -97.577)" fill="#f2f3f5"/>
      <path id="Path_31398" data-name="Path 31398" d="M369.692,210.631a4.956,4.956,0,1,1-4.956-4.991A4.956,4.956,0,0,1,369.692,210.631Z" transform="translate(-105.056 -98.987)" fill="#f2f3f5"/>
      <path id="Path_31399" data-name="Path 31399" d="M381.733,213.991A4.991,4.991,0,1,1,376.741,209a4.991,4.991,0,0,1,4.991,4.991Z" transform="translate(-108.551 -99.968)" fill="#f2f3f5"/>
      <path id="Path_31400" data-name="Path 31400" d="M392.043,211.271a4.991,4.991,0,1,1-4.991-4.991,4.991,4.991,0,0,1,4.991,4.991Z" transform="translate(-111.562 -99.174)" fill="#f2f3f5"/>
      <path id="Path_31401" data-name="Path 31401" d="M354.11,216.18v5.664c0,6.315,6.11,11.484,13.572,11.484h6.74c7.469,0,13.579-5.168,13.579-11.484V216.18Z" transform="translate(-103.4 -102.065)" fill="#e6e6e6"/>
      <path id="Path_31402" data-name="Path 31402" d="M317.511,163.3a14.181,14.181,0,1,1,0-28.362h1.742V163.3Z" transform="translate(-88.572 -78.342)" fill="#e0e0e0"/>
      <circle id="Ellipse_1607" data-name="Ellipse 1607" cx="14.181" cy="14.181" r="14.181" transform="translate(213.647 81.37) rotate(-76.83)" fill="#f2f3f5"/>
      <path id="Path_31403" data-name="Path 31403" d="M325.99,139.268a1.77,1.77,0,1,1,0-3.54A15.328,15.328,0,0,0,341.3,120.421V96.88a1.77,1.77,0,0,1,3.54,0v23.541a18.875,18.875,0,0,1-18.854,18.847Z" transform="translate(-94.672 -66.712)" fill="#e0e0e0"/>
      <path id="Path_31404" data-name="Path 31404" d="M360.684,118.141H327.21l3.738-30.671h26Z" transform="translate(-95.545 -64.481)" fill="#f2f3f5"/>
    </g>
    <g id="freepik--Shadow--inject-11" transform="translate(39.726 302.743)">
      <ellipse id="Ellipse_1608" data-name="Ellipse 1608" cx="137.274" cy="8.015" rx="137.274" ry="8.015" fill="#f5f5f5"/>
    </g>
    <g id="freepik--Hashtag--inject-11" transform="translate(59.46 92.885)">
      <path id="Path_31405" data-name="Path 31405" d="M308.636,262.981l-1.211-9.409a5.82,5.82,0,0,0-5.763-5.069H270.3a5.806,5.806,0,0,1-5.763-5.062l-6.507-50.466a5.8,5.8,0,0,1,5.756-6.549h28.362a5.806,5.806,0,0,0,5.756-6.556l-1.2-9.416a5.806,5.806,0,0,0-5.763-5.062H259.579a5.806,5.806,0,0,1-5.756-5.069l-6.032-46.728a5.813,5.813,0,0,0-5.763-5.069H232.71a5.813,5.813,0,0,0-5.763,6.556l5.664,43.74a5.813,5.813,0,0,1-5.763,6.556H150.9a5.806,5.806,0,0,1-5.756-5.069l-6.032-46.728a5.806,5.806,0,0,0-5.756-5.069h-9.317a5.813,5.813,0,0,0-5.763,6.556l5.664,43.74a5.813,5.813,0,0,1-5.763,6.556H89.793a5.806,5.806,0,0,0-5.763,6.549l1.218,9.409a5.806,5.806,0,0,0,5.763,5.069h31.357a5.806,5.806,0,0,1,5.763,5.062l6.514,50.466a5.806,5.806,0,0,1-5.763,6.549H100.52a5.813,5.813,0,0,0-5.763,6.556l1.218,9.409a5.806,5.806,0,0,0,5.756,5.069h31.364a5.806,5.806,0,0,1,5.763,5.062l6.025,46.728a5.813,5.813,0,0,0,5.763,5.069h9.317a5.813,5.813,0,0,0,5.763-6.556l-5.664-43.74a5.806,5.806,0,0,1,5.777-6.492h75.926a5.806,5.806,0,0,1,5.777,5.027l6.025,46.728a5.813,5.813,0,0,0,5.763,5.069h9.317a5.806,5.806,0,0,0,5.756-6.556L268.74,276.1a5.806,5.806,0,0,1,5.763-6.549h28.363a5.813,5.813,0,0,0,5.77-6.57ZM155.864,243.441l-6.507-50.466a5.806,5.806,0,0,1,5.756-6.549h75.926a5.806,5.806,0,0,1,5.763,5.062l6.492,50.473a5.806,5.806,0,0,1-5.763,6.549h-75.9a5.813,5.813,0,0,1-5.763-5.069Z" transform="translate(-83.982 -108.51)" fill="#5e2d77"/>
      <path id="Path_31406" data-name="Path 31406" d="M308.636,262.981l-1.211-9.409a5.82,5.82,0,0,0-5.763-5.069H270.3a5.806,5.806,0,0,1-5.763-5.062l-6.507-50.466a5.8,5.8,0,0,1,5.756-6.549h28.362a5.806,5.806,0,0,0,5.756-6.556l-1.2-9.416a5.806,5.806,0,0,0-5.763-5.062H259.579a5.806,5.806,0,0,1-5.756-5.069l-6.032-46.728a5.813,5.813,0,0,0-5.763-5.069H232.71a5.813,5.813,0,0,0-5.763,6.556l5.664,43.74a5.813,5.813,0,0,1-5.763,6.556H150.9a5.806,5.806,0,0,1-5.756-5.069l-6.032-46.728a5.806,5.806,0,0,0-5.756-5.069h-9.317a5.813,5.813,0,0,0-5.763,6.556l5.664,43.74a5.813,5.813,0,0,1-5.763,6.556H89.793a5.806,5.806,0,0,0-5.763,6.549l1.218,9.409a5.806,5.806,0,0,0,5.763,5.069h31.357a5.806,5.806,0,0,1,5.763,5.062l6.514,50.466a5.806,5.806,0,0,1-5.763,6.549H100.52a5.813,5.813,0,0,0-5.763,6.556l1.218,9.409a5.806,5.806,0,0,0,5.756,5.069h31.364a5.806,5.806,0,0,1,5.763,5.062l6.025,46.728a5.813,5.813,0,0,0,5.763,5.069h9.317a5.813,5.813,0,0,0,5.763-6.556l-5.664-43.74a5.806,5.806,0,0,1,5.777-6.492h75.926a5.806,5.806,0,0,1,5.777,5.027l6.025,46.728a5.813,5.813,0,0,0,5.763,5.069h9.317a5.806,5.806,0,0,0,5.756-6.556L268.74,276.1a5.806,5.806,0,0,1,5.763-6.549h28.363a5.813,5.813,0,0,0,5.77-6.57ZM155.864,243.441l-6.507-50.466a5.806,5.806,0,0,1,5.756-6.549h75.926a5.806,5.806,0,0,1,5.763,5.062l6.492,50.473a5.806,5.806,0,0,1-5.763,6.549h-75.9a5.813,5.813,0,0,1-5.763-5.069Z" transform="translate(-83.982 -108.489)" fill="#0e1740" opacity="0.2"/>
      <path id="Path_31407" data-name="Path 31407" d="M203.486,305.211l-.708-5.381.708-.092.708,5.381Zm99.332-72.358-2.492-19.293.708-.085,2.485,19.286Zm-117.755-70.4-1.012-7.746.708-.092,1.005,7.788Zm-1.614-12.51-1.7-13.148.708-.092,1.692,13.148Z" transform="translate(-112.531 -116.742)" fill="#00ae9f"/>
      <path id="Path_31408" data-name="Path 31408" d="M203.486,305.211l-.708-5.381.708-.092.708,5.381Zm99.332-72.358-2.492-19.293.708-.085,2.485,19.286Zm-117.755-70.4-1.012-7.746.708-.092,1.005,7.788Zm-1.614-12.51-1.7-13.148.708-.092,1.692,13.148Z" transform="translate(-112.531 -116.742)" fill="#00ae9f" opacity="0.3"/>
      <path id="Path_31409" data-name="Path 31409" d="M323.332,262.987l-1.218-9.409a5.813,5.813,0,0,0-5.763-5.069H284.986a5.806,5.806,0,0,1-5.756-5.062l-6.514-50.466a5.813,5.813,0,0,1,5.763-6.549h28.362a5.813,5.813,0,0,0,5.763-6.556l-1.253-9.416A5.8,5.8,0,0,0,305.6,165.4H274.232a5.813,5.813,0,0,1-5.763-5.069L262.444,113.6a5.813,5.813,0,0,0-5.763-5.069h-9.317a5.813,5.813,0,0,0-5.763,6.556l5.664,43.74a5.813,5.813,0,0,1-5.763,6.556h-75.94a5.813,5.813,0,0,1-5.777-5.048l-6.025-46.728A5.813,5.813,0,0,0,148,108.537h-9.3a5.806,5.806,0,0,0-5.756,6.556l5.664,43.74a5.813,5.813,0,0,1-5.763,6.556H104.453a5.806,5.806,0,0,0-5.763,6.549l1.211,9.409a5.813,5.813,0,0,0,5.763,5.069h31.364a5.806,5.806,0,0,1,5.763,5.062l6.507,50.487a5.8,5.8,0,0,1-5.756,6.549H115.18a5.806,5.806,0,0,0-5.756,6.556l1.211,9.409a5.813,5.813,0,0,0,5.763,5.069h31.35a5.8,5.8,0,0,1,5.756,5.062l6.032,46.728a5.813,5.813,0,0,0,5.763,5.069h9.353a5.813,5.813,0,0,0,5.763-6.556l-5.664-43.74a5.806,5.806,0,0,1,5.763-6.549h75.912a5.806,5.806,0,0,1,5.756,5.062l6.032,46.728a5.806,5.806,0,0,0,5.756,5.069h9.317a5.813,5.813,0,0,0,5.763-6.556l-5.664-43.74a5.806,5.806,0,0,1,5.756-6.549h28.37a5.813,5.813,0,0,0,5.82-6.591ZM170.559,243.446l-6.528-50.466a5.813,5.813,0,0,1,5.763-6.549h75.9a5.812,5.812,0,0,1,5.763,5.061l6.507,50.474a5.806,5.806,0,0,1-5.756,6.549H176.287a5.806,5.806,0,0,1-5.763-5.069Z" transform="translate(-88.263 -108.516)" fill="#5e2d77"/>
      <path id="Path_31411" data-name="Path 31411" d="M284.123,325.194h-9.317a3.774,3.774,0,0,1-3.738-3.292l-6.032-46.728a7.859,7.859,0,0,0-7.788-6.839H181.336a7.845,7.845,0,0,0-7.788,8.85l5.664,43.74a3.767,3.767,0,0,1-3.745,4.248h-9.324a3.774,3.774,0,0,1-3.745-3.292l-6.025-46.728a7.873,7.873,0,0,0-7.788-6.839H117.219a3.788,3.788,0,0,1-3.745-3.292l-1.211-9.409A3.767,3.767,0,0,1,116,251.363h28.37a7.852,7.852,0,0,0,7.788-8.85l-6.514-50.459a7.866,7.866,0,0,0-7.788-6.846H106.493a3.774,3.774,0,0,1-3.738-3.285l-1.218-9.416a3.767,3.767,0,0,1,3.745-4.248h28.362a7.845,7.845,0,0,0,7.788-8.85l-5.664-43.74a3.767,3.767,0,0,1,3.738-4.248h9.317a3.788,3.788,0,0,1,3.745,3.292l6.025,46.728a7.866,7.866,0,0,0,7.788,6.839h75.94a7.845,7.845,0,0,0,7.788-8.85l-5.664-43.74a3.767,3.767,0,0,1,3.738-4.248H257.5a3.8,3.8,0,0,1,3.745,3.292l6.025,46.728a7.859,7.859,0,0,0,7.788,6.839h31.407a3.781,3.781,0,0,1,3.738,3.292l1.218,9.388a3.767,3.767,0,0,1-3.745,4.248h-28.4a7.852,7.852,0,0,0-7.788,8.85l6.514,50.466a7.859,7.859,0,0,0,7.788,6.839h31.364a3.781,3.781,0,0,1,3.745,3.292l1.211,9.409a3.767,3.767,0,0,1-3.738,4.248h-28.37a7.83,7.83,0,0,0-7.788,8.85l5.664,43.74a3.781,3.781,0,0,1-3.745,4.248ZM181.336,268.171h75.926a8.036,8.036,0,0,1,7.951,7l6.032,46.728a3.6,3.6,0,0,0,3.54,3.136H284.1a3.59,3.59,0,0,0,3.54-4.057l-5.664-43.74a8.022,8.022,0,0,1,7.958-9.048H318.3a3.59,3.59,0,0,0,3.54-4.057l-1.218-9.409a3.6,3.6,0,0,0-3.54-3.136H285.716a8.043,8.043,0,0,1-7.951-7l-6.514-50.466a8.022,8.022,0,0,1,7.958-9.048h28.362a3.59,3.59,0,0,0,3.54-4.057l-1.1-9.423a3.611,3.611,0,0,0-3.54-3.136H275.1a8.043,8.043,0,0,1-7.958-7l-6.025-46.728a3.6,3.6,0,0,0-3.54-3.136H248.2a3.6,3.6,0,0,0-3.54,4.057l5.664,43.74a8.022,8.022,0,0,1-8,9.077H166.4a8.043,8.043,0,0,1-7.958-7l-6.025-46.728a3.6,3.6,0,0,0-3.54-3.136h-9.346a3.59,3.59,0,0,0-3.54,4.057l5.664,43.74a8.022,8.022,0,0,1-8,9.062H105.29a3.6,3.6,0,0,0-3.54,4.057l1.182,9.4a3.6,3.6,0,0,0,3.54,3.136h31.364a8.043,8.043,0,0,1,7.958,7L152.3,242.52a8.015,8.015,0,0,1-7.951,9.048H116.016a3.59,3.59,0,0,0-3.54,4.057l1.211,9.409a3.6,3.6,0,0,0,3.54,3.136h31.357a8.036,8.036,0,0,1,7.951,7l6.032,46.728a3.6,3.6,0,0,0,3.54,3.136h9.381a3.59,3.59,0,0,0,3.54-4.057l-5.664-43.74a8.022,8.022,0,0,1,7.958-9.048Zm71.713-16.6H177.123a8.043,8.043,0,0,1-7.958-7l-6.514-50.466a8.022,8.022,0,0,1,7.958-9.048h75.926a8.043,8.043,0,0,1,7.958,7L261,242.52a8.022,8.022,0,0,1-7.951,9.048Zm-82.44-66.333a7.852,7.852,0,0,0-7.788,8.85l6.514,50.466a7.866,7.866,0,0,0,7.788,6.839h75.926a7.845,7.845,0,0,0,7.788-8.85l-6.507-50.459a7.866,7.866,0,0,0-7.788-6.846Z" transform="translate(-89.099 -109.36)" fill="#eeeaf0"/>
    </g>
    <g id="freepik--Character--inject-11" transform="translate(138.078 141.149)">
      <path id="Path_31412" data-name="Path 31412" d="M275.92,369.733l5.558,3.25,8.39-12.376-5.558-3.257Z" transform="translate(-218.647 -229.435)" fill="#e4897b"/>
      <path id="Path_31413" data-name="Path 31413" d="M279.653,376.774l-4.567-5.614a.51.51,0,0,0-.666-.12l-4.956,2.974a1.041,1.041,0,0,0-.241,1.529c1.628,1.926,2.513,2.775,4.524,5.246,1.232,1.522,3.632,4.793,5.345,6.889s3.873.517,3.349-.51c-2.351-4.6-2.443-7.08-2.407-9.31A1.657,1.657,0,0,0,279.653,376.774Z" transform="translate(-216.623 -233.41)" fill="#263238"/>
      <path id="Path_31414" data-name="Path 31414" d="M285.967,382.98h-.135c-.906-.142-1.869-1.728-2.358-2.655a.106.106,0,0,1,.135-.149c.3.127,2.917,1.281,3.08,2.124a.453.453,0,0,1-.142.418A.807.807,0,0,1,285.967,382.98Zm-2.124-2.492c.743,1.338,1.508,2.181,2.053,2.266a.581.581,0,0,0,.531-.184.262.262,0,0,0,.078-.227c-.134-.566-1.784-1.437-2.662-1.855Z" transform="translate(-220.849 -236.098)" fill="#00ae9f"/>
      <path id="Path_31415" data-name="Path 31415" d="M285.66,380.4a5.664,5.664,0,0,1-2.124-.432.092.092,0,0,1-.057-.085.1.1,0,0,1,.042-.1,4.3,4.3,0,0,1,2.506-.814,1.083,1.083,0,0,1,.708.474c.219.333.135.545,0,.658A1.515,1.515,0,0,1,285.66,380.4Zm-1.862-.545c.871.347,2.471.467,2.8.106,0-.035.12-.135-.057-.4a.843.843,0,0,0-.566-.382,3.773,3.773,0,0,0-2.174.7Z" transform="translate(-220.854 -235.74)" fill="#00ae9f"/>
      <path id="Path_31416" data-name="Path 31416" d="M260.9,237.13l.269,1.076.3,1.161c.205.779.439,1.565.673,2.351q.708,2.358,1.494,4.708c.552,1.558,1.083,3.129,1.685,4.68.29.772.581,1.558.885,2.329l.361.927a2.124,2.124,0,0,0,.283.446,8.311,8.311,0,0,0,3.136,1.982,29.673,29.673,0,0,0,4.467,1.416c1.572.368,3.186.673,4.821.927s3.313.453,4.956.63l.057,3.335a51.335,51.335,0,0,1-10.62,0,30.646,30.646,0,0,1-5.459-1.055,17.941,17.941,0,0,1-2.832-1.112,10.832,10.832,0,0,1-2.832-1.982,7.745,7.745,0,0,1-1.239-1.607,5.1,5.1,0,0,1-.262-.474l-.163-.333-.283-.588c-.382-.786-.765-1.572-1.119-2.372-.708-1.6-1.416-3.207-2.039-4.85s-1.225-3.3-1.763-4.956c-.262-.85-.51-1.706-.708-2.57l-.34-1.317c-.1-.46-.191-.857-.29-1.416Z" transform="translate(-212.345 -194.331)" fill="#e4897b"/>
      <path id="Path_31417" data-name="Path 31417" d="M257.273,227.037c2.655.673,4.517,11.6,4.517,11.6L254.47,243.6s-7.016-11.024-4.956-13.948C251.624,226.634,253.4,226.046,257.273,227.037Z" transform="translate(-210.826 -191.254)" fill="#00ae9f"/>
      <path id="Path_31418" data-name="Path 31418" d="M257.273,227.037c2.655.673,4.517,11.6,4.517,11.6L254.47,243.6s-7.016-11.024-4.956-13.948C251.624,226.634,253.4,226.046,257.273,227.037Z" transform="translate(-210.826 -191.254)" fill="#5e2d77" opacity="0.2"/>
      <path id="Path_31419" data-name="Path 31419" d="M258.439,232.83l-5.664,1.317-.545,5.558a64.438,64.438,0,0,0,3.186,5.735l4.439-3.016C259.622,239.868,259.147,234.558,258.439,232.83Z" transform="translate(-211.729 -193.075)" fill="#00ae9f"/>
      <path id="Path_31420" data-name="Path 31420" d="M258.439,232.83l-5.664,1.317-.545,5.558a64.438,64.438,0,0,0,3.186,5.735l4.439-3.016C259.622,239.868,259.147,234.558,258.439,232.83Z" transform="translate(-211.729 -193.075)" fill="#5e2d77" opacity="0.3"/>
      <path id="Path_31421" data-name="Path 31421" d="M294.92,267.09l4.567-4.63.6,6.521s-3.427,2.322-5.8,1.076Z" transform="translate(-224.011 -201.727)" fill="#e4897b"/>
      <path id="Path_31422" data-name="Path 31422" d="M307,261.47l.205,5.494-4.977,1.72-.6-6.521Z" transform="translate(-226.154 -201.438)" fill="#e4897b"/>
      <path id="Path_31423" data-name="Path 31423" d="M262.97,386.675h6.443l2.074-14.925h-6.45Z" transform="translate(-214.865 -233.64)" fill="#e4897b"/>
      <path id="Path_31424" data-name="Path 31424" d="M268.287,388.68l-6.372-3.405a.51.51,0,0,0-.658.149l-3.42,4.666a1.041,1.041,0,0,0,.375,1.5c2.244,1.147,3.391,1.586,6.2,3.08,1.728.92,6.06,3.462,8.454,4.737s3.767-1.027,2.889-1.77c-3.944-3.328-5.855-6.039-6.684-8.1A1.65,1.65,0,0,0,268.287,388.68Z" transform="translate(-213.315 -237.57)" fill="#263238"/>
      <path id="Path_31425" data-name="Path 31425" d="M214.442,187.293c-.163,7.08-8.829,4.156-9.8,12.312-.545,4.581-6.1,5.055-7.08,9.2-.963,4.014,2.952,6.931,0,11.93-3.951,6.691-6.16,18.358,16.008,19.569,16.482.9,22.281-15.845,19.484-26.132S228.7,202.3,231.767,199.47s7.979-4.248,6.407-12.9c-1.218-6.691-4.177-5.9-4.177-5.9C233.848,176.97,214.831,171.54,214.442,187.293Z" transform="translate(-195.026 -176.679)" fill="#263238"/>
      <path id="Path_31426" data-name="Path 31426" d="M291.541,360.607l-4.326,6.379-5.565-3.25,4.326-6.386Z" transform="translate(-220.32 -229.435)" fill="#ce6f64"/>
      <path id="Path_31427" data-name="Path 31427" d="M265.449,371.76h6.45l-1.076,7.689H264.38Z" transform="translate(-215.277 -233.643)" fill="#ce6f64"/>
      <path id="Path_31428" data-name="Path 31428" d="M246.64,226.452s3.073,1.083-3.08,38.89h-26.2c.439-10.62.446-17.219-4.644-39.082a77.408,77.408,0,0,1,11.116-1.458,83.18,83.18,0,0,1,11.887,0C240.849,225.27,246.64,226.452,246.64,226.452Z" transform="translate(-200.192 -190.669)" fill="#00ae9f"/>
      <path id="Path_31429" data-name="Path 31429" d="M246.64,226.452s3.073,1.083-3.08,38.89h-26.2c.439-10.62.446-17.219-4.644-39.082a77.408,77.408,0,0,1,11.116-1.458,83.18,83.18,0,0,1,11.887,0C240.849,225.27,246.64,226.452,246.64,226.452Z" transform="translate(-200.192 -190.669)" fill="#5e2d77" opacity="0.2"/>
      <path id="Path_31430" data-name="Path 31430" d="M229.635,206c.75,3.823,1.5,10.825-1.175,13.381,0,0,1.048,3.88,8.149,3.88,6.839,0,3.738-3.88,3.738-3.88-4.248-1.02-4.156-4.184-3.413-7.158Z" transform="translate(-204.788 -185.241)" fill="#e4897b"/>
      <path id="Path_31431" data-name="Path 31431" d="M234.262,209.58l4.319,3.682a12.3,12.3,0,0,0-.361,2.124c-1.635-.234-3.873-2.025-4.043-3.731A5.849,5.849,0,0,1,234.262,209.58Z" transform="translate(-206.442 -186.286)" fill="#ce6f64"/>
      <path id="Path_31432" data-name="Path 31432" d="M229.259,188.533c-.708,6.372-1.189,9.02,1.416,12.815,3.908,5.706,11.873,5.225,14.493-.779,2.358-5.4,3.172-14.868-2.535-18.486a8.723,8.723,0,0,0-13.374,6.45Z" transform="translate(-204.858 -177.856)" fill="#e4897b"/>
      <path id="Path_31433" data-name="Path 31433" d="M228.853,191.743c.9,1.671,14.663-5.94,13.1-10.025s-5.664-2.605-5.664-2.605-7.271,1.657-8.5,5.43A9.1,9.1,0,0,0,228.853,191.743Z" transform="translate(-204.488 -177.313)" fill="#263238"/>
      <path id="Path_31434" data-name="Path 31434" d="M225.7,197.1a4.85,4.85,0,0,0,1.65,3.165c1.246,1.055,2.485.113,2.655-1.416.156-1.366-.3-3.54-1.8-4.036A1.978,1.978,0,0,0,225.7,197.1Z" transform="translate(-203.978 -181.944)" fill="#e4897b"/>
      <path id="Path_31435" data-name="Path 31435" d="M248.341,282.15s40.738,3.922,40.314,23.569c-.439,20.44-15.116,38.848-15.116,38.848l-7.7-4.354s8.5-17.99,8.057-30.246c-.354-10.478-39.421-12.489-39.421-12.489L229.09,282.15Z" transform="translate(-204.972 -207.476)" fill="#0e1740"/>
      <path id="Path_31436" data-name="Path 31436" d="M248.341,282.15s40.738,3.922,40.314,23.569c-.439,20.44-15.116,38.848-15.116,38.848l-7.7-4.354s8.5-17.99,8.057-30.246c-.354-10.478-39.421-12.489-39.421-12.489L229.09,282.15Z" transform="translate(-204.972 -207.476)" fill="#fafafa" opacity="0.2"/>
      <path id="Path_31437" data-name="Path 31437" d="M276.33,298.42l.821,8.354c5.7,1.784,10.082,4.248,10.514,7.547C288.628,306.93,283.474,302.562,276.33,298.42Z" transform="translate(-218.766 -212.227)" fill="#0e1740"/>
      <path id="Path_31438" data-name="Path 31438" d="M276.33,298.42l.821,8.354c5.7,1.784,10.082,4.248,10.514,7.547C288.628,306.93,283.474,302.562,276.33,298.42Z" transform="translate(-218.766 -212.227)" fill="#fafafa" opacity="0.4"/>
      <path id="Path_31439" data-name="Path 31439" d="M238.123,282.15s27.952,9.261,28.66,20.723c1.3,21.105-7.979,48.923-7.979,48.923h-8.822s.5-18.458,1.551-37.581c1.317-24.022-41.064-.333-32.667-32.065Z" transform="translate(-201.665 -207.476)" fill="#0e1740"/>
      <path id="Path_31440" data-name="Path 31440" d="M238.123,282.15s27.952,9.261,28.66,20.723c1.3,21.105-7.979,48.923-7.979,48.923h-8.822s.5-18.458,1.551-37.581c1.317-24.022-41.064-.333-32.667-32.065Z" transform="translate(-201.665 -207.476)" fill="#fafafa" opacity="0.2"/>
      <path id="Path_31441" data-name="Path 31441" d="M242.5,196.309c-.092.51.106.97.439,1.034s.708-.312.772-.821-.106-.977-.439-1.034S242.593,195.792,242.5,196.309Z" transform="translate(-208.882 -182.169)" fill="#263238"/>
      <path id="Path_31442" data-name="Path 31442" d="M250.662,197.768c-.085.51.106.97.446,1.034s.708-.3.772-.821-.106-.97-.446-1.034S250.754,197.251,250.662,197.768Z" transform="translate(-211.265 -182.595)" fill="#263238"/>
      <path id="Path_31443" data-name="Path 31443" d="M251.55,196.945l1.289-.135S252.039,197.653,251.55,196.945Z" transform="translate(-211.531 -182.557)" fill="#263238"/>
      <path id="Path_31444" data-name="Path 31444" d="M248.013,199a13.991,13.991,0,0,0,1.211,3.54,2.258,2.258,0,0,1-1.883,0Z" transform="translate(-210.301 -183.197)" fill="#de5753"/>
      <path id="Path_31445" data-name="Path 31445" d="M242.272,204.9h-.042a4.46,4.46,0,0,1-2.251-2.4.1.1,0,0,1,.184-.064,4.333,4.333,0,0,0,2.124,2.287.093.093,0,0,1-.014.177Z" transform="translate(-208.15 -184.181)" fill="#263238"/>
      <path id="Path_31446" data-name="Path 31446" d="M241.516,192.952a.2.2,0,0,1-.142-.34,2.917,2.917,0,0,1,2.577-.708.194.194,0,0,1-.1.375,2.513,2.513,0,0,0-2.223.644A.205.205,0,0,1,241.516,192.952Z" transform="translate(-208.541 -181.106)" fill="#263238"/>
      <path id="Path_31447" data-name="Path 31447" d="M254.271,194.027a.212.212,0,0,1-.177-.12,2.549,2.549,0,0,0-1.742-1.515.194.194,0,1,1,.064-.382,2.889,2.889,0,0,1,2.032,1.742.184.184,0,0,1-.1.255A.142.142,0,0,1,254.271,194.027Z" transform="translate(-211.717 -181.154)" fill="#263238"/>
      <path id="Path_31448" data-name="Path 31448" d="M275.091,392.72a4.617,4.617,0,0,1-2.358-1.3.1.1,0,0,1-.035-.113.113.113,0,0,1,.092-.078c.262,0,2.563-.212,3.044.418a.474.474,0,0,1,.064.474.835.835,0,0,1-.573.573A1.172,1.172,0,0,1,275.091,392.72Zm-2.025-1.3c.935.779,1.742,1.175,2.2,1.055a.609.609,0,0,0,.425-.432.241.241,0,0,0,0-.269C275.353,391.367,273.866,391.374,273.066,391.424Z" transform="translate(-217.704 -239.317)" fill="#00ae9f"/>
      <path id="Path_31449" data-name="Path 31449" d="M272.807,390.689a.092.092,0,0,1-.092-.057.113.113,0,0,1,0-.106c.035-.064.906-1.685,1.8-1.9a.708.708,0,0,1,.63.12.474.474,0,0,1,.234.566c-.191.651-1.784,1.352-2.563,1.374Zm1.9-1.869h-.149c-.637.149-1.3,1.189-1.558,1.607.743-.113,2.018-.708,2.166-1.2a.3.3,0,0,0-.149-.326.531.531,0,0,0-.312-.085Z" transform="translate(-217.707 -238.56)" fill="#00ae9f"/>
      <path id="Path_31450" data-name="Path 31450" d="M243.38,195.435l1.3-.135S243.869,196.15,243.38,195.435Z" transform="translate(-209.145 -182.116)" fill="#263238"/>
      <path id="Path_31451" data-name="Path 31451" d="M218.666,279.918l-.205,2.343c-.092.184.12.368.425.368h26.472c.241,0,.432-.113.446-.262l.241-2.343c0-.163-.191-.3-.446-.3H219.091A.5.5,0,0,0,218.666,279.918Z" transform="translate(-201.862 -206.767)" fill="#263238"/>
      <path id="Path_31452" data-name="Path 31452" d="M223.4,282.78h-.708c-.142,0-.248-.071-.241-.163l.333-3.044c0-.092.135-.163.276-.163h.708c.142,0,.248.071.241.163l-.333,3.044C223.661,282.709,223.547,282.78,223.4,282.78Z" transform="translate(-203.033 -206.676)" fill="#00ae9f"/>
      <path id="Path_31453" data-name="Path 31453" d="M223.4,282.78h-.708c-.142,0-.248-.071-.241-.163l.333-3.044c0-.092.135-.163.276-.163h.708c.142,0,.248.071.241.163l-.333,3.044C223.661,282.709,223.547,282.78,223.4,282.78Z" transform="translate(-203.033 -206.676)" fill="#fafafa" opacity="0.6"/>
      <path id="Path_31454" data-name="Path 31454" d="M253.261,282.78h-.708c-.142,0-.248-.071-.234-.163l.333-3.044c0-.092.127-.163.269-.163h.708c.142,0,.248.071.234.163l-.333,3.044A.257.257,0,0,1,253.261,282.78Z" transform="translate(-211.755 -206.676)" fill="#00ae9f"/>
      <path id="Path_31455" data-name="Path 31455" d="M253.261,282.78h-.708c-.142,0-.248-.071-.234-.163l.333-3.044c0-.092.127-.163.269-.163h.708c.142,0,.248.071.234.163l-.333,3.044A.257.257,0,0,1,253.261,282.78Z" transform="translate(-211.755 -206.676)" fill="#fafafa" opacity="0.6"/>
      <path id="Path_31456" data-name="Path 31456" d="M238.328,282.78h-.708c-.142,0-.255-.071-.241-.163l.333-3.044c0-.092.135-.163.276-.163h.708c.142,0,.248.071.241.163l-.333,3.044C238.59,282.709,238.47,282.78,238.328,282.78Z" transform="translate(-207.393 -206.676)" fill="#00ae9f"/>
      <path id="Path_31457" data-name="Path 31457" d="M238.328,282.78h-.708c-.142,0-.255-.071-.241-.163l.333-3.044c0-.092.135-.163.276-.163h.708c.142,0,.248.071.241.163l-.333,3.044C238.59,282.709,238.47,282.78,238.328,282.78Z" transform="translate(-207.393 -206.676)" fill="#fafafa" opacity="0.6"/>
      <path id="Path_31458" data-name="Path 31458" d="M220.067,241.29l-3.377,2.874c.708,3.823,1.2,7.009,1.515,9.841C218.835,251.167,220.449,243.464,220.067,241.29Z" transform="translate(-201.352 -195.545)" fill="#00ae9f"/>
      <path id="Path_31459" data-name="Path 31459" d="M220.067,241.29l-3.377,2.874c.708,3.823,1.2,7.009,1.515,9.841C218.835,251.167,220.449,243.464,220.067,241.29Z" transform="translate(-201.352 -195.545)" fill="#5e2d77" opacity="0.3"/>
      <path id="Path_31460" data-name="Path 31460" d="M300.823,256.6H254.9l-6.655,27.123h45.928Z" transform="translate(-210.564 -200.016)" fill="#fafafa"/>
      <path id="Path_31461" data-name="Path 31461" d="M270.622,287.78l-28.086,6.549-18.026-5.055.184-1.494Z" transform="translate(-203.635 -209.12)" fill="#fafafa"/>
      <path id="Path_31462" data-name="Path 31462" d="M213.672,239.241c-.545,1.805-1.14,3.667-1.671,5.508s-1.09,3.7-1.572,5.544-.942,3.689-1.3,5.494c-.17.9-.333,1.8-.439,2.648a15.173,15.173,0,0,0-.12,1.8,3.236,3.236,0,0,0,.779,1.281,11.635,11.635,0,0,0,1.777,1.572,33.988,33.988,0,0,0,4.652,2.782c1.664.857,3.405,1.635,5.183,2.358s3.59,1.416,5.367,2.124l-.821,3.2c-2.032-.319-3.965-.772-5.933-1.26a56.514,56.514,0,0,1-5.82-1.841,34.183,34.183,0,0,1-5.749-2.733,16.988,16.988,0,0,1-2.832-2.124,8.764,8.764,0,0,1-2.4-3.611,6.9,6.9,0,0,1-.276-1.3v-2.768c.057-1.1.177-2.124.333-3.186.29-2.067.708-4.064,1.147-6.032a118.068,118.068,0,0,1,3.306-11.59Z" transform="translate(-197.208 -194.325)" fill="#e4897b"/>
      <path id="Path_31463" data-name="Path 31463" d="M210.024,226.937c-2.62.8-6.634,11.094-6.634,11.094l10.174,7.271s4.574-8.8,3.469-12.192C215.858,229.549,213.026,226,210.024,226.937Z" transform="translate(-197.468 -191.309)" fill="#00ae9f"/>
      <path id="Path_31464" data-name="Path 31464" d="M210.024,226.937c-2.62.8-6.634,11.094-6.634,11.094l10.174,7.271s4.574-8.8,3.469-12.192C215.858,229.549,213.026,226,210.024,226.937Z" transform="translate(-197.468 -191.309)" fill="#5e2d77" opacity="0.2"/>
      <path id="Path_31465" data-name="Path 31465" d="M233.344,283.7l6.117-1.551-2.917,5.869s-4.128.177-5.494-2.124Z" transform="translate(-205.545 -207.476)" fill="#e4897b"/>
      <path id="Path_31466" data-name="Path 31466" d="M246.662,284.38l-2.7,4.786-5.147-1.147,2.917-5.869Z" transform="translate(-207.811 -207.476)" fill="#e4897b"/>
      <path id="Path_31467" data-name="Path 31467" d="M302.823,256.6H256.9l-6.655,27.123h45.928Z" transform="translate(-211.148 -200.016)" fill="#efeaf1"/>
      <path id="Path_31468" data-name="Path 31468" d="M296.089,294.91l-.184,1.5H249.97l.184-1.5Z" transform="translate(-211.069 -211.202)" fill="#e4d5ea"/>
      <path id="Path_31469" data-name="Path 31469" d="M245.863,184.949c6.188,2.478,6.7,6.039,6.372,3.54a9.482,9.482,0,0,0-5.586-7.045C245.4,180.921,243.158,183.866,245.863,184.949Z" transform="translate(-209.497 -178.052)" fill="#263238"/>
      <path id="Path_31470" data-name="Path 31470" d="M229.886,190.954l-.418.489a.361.361,0,0,0,0,.5l3.342,3.044a.361.361,0,0,0,.489,0l.573-.531a.361.361,0,0,0,0-.538l-3.5-3a.361.361,0,0,0-.481.035Z" transform="translate(-205.053 -180.815)" fill="#00ae9f"/>
      <path id="Path_31471" data-name="Path 31471" d="M229.886,190.954l-.418.489a.361.361,0,0,0,0,.5l3.342,3.044a.361.361,0,0,0,.489,0l.573-.531a.361.361,0,0,0,0-.538l-3.5-3a.361.361,0,0,0-.481.035Z" transform="translate(-205.053 -180.815)" fill="#ea3224"/>
      <path id="Path_31472" data-name="Path 31472" d="M227.524,224.23c.071.538.666,3.193,5.721,4.191a12.594,12.594,0,0,0-2.351,5.551s-8.864-3.476-6.174-9.112a.319.319,0,0,1,.227-.177l2.464-.524a.092.092,0,0,1,.113.071Z" transform="translate(-203.548 -190.542)" fill="#00ae9f"/>
      <path id="Path_31473" data-name="Path 31473" d="M227.524,224.23c.071.538.666,3.193,5.721,4.191a12.594,12.594,0,0,0-2.351,5.551s-8.864-3.476-6.174-9.112a.319.319,0,0,1,.227-.177l2.464-.524a.092.092,0,0,1,.113.071Z" transform="translate(-203.548 -190.542)" fill="#e5f6f4" opacity="0.6"/>
      <path id="Path_31474" data-name="Path 31474" d="M244.043,224.787c.609.644,2.273,2.832-1.933,3.837a8.069,8.069,0,0,1,3.405,5.331s6.294-4.326.566-9.027a.05.05,0,0,0-.042,0l-1.919-.269a.092.092,0,0,0-.078.127Z" transform="translate(-208.774 -190.689)" fill="#00ae9f"/>
      <path id="Path_31475" data-name="Path 31475" d="M244.043,224.787c.609.644,2.273,2.832-1.933,3.837a8.069,8.069,0,0,1,3.405,5.331s6.294-4.326.566-9.027a.05.05,0,0,0-.042,0l-1.919-.269a.092.092,0,0,0-.078.127Z" transform="translate(-208.774 -190.689)" fill="#e5f6f4" opacity="0.6"/>
    </g>
    <g id="freepik--speech-bubbles--inject-11" transform="translate(79.715 114.38)">
      <path id="Path_31476" data-name="Path 31476" d="M313.27,159c-1.076-11.123-10.854-20.136-21.835-20.128s-19.024,9.02-17.927,20.143a22.748,22.748,0,0,0,11.54,17.388l-.177,7.08,5.891-4.85a20.615,20.615,0,0,0,4.581.531C306.324,179.141,314.353,170.114,313.27,159Z" transform="translate(-159.551 -138.87)" fill="#00ae9f"/>
      <path id="Path_31478" data-name="Path 31478" d="M298.117,159.609c-4.864-1.466-8.3-6.669-8.3-6.669s-1.5-.085-1.416,1.289a7.533,7.533,0,0,0,2.443,4.956l-2.28-.127a7.228,7.228,0,0,0-2.379.262l-.708.205a2.294,2.294,0,0,0-1.466,3.037l1.515,4.467a6.372,6.372,0,0,0,2.832,3.427,5.749,5.749,0,0,0,3.731.758c2.28-.347,5.827-.878,6.436-.991h0l1.635-.142-.481-10.018Z" transform="translate(-162.6 -142.978)" fill="#fff"/>
      <path id="Path_31479" data-name="Path 31479" d="M312.588,173.611h-6.372a1.027,1.027,0,0,1-.984-.906l-1.1-11.4a.807.807,0,0,1,.807-.906h6.372a1.027,1.027,0,0,1,.991.913l1.1,11.392a.814.814,0,0,1-.814.906Z" transform="translate(-168.519 -145.157)" fill="#5e2d77"/>
      <path id="Path_31480" data-name="Path 31480" d="M163.071,231l-6.372-6.039a22.541,22.541,0,0,0-.042-3.781c-1.2-12.291-12-22.252-24.136-22.245s-21,9.976-19.824,22.267,11.994,22.252,24.129,22.245a19.505,19.505,0,0,0,17.934-11.116Z" transform="translate(-112.592 -156.408)" fill="#ea3224"/>
      <path id="Path_31481" data-name="Path 31481" d="M148.426,218.173c-3.321-3.066-8.22-3.059-10.939,0-3.321-3.059-8.22-3.059-10.946,0s-2.244,8.029,1.076,11.087l12.036,11.08,9.862-11.087C152.228,226.194,151.746,221.231,148.426,218.173Z" transform="translate(-116.149 -161.356)" fill="#00ae9f"/>
      <path id="Path_31482" data-name="Path 31482" d="M148.426,218.173c-3.321-3.066-8.22-3.059-10.939,0-3.321-3.059-8.22-3.059-10.946,0s-2.244,8.029,1.076,11.087l12.036,11.08,9.862-11.087C152.228,226.194,151.746,221.231,148.426,218.173Z" transform="translate(-116.149 -161.356)" fill="#fafafa"/>
    </g>
  </g>
</svg>
